<?xml version="1.0" standalone="yes"?>
<svg xmlns="http://www.w3.org/2000/svg" width="1337" height="91">
<path style="fill:#feffff; stroke:none;" d="M0 0L0 91L1337 91L1337 0L0 0z"/>
<path style="fill:#fffe02; stroke:none;" d="M48 19L49 20L48 19M46 20L47 21L46 20z"/>
<path style="fill:#a87c54; stroke:none;" d="M47 20.804C31.3493 24.3295 36.2163 47.2423 51 43.2577C63.8257 39.8009 60.5566 17.7503 47 20.804z"/>
<path style="fill:#fffe02; stroke:none;" d="M50 20L51 21L50 20M44 21L45 22L44 21M52 21L53 22L52 21M42 22L43 23L42 22z"/>
<path style="fill:#ad8ebf; stroke:none;" d="M43 22L44 23L43 22z"/>
<path style="fill:#fffe02; stroke:none;" d="M54 22L55 23L54 22M41 23L42 24L41 23M55 23L56 24L55 23M39 24L40 25L39 24M57 24L58 25L57 24M37 25L38 26L37 25z"/>
<path style="fill:#ad8ebf; stroke:none;" d="M164 26L163 32L165 27L167 27L167 42C168.975 37.2923 169.624 27.8667 164 26M240 26L240 27L243 27L240 26M305 26L305 27L308 27L305 26M369 26L368 32L372 27L369 26M127 30L128 30C130.655 28.0204 132.345 28.0204 135 30C137.049 26.0781 127.957 25.5328 127 30z"/>
<path style="fill:#3577bf; stroke:none;" d="M165 27L165 32C154.892 30.3359 157.783 41.289 167 42L167 27L165 27M240 27L240 32C235.335 31.1193 230.153 35.9856 234.604 40.3858C236.613 42.3716 240.413 41.8375 243 42L243 27L240 27M305 27L305 29L308 29L308 27L305 27M370 27L370 32C365.414 31.2471 359.284 35.4031 363.861 40.2546C365.813 42.324 369.417 41.8029 372 42L372 27L370 27M128 28L127 35C133.095 35.9082 133.349 39.5618 127 40L127 42C139.221 41.8555 133.77 36.306 130 30L135 30L135 28L128 28z"/>
<path style="fill:#ad8ebf; stroke:none;" d="M258 30L261 29L258 30z"/>
<path style="fill:#3577bf; stroke:none;" d="M259 29C256.78 34.5184 257.024 41.4437 264 42L261 40L264 32L261 29L259 29z"/>
<path style="fill:#ad8ebf; stroke:none;" d="M306 29L307 30L306 29z"/>
<path style="fill:#a87c54; stroke:none;" d="M127.333 30.6667L127.667 31.3333L127.333 30.6667z"/>
<path style="fill:#ad8ebf; stroke:none;" d="M82 31L83 32L82 31z"/>
<path style="fill:#3577bf; stroke:none;" d="M82 32L82 33L87 33L87 36C78.3194 36.6764 82.6767 41.5924 89 42C88.9994 36.2283 89.5688 29.9846 82 32M91 31L94 42L99 35L100 35L101 42L104 42L107 31L103 39L102 39L98 31L97 38L95 38L94 31L91 31z"/>
<path style="fill:#ad8ebf; stroke:none;" d="M97 31L97 34L98 34L97 31M100 31L101 32L100 31M104 31L105 32L104 31M110 31L111 32L110 31z"/>
<path style="fill:#3577bf; stroke:none;" d="M114 40L109 40L109 42C117.248 41.7291 115.298 37.7045 111 33L115 33L115 31C107.295 31.8869 110.254 35.8999 114 40M146 41L140 44L140 46C149.781 45.8841 148 38.8965 148 31C138.935 31.584 136.011 42.297 146 41z"/>
<path style="fill:#ad8ebf; stroke:none;" d="M146 31L147 32L146 31M148 31L148 43L149 43L148 31M159 31L160 32L159 31M170 31L171 47L173 47L175 41L173 46L171 46L170 31z"/>
<path style="fill:#3577bf; stroke:none;" d="M171 31L171 46L173 46L173 41C177.823 42.0009 184.383 37.8217 179.257 32.7531C177.247 30.7655 173.593 31.1773 171 31z"/>
<path style="fill:#ad8ebf; stroke:none;" d="M174 31L175 32L174 31M178 31L179 32L178 31M189 31L190 32L189 31z"/>
<path style="fill:#3577bf; stroke:none;" d="M190 31L190 42L192 42C192.049 37.8395 192.17 35.1119 196 33L196 42L199 42L199 33C202.83 35.1119 202.951 37.8395 203 42L205 42C204.999 29.6162 200.398 32.2407 190 31z"/>
<path style="fill:#ad8ebf; stroke:none;" d="M191 31L192 32L191 31M193 31L194 32L193 31M197 31L198 32L197 31M209 31L208 33L209 31z"/>
<path style="fill:#3577bf; stroke:none;" d="M213 40L208 40L208 41C216.574 43.264 214.881 37.5951 211 33L215 33C207.954 27.9605 210.259 36.4185 213 40z"/>
<path style="fill:#ad8ebf; stroke:none;" d="M214 31L215 32L214 31M219 31L220 32L219 31z"/>
<path style="fill:#3577bf; stroke:none;" d="M223 40L218 40L218 42C226.248 41.7291 224.298 37.7045 220 33L224 33L224 31C216.295 31.8869 219.254 35.8999 223 40z"/>
<path style="fill:#ad8ebf; stroke:none;" d="M235 31L236 32L235 31M239 31L240 32L239 31M247 31L248 32L247 31z"/>
<path style="fill:#3577bf; stroke:none;" d="M247 32L247 33L252 33L252 36C243.319 36.6764 247.677 41.5924 254 42C253.999 36.2283 254.569 29.9846 247 32z"/>
<path style="fill:#ad8ebf; stroke:none;" d="M256.667 31.3333L257.333 31.6667L256.667 31.3333M266.667 31.3333L267.333 31.6667L266.667 31.3333z"/>
<path style="fill:#3577bf; stroke:none;" d="M266 32L266 33L272 33L272 36C263.202 36.6856 267.826 41.5234 274 42C273.999 35.2672 274.174 30.1439 266 32z"/>
<path style="fill:#ad8ebf; stroke:none;" d="M286 31L285 33L286 31z"/>
<path style="fill:#3577bf; stroke:none;" d="M290 40L285 40L285 41C293.574 43.264 291.881 37.5952 288 33L292 33C284.954 27.9605 287.259 36.4185 290 40z"/>
<path style="fill:#ad8ebf; stroke:none;" d="M291 31L292 32L291 31M297 31L298 32L297 31z"/>
<path style="fill:#3577bf; stroke:none;" d="M303 41L303 40C297.53 38.4083 297.491 34.5301 303 33C295.103 27.2645 291.595 44.0285 303 41z"/>
<path style="fill:#ad8ebf; stroke:none;" d="M305 31L306 32L305 31z"/>
<path style="fill:#3577bf; stroke:none;" d="M306 31L305 42L308 42L308 31L306 31z"/>
<path style="fill:#ad8ebf; stroke:none;" d="M313 31L314 32L313 31z"/>
<path style="fill:#3577bf; stroke:none;" d="M320 41L320 40L313 37L320 37C317.551 21.6471 303.031 45.8292 320 41z"/>
<path style="fill:#ad8ebf; stroke:none;" d="M322 31L322 42L323 42L322 31z"/>
<path style="fill:#3577bf; stroke:none;" d="M323 31L323 42L325 42C325.102 33.3599 329.898 33.3599 330 42L332 42C331.999 33.7468 331.505 31.5346 323 31z"/>
<path style="fill:#ad8ebf; stroke:none;" d="M326 31L327 32L326 31M338 31L339 32L338 31z"/>
<path style="fill:#3577bf; stroke:none;" d="M343 42L343 40C337.922 38.4532 337.922 34.5468 343 33C336.335 28.4501 331.774 41.3785 343 42z"/>
<path style="fill:#ad8ebf; stroke:none;" d="M342 31L343 32L342 31M347 31L348 32L347 31z"/>
<path style="fill:#3577bf; stroke:none;" d="M354 41L354 40L347 37L354 37C351.551 21.6471 337.031 45.8292 354 41z"/>
<path style="fill:#ad8ebf; stroke:none;" d="M364 31L365 32L364 31M377 31L378 32L377 31z"/>
<path style="fill:#3577bf; stroke:none;" d="M384 41L384 40L377 37L384 37C381.551 21.6471 367.031 45.8292 384 41z"/>
<path style="fill:#ad8ebf; stroke:none;" d="M385.333 31.6667L385.667 32.3333L385.333 31.6667z"/>
<path style="fill:#3577bf; stroke:none;" d="M386 31L390 42L392 42L396 31L391 39L390 39L386 31z"/>
<path style="fill:#ad8ebf; stroke:none;" d="M388 31L389 32L388 31M393 31L394 32L393 31z"/>
<path style="fill:#a87c54; stroke:none;" d="M81 32L82 33L81 32z"/>
<path style="fill:#ad8ebf; stroke:none;" d="M91.3333 32.6667L91.6667 33.3333L91.3333 32.6667M108 32L108 36L109 36L108 32M115 32L114 34L116 34L115 32M139.333 32.6667L139.667 33.3333L139.333 32.6667M158 32L159 33L158 32z"/>
<path style="fill:#a87c54; stroke:none;" d="M189 32L189 42L190 42L189 32z"/>
<path style="fill:#ad8ebf; stroke:none;" d="M217 32L217 36L218 36L217 32M224 32L223 34L225 34L224 32z"/>
<path style="fill:#a87c54; stroke:none;" d="M246 32L247 33L246 32M256 32L257 33L256 32z"/>
<path style="fill:#ad8ebf; stroke:none;" d="M336 32L337 33L336 32M363 32L364 33L363 32M81.6667 33.3333L82.3333 33.6667L81.6667 33.3333M86 33L87 34L86 33M89 33L89 42L90 42L89 33M94 33L95 34L94 33M103 33L103 36L104 36L103 33M106 33L107 34L106 33M111 33L112 34L111 33M133 33L134 34L133 33M142 33L143 34L142 33z"/>
<path style="fill:#feffff; stroke:none;" d="M143 33L142 39L145 39L145 33L143 33z"/>
<path style="fill:#ad8ebf; stroke:none;" d="M145 33L145 39L146 39L145 33M157.333 33.6667L157.667 34.3333L157.333 33.6667M161 33L160 35L161 33z"/>
<path style="fill:#feffff; stroke:none;" d="M162 33C160.349 36.4047 160.13 38.6345 164 40L162 33z"/>
<path style="fill:#ad8ebf; stroke:none;" d="M163 33L164 34L163 33z"/>
<path style="fill:#feffff; stroke:none;" d="M174 33L174 40C178.441 38.4321 177.717 35.0683 174 33z"/>
<path style="fill:#ad8ebf; stroke:none;" d="M176 33L177 34L176 33M180 33L181 34L180 33M193 33L193 34L196 34L193 33M199 33L199 34L202 34L199 33M205 33L205 42L206 42L205 33M214 33L215 34L214 33M220 33L221 34L220 33M233 33L234 34L233 33z"/>
<path style="fill:#feffff; stroke:none;" d="M237 33L237 40L239 40L239 33L237 33z"/>
<path style="fill:#ad8ebf; stroke:none;" d="M239 33L240 34L239 33M246.667 33.3333L247.333 33.6667L246.667 33.3333M251 33L252 34L251 33M254 33L254 42L255 42L254 33M256.667 33.3333L257.333 33.6667L256.667 33.3333M261 33L261 34L264 34L261 33M266.667 33.3333L267.333 33.6667L266.667 33.3333M271 33L271 36L272 36L271 33M274 33L274 42L275 42L274 33M291 33L292 34L291 33M295 33L296 34L295 33M299 33L299 34L303 34L299 33M311 33L312 34L311 33z"/>
<path style="fill:#feffff; stroke:none;" d="M314 33L314 35L317 35L317 33L314 33z"/>
<path style="fill:#ad8ebf; stroke:none;" d="M326 33L326 34L329 34L326 33M335.333 33.6667L335.667 34.3333L335.333 33.6667M339 33L339 34L343 34L339 33M345 33L346 34L345 33z"/>
<path style="fill:#feffff; stroke:none;" d="M348 33L348 35L351 35L351 33L348 33z"/>
<path style="fill:#ad8ebf; stroke:none;" d="M362.333 33.6667L362.667 34.3333L362.333 33.6667z"/>
<path style="fill:#feffff; stroke:none;" d="M366 33C365.021 36.6742 365.202 38.7397 369 40L368 33L366 33z"/>
<path style="fill:#ad8ebf; stroke:none;" d="M368 33L369 34L368 33M375 33L376 34L375 33z"/>
<path style="fill:#feffff; stroke:none;" d="M378 33L378 35L381 35L381 33L378 33z"/>
<path style="fill:#a87c54; stroke:none;" d="M386 33L387 34L386 33z"/>
<path style="fill:#ad8ebf; stroke:none;" d="M392.333 33.6667L392.667 34.3333L392.333 33.6667M395 33L396 34L395 33z"/>
<path style="fill:#fffe02; stroke:none;" d="M1283 51L1289 51L1289 62L1307 61L1307 58L1327 58L1327 42L1322 42L1322 37L1293 33.4244L1284.03 35.6034L1283 51z"/>
<path style="fill:#ad8ebf; stroke:none;" d="M164 34L164 40L165 40L164 34M173 34L173 39L174 39L173 34M177 34L178 35L177 34M202 34L202 42L203 42L202 34M313 34L314 35L313 34M317 34L318 35L317 34M325 34L325 42L326 42L325 34M329 34L329 42L330 42L329 34M332 34L332 42L333 42L332 34M338 34L339 35L338 34M347 34L348 35L347 34M351 34L352 35L351 34M369 34L369 39L370 39L369 34M377 34L378 35L377 34M381 34L382 35L381 34M386 34L387 35L386 34M389 34L390 35L389 34M92.3333 35.6667L92.6667 36.3333L92.3333 35.6667M96 35L95 38L96 35M99 35L98 37L100 37L99 35M101 35L102 36L101 35M118 35L118 36L124 38C124.542 34.7145 120.575 35.0421 118 35M127 35L127 36L132 36L127 35M138 35L138 38L139 38L138 35M141.333 35.6667L141.667 36.3333L141.333 35.6667z"/>
<path style="fill:#a87c54; stroke:none;" d="M157 35L157 38L158 38L157 35z"/>
<path style="fill:#ad8ebf; stroke:none;" d="M208 35L209 36L208 35M212 35L213 36L212 35M232 35L232 38L233 38L232 35M269 35L270 36L269 35M276 38L277 38L283 36C280.12 34.3409 276.772 34.3984 276 38M285 35L286 36L285 35M289 35L290 36L289 35M294 35L294 38L295 38L294 35M310 35L310 38L311 38L310 35M314 35L314 36L317 36L314 35M344 35L344 38L345 38L344 35M348 35L348 36L351 36L348 35M374 35L374 38L375 38L374 35M378 35L378 36L381 36L378 35M105 36L106 37L105 36M109 36L110 37L109 36z"/>
<path style="fill:#3577bf; stroke:none;" d="M118 36L118 38L124 38L124 36L118 36z"/>
<path style="fill:#ad8ebf; stroke:none;" d="M209 36L210 37L209 36M218 36L219 37L218 36M235 36L236 37L235 36M266 36L267 37L266 36z"/>
<path style="fill:#3577bf; stroke:none;" d="M277 36L277 38L283 38L283 36L277 36z"/>
<path style="fill:#ad8ebf; stroke:none;" d="M286 36L287 37L286 36M297 36L298 37L297 36M387.333 36.6667L387.667 37.3333L387.333 36.6667M391.333 36.6667L391.667 37.3333L391.333 36.6667M83 40L84 40L87 38L83 40M111 37L112 38L111 37z"/>
<path style="fill:#a87c54; stroke:none;" d="M133 37L134 38L133 37z"/>
<path style="fill:#ad8ebf; stroke:none;" d="M211 37L212 38L211 37M220 37L221 38L220 37M248 40L249 40L252 38L248 40M265 37L265 41L266 41L265 37M269 37L269 38L271 40L272 40L269 37M288 37L289 38L288 37M313 39L319 38L313 39M347 39L353 38L347 39M377 39L383 38L377 39M37 38L38 39L37 38M80.3333 38.6667L80.6667 39.3333L80.3333 38.6667z"/>
<path style="fill:#feffff; stroke:none;" d="M84 40L87 38L84 40z"/>
<path style="fill:#a87c54; stroke:none;" d="M93 38L94 39L93 38z"/>
<path style="fill:#ad8ebf; stroke:none;" d="M102 38L103 39L102 38M113.333 38.6667L113.667 39.3333L113.333 38.6667M152 38L151 42L152 42L152 38M157.333 38.6667L157.667 39.3333L157.333 38.6667M160 38L161 39L160 38M177 38L178 39L177 38M184 38L183 40L184 38M222.333 38.6667L222.667 39.3333L222.333 38.6667M228 38L229 39L228 38M245.333 38.6667L245.667 39.3333L245.333 38.6667z"/>
<path style="fill:#feffff; stroke:none;" d="M249 40L252 38L249 40M268 38L268 40L271 40L271 38L268 38z"/>
<path style="fill:#a87c54; stroke:none;" d="M335 38L336 39L335 38z"/>
<path style="fill:#ad8ebf; stroke:none;" d="M357 38L356 40L357 38z"/>
<path style="fill:#a87c54; stroke:none;" d="M362 38L363 39L362 38z"/>
<path style="fill:#ad8ebf; stroke:none;" d="M390 38L391 39L390 38M393 38L394 39L393 38M58 39L59 40L58 39M86 39L87 40L86 39M93.3333 39.6667L93.6667 40.3333L93.3333 39.6667M100.333 39.6667L100.667 40.3333L100.333 39.6667M104 39L105 40L104 39M108 39L109 40L108 39M126 39L126 42L127 42L128 39L126 39M132 39L133 40L132 39M139 39L140 40L139 39M143.667 39.3333L144.333 39.6667L143.667 39.3333z"/>
<path style="fill:#3577bf; stroke:none;" d="M152 42L155 39L152 42M184 39L184 42L187 41L187 40L184 39z"/>
<path style="fill:#ad8ebf; stroke:none;" d="M186 39L187 40L186 39M217 39L218 40L217 39z"/>
<path style="fill:#3577bf; stroke:none;" d="M227 39L227 42L230 42L230 39L227 39z"/>
<path style="fill:#ad8ebf; stroke:none;" d="M236 39L237 40L236 39M239 39L240 40L239 39M251 39L252 40L251 39M295.333 39.6667L295.667 40.3333L295.333 39.6667M311.333 39.6667L311.667 40.3333L311.333 39.6667M314 39L315 40L314 39M335 39L336 40L335 39M345.333 39.6667L345.667 40.3333L345.333 39.6667M348 39L349 40L348 39z"/>
<path style="fill:#3577bf; stroke:none;" d="M357 39L357 42L360 41L360 40L357 39z"/>
<path style="fill:#ad8ebf; stroke:none;" d="M359 39L360 40L359 39M362 39L363 40L362 39M375.333 39.6667L375.667 40.3333L375.333 39.6667M378 39L379 40L378 39M388 39L389 40L388 39M56 40L57 41L56 40M97 40L98 41L97 40z"/>
<path style="fill:#a87c54; stroke:none;" d="M108 40L109 41L108 40z"/>
<path style="fill:#ad8ebf; stroke:none;" d="M158 40L159 41L158 40z"/>
<path style="fill:#a87c54; stroke:none;" d="M183 40L184 41L183 40z"/>
<path style="fill:#ad8ebf; stroke:none;" d="M215 40L216 41L215 40z"/>
<path style="fill:#a87c54; stroke:none;" d="M217 40L218 41L217 40z"/>
<path style="fill:#ad8ebf; stroke:none;" d="M230 40L231 41L230 40M233 40L234 41L233 40M258 40L259 41L258 40M292 40L293 41L292 40z"/>
<path style="fill:#a87c54; stroke:none;" d="M356 40L357 41L356 40z"/>
<path style="fill:#ad8ebf; stroke:none;" d="M42 41L43 42L42 41M54 41L55 42L54 41M81 41L82 42L81 41M86.6667 41.3333L87.3333 41.6667L86.6667 41.3333M108 41L109 42L108 41M141 41L142 42L141 41M144 41L145 44L146 44L146 41L144 41M154 41L155 42L154 41M159 41L160 42L159 41M164 41L165 42L164 41M183 41L184 42L183 41M186 41L187 42L186 41M208 41L209 42L208 41M214 41L215 42L214 41M217 41L218 42L217 41M234 41L235 42L234 41M239.667 41.3333L240.333 41.6667L239.667 41.3333M246 41L247 42L246 41M251.667 41.3333L252.333 41.6667L251.667 41.3333M266 41L267 42L266 41M271 41L272 42L271 41M285 41L286 42L285 41M291 41L292 42L291 41M302 41L303 42L302 41M319 41L320 42L319 41M337 41L338 42L337 41M353 41L354 42L353 41M356 41L357 42L356 41M359 41L360 42L359 41M364 41L365 42L364 41M369 41L370 42L369 41M383 41L384 42L383 41M389 41L390 42L389 41M392 41L393 42L392 41M44 42L45 43L44 42M211 42L212 43L211 42M288 42L289 43L288 42M46 43L47 44L46 43M48.6667 44.3333L49.3333 44.6667L48.6667 44.3333M139.333 44.6667L139.667 45.3333L139.333 44.6667z"/>
<path style="fill:#a87c54; stroke:none;" d="M1300 44L1299 45C1303.18 50.7243 1306.82 50.7243 1311 45L1300 44z"/>
<path style="fill:#ad8ebf; stroke:none;" d="M142 46L142 47L145 47L142 46M218 63L218 81L220 81L220 63L218 63M92 64L93 65L92 64z"/>
<path style="fill:#3577bf; stroke:none;" d="M90 73L91 73C91.4171 69.2993 93.7821 64.1665 97 69C98.4868 62.171 90.3428 66.7422 90 73z"/>
<path style="fill:#ad8ebf; stroke:none;" d="M95 64L96 65L95 64M103 64L104 65L103 64z"/>
<path style="fill:#3577bf; stroke:none;" d="M108 74L107 74C103.974 75.7123 102.917 74.0208 102 71L108 72L108 71L102 70L108 66C97.5695 59.1799 101.31 84.1672 108 74z"/>
<path style="fill:#a87c54; stroke:none;" d="M123 64L124 65L123 64z"/>
<path style="fill:#3577bf; stroke:none;" d="M121 74L122 74C122.477 59.3511 133.455 75.9918 122 75C135.358 84.5527 123.81 51.8302 121.109 69.9707C120.915 71.2727 121.012 72.6932 121 74z"/>
<path style="fill:#ad8ebf; stroke:none;" d="M126 64L127 65L126 64z"/>
<path style="fill:#3577bf; stroke:none;" d="M153 67L159 66C156.338 64.2217 155.22 64.7854 153 67z"/>
<path style="fill:#a87c54; stroke:none;" d="M164 64L165 65L164 64z"/>
<path style="fill:#3577bf; stroke:none;" d="M162 74L163 74C163.477 59.3511 174.455 75.9918 163 75C176.358 84.5527 164.81 51.8302 162.109 69.9707C161.915 71.2727 162.012 72.6932 162 74z"/>
<path style="fill:#ad8ebf; stroke:none;" d="M167 64L168 65L167 64z"/>
<path style="fill:#a87c54; stroke:none;" d="M195 64L196 65L195 64z"/>
<path style="fill:#3577bf; stroke:none;" d="M201 72C199.571 59.2176 186.821 70.9576 201 72z"/>
<path style="fill:#a87c54; stroke:none;" d="M205 64L206 65L205 64z"/>
<path style="fill:#3577bf; stroke:none;" d="M203 74L204 74C204.477 59.3511 215.455 75.9918 204 75C217.358 84.5527 205.81 51.8302 203.109 69.9707C202.915 71.2727 203.012 72.6932 203 74z"/>
<path style="fill:#ad8ebf; stroke:none;" d="M208 64L209 65L208 64z"/>
<path style="fill:#a87c54; stroke:none;" d="M333 64L333 69L334 69L333 64z"/>
<path style="fill:#ad8ebf; stroke:none;" d="M334 64L334 77L335 77L334 64z"/>
<path style="fill:#a87c54; stroke:none;" d="M378 64L378 69L379 69L378 64z"/>
<path style="fill:#3577bf; stroke:none;" d="M379 64L379 69C371.975 67.4345 370.259 74.9534 377 77L377 76C370.991 72.6451 377.538 66.7692 379 77L380 77L379 64z"/>
<path style="fill:#ad8ebf; stroke:none;" d="M382 64L383 65L382 64z"/>
<path style="fill:#3577bf; stroke:none;" d="M383.333 64.6667L383.667 65.3333L383.333 64.6667z"/>
<path style="fill:#ad8ebf; stroke:none;" d="M394 64L394 77L395 77L394 64z"/>
<path style="fill:#3577bf; stroke:none;" d="M395 64L395 77L396 77C396.139 72.735 396.708 70.3029 401 69L401 77L402 77L402 68L396 69L395 64z"/>
<path style="fill:#a87c54; stroke:none;" d="M82 65L83 66L82 65z"/>
<path style="fill:#ad8ebf; stroke:none;" d="M83 65L84 66L83 65z"/>
<path style="fill:#a87c54; stroke:none;" d="M86.3333 65.6667L86.6667 66.3333L86.3333 65.6667z"/>
<path style="fill:#ad8ebf; stroke:none;" d="M87 65L88 66L87 65z"/>
<path style="fill:#a87c54; stroke:none;" d="M91 65L92 66L91 65M102 65L103 66L102 65M115 65L116 66L115 65z"/>
<path style="fill:#3577bf; stroke:none;" d="M116 65L114 68L116 65z"/>
<path style="fill:#ad8ebf; stroke:none;" d="M117 65L117 73L118 73L117 65z"/>
<path style="fill:#3577bf; stroke:none;" d="M136 65L134 69L137 67L137 73L132 73L134 70L131 74L137 77L138 77L140 74L140 73L138 65L136 65z"/>
<path style="fill:#a87c54; stroke:none;" d="M141 65L142 66L141 65z"/>
<path style="fill:#3577bf; stroke:none;" d="M142 65L142 66L149 67L142 65z"/>
<path style="fill:#ad8ebf; stroke:none;" d="M149 65L150 66L149 65z"/>
<path style="fill:#a87c54; stroke:none;" d="M153 65L154 66L153 65M174 65L175 66L174 65z"/>
<path style="fill:#3577bf; stroke:none;" d="M173 66L173 67L177 66L177 77L178 77L178 65L173 66z"/>
<path style="fill:#a87c54; stroke:none;" d="M183 65L183 71L184 71L183 65z"/>
<path style="fill:#3577bf; stroke:none;" d="M184 65L184 66L189 66L184 65z"/>
<path style="fill:#ad8ebf; stroke:none;" d="M189 65L190 66L189 65M193 65L194 66L193 65M199 65L200 66L199 65z"/>
<path style="fill:#a87c54; stroke:none;" d="M265 65L265 68L266 68L265 65z"/>
<path style="fill:#3577bf; stroke:none;" d="M266 65L266 66L271 66L266 65z"/>
<path style="fill:#ad8ebf; stroke:none;" d="M271 65L272 66L271 65z"/>
<path style="fill:#a87c54; stroke:none;" d="M360 65L361 66L360 65z"/>
<path style="fill:#3577bf; stroke:none;" d="M356 71L357 71C360.607 66.4527 363.692 66.1137 369 68C364.371 63.2771 358.731 65.4635 356 71z"/>
<path style="fill:#a87c54; stroke:none;" d="M382 65L383 66L382 65z"/>
<path style="fill:#ad8ebf; stroke:none;" d="M384 65L385 66L384 65z"/>
<path style="fill:#3577bf; stroke:none;" d="M82 66L80 68L80 69L88 69L88 68L82 66z"/>
<path style="fill:#ad8ebf; stroke:none;" d="M90 66L91 67L90 66M92 66L93 67L92 66z"/>
<path style="fill:#feffff; stroke:none;" d="M93 76C97.2757 73.642 97.0377 70.4238 96 66C91.2248 67.5849 91.7507 71.7628 93 76z"/>
<path style="fill:#a87c54; stroke:none;" d="M96 66L97 67L96 66M101 66L102 67L101 66z"/>
<path style="fill:#ad8ebf; stroke:none;" d="M114 66L115 67L114 66z"/>
<path style="fill:#a87c54; stroke:none;" d="M121 66L122 67L121 66z"/>
<path style="fill:#feffff; stroke:none;" d="M123 66L124 76L126 76C127.249 71.7628 127.775 67.5849 123 66z"/>
<path style="fill:#ad8ebf; stroke:none;" d="M126 66L127 67L126 66M128 66L129 67L128 66z"/>
<path style="fill:#a87c54; stroke:none;" d="M135 66L136 67L135 66z"/>
<path style="fill:#ad8ebf; stroke:none;" d="M147 66L148 69L149 69L147 66M152 66L153 69L154 69L152 66M154 66L155 67L154 66z"/>
<path style="fill:#a87c54; stroke:none;" d="M162 66L163 67L162 66z"/>
<path style="fill:#feffff; stroke:none;" d="M164 66L165 76L167 76C168.249 71.7628 168.775 67.5849 164 66z"/>
<path style="fill:#ad8ebf; stroke:none;" d="M167 66L168 67L167 66M169 66L170 67L169 66M175 66L176 67L175 66z"/>
<path style="fill:#a87c54; stroke:none;" d="M176 66L176 77L177 77L176 66z"/>
<path style="fill:#ad8ebf; stroke:none;" d="M184 66L186 70L184 66M194 66L195 67L194 66z"/>
<path style="fill:#feffff; stroke:none;" d="M195.603 67.1566C193.87 68.3145 195.664 71.0015 197.397 69.8434C199.13 68.6855 197.336 65.9986 195.603 67.1566z"/>
<path style="fill:#a87c54; stroke:none;" d="M198 66L199 67L198 66M203 66L204 67L203 66z"/>
<path style="fill:#feffff; stroke:none;" d="M205 66L206 76L208 76C209.249 71.7628 209.775 67.5849 205 66z"/>
<path style="fill:#ad8ebf; stroke:none;" d="M208 66L209 67L208 66M210 66L211 67L210 66M266 66L269 70L269 69L266 66z"/>
<path style="fill:#a87c54; stroke:none;" d="M358 66L359 67L358 66z"/>
<path style="fill:#ad8ebf; stroke:none;" d="M361 66L362 67L361 66M365 66L366 67L365 66M368 66L369 67L368 66M81 67L82 68L81 67z"/>
<path style="fill:#a87c54; stroke:none;" d="M90 67L91 68L90 67z"/>
<path style="fill:#ad8ebf; stroke:none;" d="M96 67L97 68L96 67M98 67L98 74L99 74L98 67M100 67L101 68L100 67M102 67L103 68L102 67M115 67L114 69L115 67z"/>
<path style="fill:#a87c54; stroke:none;" d="M116 67L116 73L117 73L116 67z"/>
<path style="fill:#ad8ebf; stroke:none;" d="M122 67L123 68L122 67z"/>
<path style="fill:#a87c54; stroke:none;" d="M127 67L128 68L127 67M134 67L135 68L134 67z"/>
<path style="fill:#ad8ebf; stroke:none;" d="M136 67L136 73L137 73L136 67z"/>
<path style="fill:#a87c54; stroke:none;" d="M147 67L148 68L147 67M152 67L153 68L152 67z"/>
<path style="fill:#ad8ebf; stroke:none;" d="M163 67L164 68L163 67z"/>
<path style="fill:#a87c54; stroke:none;" d="M168 67L169 68L168 67z"/>
<path style="fill:#ad8ebf; stroke:none;" d="M192 67L192 70L193 70L192 67M200 67L201 68L200 67M204 67L205 68L204 67z"/>
<path style="fill:#a87c54; stroke:none;" d="M209 67L210 68L209 67M357 67L358 68L357 67z"/>
<path style="fill:#ad8ebf; stroke:none;" d="M359 67L360 68L359 67M367 67L368 68L367 67M79 68L80 69L79 68M88 68L89 69L88 68M91 68L91 74L92 74L91 68z"/>
<path style="fill:#a87c54; stroke:none;" d="M100 68L100 74L101 74L100 68M113 68L114 69L113 68z"/>
<path style="fill:#feffff; stroke:none;" d="M115 68L112 73L116 73L115 68z"/>
<path style="fill:#ad8ebf; stroke:none;" d="M120 68L121 69L120 68M127 68L127 74L128 74L127 68M133 68L135 70L133 68z"/>
<path style="fill:#feffff; stroke:none;" d="M135 68L133 73C136.012 72.3545 136.498 70.6128 135 68z"/>
<path style="fill:#ad8ebf; stroke:none;" d="M146 68L147 69L146 68z"/>
<path style="fill:#3577bf; stroke:none;" d="M147 68L143 77L144 77L147 68z"/>
<path style="fill:#ad8ebf; stroke:none;" d="M151 68L151 74L152 74L151 68z"/>
<path style="fill:#3577bf; stroke:none;" d="M152 68L152 74L153 74L153 71C157.962 71.7971 158.588 75.4943 153 75L153 76C163.205 78.2742 157.11 70.484 152 68z"/>
<path style="fill:#ad8ebf; stroke:none;" d="M161 68L162 69L161 68M168 68L168 74L169 74L168 68z"/>
<path style="fill:#a87c54; stroke:none;" d="M199.333 68.6667L199.667 69.3333L199.333 68.6667z"/>
<path style="fill:#ad8ebf; stroke:none;" d="M202 68L203 69L202 68M209 68L209 74L210 74L209 68M227 68L228 69L227 68z"/>
<path style="fill:#3577bf; stroke:none;" d="M228 68L228 69L233 69L233 72L228 74L233 73L227 75L227 76L234 77C233.981 71.738 233.907 68.4602 228 68z"/>
<path style="fill:#ad8ebf; stroke:none;" d="M233 68L234 69L233 68z"/>
<path style="fill:#a87c54; stroke:none;" d="M235 68L236 69L235 68z"/>
<path style="fill:#3577bf; stroke:none;" d="M236 68L237 73L238 73L236 68z"/>
<path style="fill:#a87c54; stroke:none;" d="M241 68L242 69L241 68z"/>
<path style="fill:#3577bf; stroke:none;" d="M242 68L241 70L243 70L242 68M247 68L247 71L248 71L247 68z"/>
<path style="fill:#ad8ebf; stroke:none;" d="M248 68L249 69L248 68z"/>
<path style="fill:#a87c54; stroke:none;" d="M250 68L251 69L250 68z"/>
<path style="fill:#3577bf; stroke:none;" d="M251 68L251 69L255 69L251 68z"/>
<path style="fill:#ad8ebf; stroke:none;" d="M255 68L256 69L255 68z"/>
<path style="fill:#3577bf; stroke:none;" d="M265 68C265.779 71.6353 274.629 75.3093 265 76L265 77C274.518 76.2739 270.496 71.1563 265 68z"/>
<path style="fill:#a87c54; stroke:none;" d="M275 68L276 69L275 68z"/>
<path style="fill:#3577bf; stroke:none;" d="M275 71L276 71L280 69L275 71z"/>
<path style="fill:#ad8ebf; stroke:none;" d="M280 68L281 69L280 68z"/>
<path style="fill:#3577bf; stroke:none;" d="M281 68L281 75L276 73L275 73L281 76L275 79L275 80C282.455 81.6612 283.295 73.4702 281 68z"/>
<path style="fill:#a87c54; stroke:none;" d="M289 68L289 77L290 77L289 68z"/>
<path style="fill:#ad8ebf; stroke:none;" d="M290 68L291 69L290 68z"/>
<path style="fill:#a87c54; stroke:none;" d="M291 68L292 69L291 68z"/>
<path style="fill:#3577bf; stroke:none;" d="M292 68L292 69L295 69L295 77L296 77L297 69L292 68M297 68L297 69L301 69L301 77L302 77L302 68L297 68z"/>
<path style="fill:#a87c54; stroke:none;" d="M305 68L304 71L305 71L305 68z"/>
<path style="fill:#3577bf; stroke:none;" d="M306 68L306 69L310 69L306 68z"/>
<path style="fill:#ad8ebf; stroke:none;" d="M312 68L314 72L315 72L312 68z"/>
<path style="fill:#3577bf; stroke:none;" d="M313 68L313 69L317 69L313 68z"/>
<path style="fill:#ad8ebf; stroke:none;" d="M317 68L318 69L317 68z"/>
<path style="fill:#3577bf; stroke:none;" d="M332 77L332 76C327.305 73.379 328.805 69.5498 334 70C327.74 65.302 324.732 74.7934 332 77z"/>
<path style="fill:#a87c54; stroke:none;" d="M338 68L337 70L338 68z"/>
<path style="fill:#3577bf; stroke:none;" d="M344 77L344 76L338 73L344 73C342.353 63.1367 331.362 76.0359 344 77z"/>
<path style="fill:#a87c54; stroke:none;" d="M345 68L346 69L345 68z"/>
<path style="fill:#3577bf; stroke:none;" d="M346 68L347 72L348 72L346 68z"/>
<path style="fill:#a87c54; stroke:none;" d="M352 68L353 69L352 68z"/>
<path style="fill:#3577bf; stroke:none;" d="M353 68L354 69L353 68z"/>
<path style="fill:#ad8ebf; stroke:none;" d="M356 68L357 69L356 68z"/>
<path style="fill:#a87c54; stroke:none;" d="M368 68L369 69L368 68z"/>
<path style="fill:#ad8ebf; stroke:none;" d="M369 68L368 70L369 68z"/>
<path style="fill:#a87c54; stroke:none;" d="M373 68L374 69L373 68z"/>
<path style="fill:#ad8ebf; stroke:none;" d="M382 68L382 77L383 77L382 68z"/>
<path style="fill:#3577bf; stroke:none;" d="M383 68L383 77L384 77L383 68z"/>
<path style="fill:#a87c54; stroke:none;" d="M387 68L386 71L387 71L387 68z"/>
<path style="fill:#3577bf; stroke:none;" d="M388 68L388 69L392 69L388 68z"/>
<path style="fill:#ad8ebf; stroke:none;" d="M396 68L397 69L396 68z"/>
<path style="fill:#a87c54; stroke:none;" d="M410 68L409 70L410 68z"/>
<path style="fill:#3577bf; stroke:none;" d="M415 77L415 76C409.922 74.4532 409.922 70.5468 415 69C408.337 66.8816 408.003 75.8841 415 77M425 71L424 71C420.979 79.1303 415.517 69.2649 424 70C412.589 61.436 421.591 87.3443 425 71z"/>
<path style="fill:#ad8ebf; stroke:none;" d="M423 68L424 69L423 68z"/>
<path style="fill:#a87c54; stroke:none;" d="M427 68L427 77L428 77L427 68z"/>
<path style="fill:#ad8ebf; stroke:none;" d="M428 68L429 69L428 68z"/>
<path style="fill:#a87c54; stroke:none;" d="M429 68L430 69L429 68z"/>
<path style="fill:#3577bf; stroke:none;" d="M430 68L430 69L433 69L433 77L434 77L435 69L430 68M435 68L435 69L439 69L439 77L440 77L440 68L435 68z"/>
<path style="fill:#a87c54; stroke:none;" d="M81 69L81 72L82 72L81 69z"/>
<path style="fill:#ad8ebf; stroke:none;" d="M82 69L82 72L83 72L82 69z"/>
<path style="fill:#feffff; stroke:none;" d="M83 69L83 72L85 72L85 69L83 69z"/>
<path style="fill:#ad8ebf; stroke:none;" d="M85 69L86 72L87 72L87 69L85 69M89 69L89 72L90 72L89 69z"/>
<path style="fill:#a87c54; stroke:none;" d="M97 69L97 73L98 73L97 69z"/>
<path style="fill:#ad8ebf; stroke:none;" d="M104.667 69.3333L105.333 69.6667L104.667 69.3333M112 69L112 72L113 72L112 69z"/>
<path style="fill:#3577bf; stroke:none;" d="M113 69L114 70L113 69z"/>
<path style="fill:#a87c54; stroke:none;" d="M120 69L120 72L121 72L120 69z"/>
<path style="fill:#ad8ebf; stroke:none;" d="M129 69L129 73L130 73L129 69z"/>
<path style="fill:#a87c54; stroke:none;" d="M133 69L134 70L133 69M146 69L147 70L146 69M161 69L161 72L162 72L161 69z"/>
<path style="fill:#ad8ebf; stroke:none;" d="M170 69L170 73L171 73L170 69z"/>
<path style="fill:#3577bf; stroke:none;" d="M184 70L184 71L189 71C187.943 74.4917 186.582 75.432 183 76C189.443 78.4189 191.862 69.7049 184 70z"/>
<path style="fill:#a87c54; stroke:none;" d="M202 69L202 72L203 72L202 69z"/>
<path style="fill:#ad8ebf; stroke:none;" d="M211 69L211 73L212 73L211 69z"/>
<path style="fill:#a87c54; stroke:none;" d="M232 69L233 70L232 69z"/>
<path style="fill:#ad8ebf; stroke:none;" d="M237 69L238 70L237 69M246 69L247 70L246 69M249.333 69.6667L249.667 70.3333L249.333 69.6667z"/>
<path style="fill:#3577bf; stroke:none;" d="M250 69L255 74L255 75L250 76L250 77C257.134 76.4298 253.854 72.2257 250 69z"/>
<path style="fill:#feffff; stroke:none;" d="M266 69L267 70L266 69z"/>
<path style="fill:#ad8ebf; stroke:none;" d="M274 69L275 70L274 69M276 69L277 70L276 69z"/>
<path style="fill:#feffff; stroke:none;" d="M276 75L280 75L280 69C276.679 70.0988 276.263 71.5902 276 75z"/>
<path style="fill:#a87c54; stroke:none;" d="M280 69L281 70L280 69z"/>
<path style="fill:#3577bf; stroke:none;" d="M290 69L291 70L290 69z"/>
<path style="fill:#ad8ebf; stroke:none;" d="M294 69L295 70L294 69z"/>
<path style="fill:#a87c54; stroke:none;" d="M300 69L301 70L300 69z"/>
<path style="fill:#3577bf; stroke:none;" d="M305 69L310 74L310 73L305 69M312 69L317 76L312 76L312 77C319.74 76.3973 316.21 72.2704 312 69z"/>
<path style="fill:#a87c54; stroke:none;" d="M327 69L328 70L327 69z"/>
<path style="fill:#feffff; stroke:none;" d="M329 69C328.401 72.6171 328.751 74.1937 332 76C332.979 72.3258 332.798 70.2603 329 69z"/>
<path style="fill:#ad8ebf; stroke:none;" d="M332 69L333 70L332 69z"/>
<path style="fill:#feffff; stroke:none;" d="M338 72L343 72L342 69L338 72z"/>
<path style="fill:#a87c54; stroke:none;" d="M342 69L343 70L342 69z"/>
<path style="fill:#ad8ebf; stroke:none;" d="M347 69L348 70L347 69M351 69L352 70L351 69z"/>
<path style="fill:#3577bf; stroke:none;" d="M352.333 69.6667L352.667 70.3333L352.333 69.6667z"/>
<path style="fill:#ad8ebf; stroke:none;" d="M357 69L358 70L357 69M360 69L362 71L360 69z"/>
<path style="fill:#3577bf; stroke:none;" d="M361 69L361 70L365 73C365.688 69.9545 363.758 69.4514 361 69z"/>
<path style="fill:#a87c54; stroke:none;" d="M365 69L366 70L365 69z"/>
<path style="fill:#ad8ebf; stroke:none;" d="M366 69L367 70L366 69z"/>
<path style="fill:#3577bf; stroke:none;" d="M369 69L369 74L370 74L369 69z"/>
<path style="fill:#a87c54; stroke:none;" d="M372 69L373 70L372 69z"/>
<path style="fill:#feffff; stroke:none;" d="M374 69L375 76L377 76C377.979 72.3258 377.798 70.2604 374 69z"/>
<path style="fill:#ad8ebf; stroke:none;" d="M377 69L378 70L377 69z"/>
<path style="fill:#3577bf; stroke:none;" d="M387 69L392 74L392 73L387 69z"/>
<path style="fill:#a87c54; stroke:none;" d="M400 69L401 70L400 69z"/>
<path style="fill:#ad8ebf; stroke:none;" d="M411 69L412 70L411 69z"/>
<path style="fill:#a87c54; stroke:none;" d="M417 69L418 70L417 69z"/>
<path style="fill:#feffff; stroke:none;" d="M419 69L419 76C423.509 74.5026 423.509 70.4974 419 69z"/>
<path style="fill:#a87c54; stroke:none;" d="M422 69L423 70L422 69z"/>
<path style="fill:#3577bf; stroke:none;" d="M428 69L429 70L428 69z"/>
<path style="fill:#ad8ebf; stroke:none;" d="M432 69L433 70L432 69z"/>
<path style="fill:#a87c54; stroke:none;" d="M438 69L439 70L438 69M85.3333 70.6667L85.6667 71.3333L85.3333 70.6667z"/>
<path style="fill:#ad8ebf; stroke:none;" d="M107 70L108 71L107 70z"/>
<path style="fill:#3577bf; stroke:none;" d="M112 70L113 71L112 70z"/>
<path style="fill:#a87c54; stroke:none;" d="M132 70L133 71L132 70z"/>
<path style="fill:#ad8ebf; stroke:none;" d="M145 70L146 71L145 70M147 70L148 71L147 70M198 70L199 71L198 70M232.333 70.6667L232.667 71.3333L232.333 70.6667z"/>
<path style="fill:#a87c54; stroke:none;" d="M236 70L237 71L236 70z"/>
<path style="fill:#ad8ebf; stroke:none;" d="M240 70L240 71L244 71L244 70L240 70z"/>
<path style="fill:#a87c54; stroke:none;" d="M242 70L243 71L242 70M246.333 70.6667L246.667 71.3333L246.333 70.6667M274 70L274 75L275 75L274 70z"/>
<path style="fill:#ad8ebf; stroke:none;" d="M280 70L280 75L281 75L280 70M290 70L290 77L291 77L290 70M296 70L296 77L297 77L296 70M300 70L300 77L301 77L300 70M302 70L302 77L303 77L302 70M326.333 70.6667L326.667 71.3333L326.333 70.6667M328 70L329 71L328 70z"/>
<path style="fill:#a87c54; stroke:none;" d="M333 70L333 77L334 77L333 70z"/>
<path style="fill:#ad8ebf; stroke:none;" d="M338 70L339 71L338 70M342 70L343 71L342 70z"/>
<path style="fill:#a87c54; stroke:none;" d="M346 70L347 71L346 70M351.333 70.6667L351.667 71.3333L351.333 70.6667z"/>
<path style="fill:#ad8ebf; stroke:none;" d="M355 70L355 78L356 78L355 70z"/>
<path style="fill:#3577bf; stroke:none;" d="M360.333 70.6667L360.667 71.3333L360.333 70.6667z"/>
<path style="fill:#feffff; stroke:none;" d="M362 70L361 76L364 70L362 70z"/>
<path style="fill:#ad8ebf; stroke:none;" d="M364 70L363 76L363 77C365.944 75.0369 365.727 72.9503 364 70M373 70L374 71L373 70z"/>
<path style="fill:#a87c54; stroke:none;" d="M378 70L378 75L379 75L378 70z"/>
<path style="fill:#ad8ebf; stroke:none;" d="M400 70L400 77L401 77L400 70M402 70L402 77L403 77L402 70M410.333 70.6667L410.667 71.3333L410.333 70.6667M416 70L417 71L416 70M418 70L419 71L418 70z"/>
<path style="fill:#a87c54; stroke:none;" d="M423 70L423 74L424 74L423 70z"/>
<path style="fill:#ad8ebf; stroke:none;" d="M424 70L425 71L424 70M428 70L428 77L429 77L428 70M434 70L434 77L435 77L434 70M438 70L438 77L439 77L438 70M440 70L440 77L441 77L440 70z"/>
<path style="fill:#feffff; stroke:none;" d="M102 71L103 76C107.605 74.4696 106.129 71.6883 102 71z"/>
<path style="fill:#a87c54; stroke:none;" d="M106 71L107 72L106 71z"/>
<path style="fill:#ad8ebf; stroke:none;" d="M108 71L108 75L109 75L108 71z"/>
<path style="fill:#a87c54; stroke:none;" d="M111 71L110 74L111 74L111 71z"/>
<path style="fill:#ad8ebf; stroke:none;" d="M131 71L132 72L131 71z"/>
<path style="fill:#a87c54; stroke:none;" d="M145 71L146 72L145 71z"/>
<path style="fill:#ad8ebf; stroke:none;" d="M153 71L154 72L153 71z"/>
<path style="fill:#feffff; stroke:none;" d="M153 72L155 76L157 76C157.547 72.4531 156.547 71.4531 153 72z"/>
<path style="fill:#ad8ebf; stroke:none;" d="M157 71L158 72L157 71M159 71L160 72L159 71z"/>
<path style="fill:#a87c54; stroke:none;" d="M188 71L189 72L188 71z"/>
<path style="fill:#ad8ebf; stroke:none;" d="M193 71L194 72L193 71z"/>
<path style="fill:#a87c54; stroke:none;" d="M199.333 71.6667L199.667 72.3333L199.333 71.6667z"/>
<path style="fill:#ad8ebf; stroke:none;" d="M236 71L237 72L236 71z"/>
<path style="fill:#a87c54; stroke:none;" d="M240.333 71.6667L240.667 72.3333L240.333 71.6667z"/>
<path style="fill:#3577bf; stroke:none;" d="M243.333 71.6667L243.667 72.3333L243.333 71.6667z"/>
<path style="fill:#ad8ebf; stroke:none;" d="M247 71L248 72L247 71M252 71L253 72L252 71M275.333 71.6667L275.667 72.3333L275.333 71.6667M304 71L305 72L304 71z"/>
<path style="fill:#a87c54; stroke:none;" d="M312 71L313 72L312 71z"/>
<path style="fill:#ad8ebf; stroke:none;" d="M336 71L336 74L337 74L336 71M346 71L347 72L346 71M352 71L353 72L352 71z"/>
<path style="fill:#a87c54; stroke:none;" d="M355.333 71.6667L355.667 72.3333L355.333 71.6667M359.333 71.6667L359.667 72.3333L359.333 71.6667z"/>
<path style="fill:#ad8ebf; stroke:none;" d="M371 71L371 74L372 74L371 71M386 71L387 72L386 71M408 71L408 74L409 74L408 71z"/>
<path style="fill:#a87c54; stroke:none;" d="M416.333 71.6667L416.667 72.3333L416.333 71.6667M79.3333 72.6667L79.6667 73.3333L79.3333 72.6667z"/>
<path style="fill:#3577bf; stroke:none;" d="M80 72L81 75L85 76L86 76L88 72L80 72z"/>
<path style="fill:#a87c54; stroke:none;" d="M107.333 72.6667L107.667 73.3333L107.333 72.6667z"/>
<path style="fill:#3577bf; stroke:none;" d="M111 72L119 74L119 73L111 72z"/>
<path style="fill:#ad8ebf; stroke:none;" d="M120 72L119 74L121 74L120 72M132 72L133 73L132 72M146 72L147 73L146 72z"/>
<path style="fill:#a87c54; stroke:none;" d="M158 72L158 75L159 75L158 72z"/>
<path style="fill:#ad8ebf; stroke:none;" d="M161.333 72.6667L161.667 73.3333L161.333 72.6667M188.333 72.6667L188.667 73.3333L188.333 72.6667M200.333 72.6667L200.667 73.3333L200.333 72.6667M202.333 72.6667L202.667 73.3333L202.333 72.6667M238 72L237 75L241 76L238 72M245 72L243 76L247 75L245 72z"/>
<path style="fill:#3577bf; stroke:none;" d="M246.333 72.6667L246.667 73.3333L246.333 72.6667z"/>
<path style="fill:#a87c54; stroke:none;" d="M251 72L252 73L251 72z"/>
<path style="fill:#ad8ebf; stroke:none;" d="M254 72L255 73L254 72z"/>
<path style="fill:#a87c54; stroke:none;" d="M257 72L258 73L257 72z"/>
<path style="fill:#3577bf; stroke:none;" d="M258 72L258 73L262 73L258 72z"/>
<path style="fill:#a87c54; stroke:none;" d="M270 72L271 73L270 72z"/>
<path style="fill:#ad8ebf; stroke:none;" d="M309 72L310 73L309 72z"/>
<path style="fill:#a87c54; stroke:none;" d="M313 72L314 73L313 72M319 72L320 73L319 72z"/>
<path style="fill:#3577bf; stroke:none;" d="M320 72L320 73L324 73L320 72z"/>
<path style="fill:#ad8ebf; stroke:none;" d="M324 72L325 73L324 72z"/>
<path style="fill:#a87c54; stroke:none;" d="M326 72L327 73L326 72M347.333 72.6667L347.667 73.3333L347.333 72.6667z"/>
<path style="fill:#ad8ebf; stroke:none;" d="M348 72L349 73L348 72M350 72L351 75L352 75L350 72z"/>
<path style="fill:#3577bf; stroke:none;" d="M351 72L352 73L351 72z"/>
<path style="fill:#ad8ebf; stroke:none;" d="M360 72L360 75L361 75L360 72M391 72L392 73L391 72z"/>
<path style="fill:#a87c54; stroke:none;" d="M90.3333 73.6667L90.6667 74.3333L90.3333 73.6667z"/>
<path style="fill:#3577bf; stroke:none;" d="M97 73L91 74C92.9192 76.9166 97.1008 77.2189 97 73z"/>
<path style="fill:#ad8ebf; stroke:none;" d="M122 73L121 76L122 73M130 73L131 74L130 73z"/>
<path style="fill:#a87c54; stroke:none;" d="M144 73L145 74L144 73z"/>
<path style="fill:#ad8ebf; stroke:none;" d="M153.333 73.6667L153.667 74.3333L153.333 73.6667M163 73L162 76L163 73M190 73L191 74L190 73z"/>
<path style="fill:#3577bf; stroke:none;" d="M199 73L193 76L193 77C196.001 76.7733 199.084 76.4765 199 73z"/>
<path style="fill:#ad8ebf; stroke:none;" d="M204 73L203 76L204 73z"/>
<path style="fill:#a87c54; stroke:none;" d="M227.333 73.6667L227.667 74.3333L227.333 73.6667z"/>
<path style="fill:#feffff; stroke:none;" d="M229 73L229 76L232 76L232 73L229 73z"/>
<path style="fill:#ad8ebf; stroke:none;" d="M232.333 73.6667L232.667 74.3333L232.333 73.6667z"/>
<path style="fill:#a87c54; stroke:none;" d="M237 73L238 74L237 73z"/>
<path style="fill:#3577bf; stroke:none;" d="M240 73L241 74L240 73z"/>
<path style="fill:#a87c54; stroke:none;" d="M243.333 73.6667L243.667 74.3333L243.333 73.6667z"/>
<path style="fill:#ad8ebf; stroke:none;" d="M253 73L254 74L253 73M255 73L256 74L255 73M270 73L271 74L270 73z"/>
<path style="fill:#a87c54; stroke:none;" d="M308 73L309 74L308 73z"/>
<path style="fill:#ad8ebf; stroke:none;" d="M310 73L308 75L308 76L312 77L310 73M326.333 73.6667L326.667 74.3333L326.333 73.6667z"/>
<path style="fill:#3577bf; stroke:none;" d="M348 73L350 77L351 76L348 73z"/>
<path style="fill:#a87c54; stroke:none;" d="M350.333 73.6667L350.667 74.3333L350.333 73.6667z"/>
<path style="fill:#3577bf; stroke:none;" d="M355.333 73.6667L355.667 74.3333L355.333 73.6667M359 73L363 77L363 76L359 73z"/>
<path style="fill:#a87c54; stroke:none;" d="M364 73L363 76L364 73z"/>
<path style="fill:#ad8ebf; stroke:none;" d="M368 73L370 75L368 73M373.333 73.6667L373.667 74.3333L373.333 73.6667z"/>
<path style="fill:#a87c54; stroke:none;" d="M390 73L391 74L390 73z"/>
<path style="fill:#ad8ebf; stroke:none;" d="M392 73L390 75L390 76L392 77L392 73M410.333 73.6667L410.667 74.3333L410.333 73.6667M416.333 73.6667L416.667 74.3333L416.333 73.6667M80 74L82 77L80 74M84 74L86 77L84 74z"/>
<path style="fill:#a87c54; stroke:none;" d="M96 74L97 75L96 74z"/>
<path style="fill:#ad8ebf; stroke:none;" d="M100 74L101 75L100 74M102 74L103 75L102 74z"/>
<path style="fill:#a87c54; stroke:none;" d="M116 74L116 77L117 77L116 74z"/>
<path style="fill:#ad8ebf; stroke:none;" d="M117 74L117 77L118 77L117 74z"/>
<path style="fill:#a87c54; stroke:none;" d="M121 74L122 75L121 74M127 74L128 75L127 74z"/>
<path style="fill:#ad8ebf; stroke:none;" d="M136 74L136 77L137 77L136 74M145 74L146 75L145 74z"/>
<path style="fill:#a87c54; stroke:none;" d="M152.333 74.6667L152.667 75.3333L152.333 74.6667M162 74L163 75L162 74M168 74L169 75L168 74M188 74L189 75L188 74M198 74L199 75L198 74M203 74L204 75L203 74M209 74L210 75L209 74z"/>
<path style="fill:#ad8ebf; stroke:none;" d="M228 74L229 75L228 74z"/>
<path style="fill:#3577bf; stroke:none;" d="M238 74L240 77L238 74z"/>
<path style="fill:#a87c54; stroke:none;" d="M245 74L246 75L245 74M254 74L255 75L254 74M270 74L271 75L270 74M309 74L310 75L309 74z"/>
<path style="fill:#ad8ebf; stroke:none;" d="M316 74L317 75L316 74M328 74L329 75L328 74M338 74L339 75L338 74M347 74L348 75L347 74z"/>
<path style="fill:#a87c54; stroke:none;" d="M368 74L367 76L368 74M391 74L392 75L391 74z"/>
<path style="fill:#ad8ebf; stroke:none;" d="M418 74L419 75L418 74M424 74L425 75L424 74M95 75L96 76L95 75M97 75L98 76L97 75z"/>
<path style="fill:#a87c54; stroke:none;" d="M101 75L102 76L101 75M106 75L107 76L106 75z"/>
<path style="fill:#ad8ebf; stroke:none;" d="M123 75L124 76L123 75z"/>
<path style="fill:#a87c54; stroke:none;" d="M126 75L127 76L126 75z"/>
<path style="fill:#ad8ebf; stroke:none;" d="M143 75L144 76L143 75M154 75L155 76L154 75z"/>
<path style="fill:#a87c54; stroke:none;" d="M157 75L158 76L157 75z"/>
<path style="fill:#ad8ebf; stroke:none;" d="M159 75L160 76L159 75M164 75L165 76L164 75z"/>
<path style="fill:#a87c54; stroke:none;" d="M167 75L168 76L167 75M182.333 75.6667L182.667 76.3333L182.333 75.6667z"/>
<path style="fill:#ad8ebf; stroke:none;" d="M183 75L184 76L183 75z"/>
<path style="fill:#a87c54; stroke:none;" d="M187 75L188 76L187 75z"/>
<path style="fill:#ad8ebf; stroke:none;" d="M189 75L190 76L189 75M193 75L194 76L193 75z"/>
<path style="fill:#a87c54; stroke:none;" d="M197 75L198 76L197 75z"/>
<path style="fill:#ad8ebf; stroke:none;" d="M199 75L200 76L199 75M205 75L206 76L205 75z"/>
<path style="fill:#a87c54; stroke:none;" d="M208 75L209 76L208 75z"/>
<path style="fill:#3577bf; stroke:none;" d="M244 75L244 77L246 77L246 75L244 75z"/>
<path style="fill:#ad8ebf; stroke:none;" d="M249 75L250 76L249 75M255 75L256 76L255 75z"/>
<path style="fill:#a87c54; stroke:none;" d="M264.333 75.6667L264.667 76.3333L264.333 75.6667z"/>
<path style="fill:#ad8ebf; stroke:none;" d="M265 75L266 76L265 75z"/>
<path style="fill:#a87c54; stroke:none;" d="M269 75L270 76L269 75z"/>
<path style="fill:#ad8ebf; stroke:none;" d="M271 75L272 76L271 75z"/>
<path style="fill:#a87c54; stroke:none;" d="M275 75L276 76L275 75z"/>
<path style="fill:#ad8ebf; stroke:none;" d="M284.333 75.6667L284.667 76.3333L284.333 75.6667z"/>
<path style="fill:#3577bf; stroke:none;" d="M285.333 75.6667L285.667 76.3333L285.333 75.6667z"/>
<path style="fill:#ad8ebf; stroke:none;" d="M286.333 75.6667L286.667 76.3333L286.333 75.6667M304 75L305 76L304 75z"/>
<path style="fill:#3577bf; stroke:none;" d="M309 75L310 76L309 75z"/>
<path style="fill:#a87c54; stroke:none;" d="M316 75L317 76L316 75M327 75L328 76L327 75z"/>
<path style="fill:#ad8ebf; stroke:none;" d="M329 75L330 76L329 75z"/>
<path style="fill:#3577bf; stroke:none;" d="M333 75L334 76L333 75z"/>
<path style="fill:#a87c54; stroke:none;" d="M337 75L338 76L337 75z"/>
<path style="fill:#ad8ebf; stroke:none;" d="M339 75L340 76L339 75M343 75L344 76L343 75z"/>
<path style="fill:#a87c54; stroke:none;" d="M348 75L349 76L348 75M355.333 75.6667L355.667 76.3333L355.333 75.6667M359 75L360 76L359 75z"/>
<path style="fill:#3577bf; stroke:none;" d="M364 75L365 76L364 75M368 75L369 76L368 75z"/>
<path style="fill:#a87c54; stroke:none;" d="M372 75L373 76L372 75z"/>
<path style="fill:#ad8ebf; stroke:none;" d="M374 75L375 76L374 75z"/>
<path style="fill:#a87c54; stroke:none;" d="M377 75L379 77L377 75z"/>
<path style="fill:#ad8ebf; stroke:none;" d="M386 75L387 76L386 75z"/>
<path style="fill:#3577bf; stroke:none;" d="M391 75L392 76L391 75z"/>
<path style="fill:#ad8ebf; stroke:none;" d="M404.333 75.6667L404.667 76.3333L404.333 75.6667z"/>
<path style="fill:#3577bf; stroke:none;" d="M405.333 75.6667L405.667 76.3333L405.333 75.6667z"/>
<path style="fill:#ad8ebf; stroke:none;" d="M406.333 75.6667L406.667 76.3333L406.333 75.6667z"/>
<path style="fill:#a87c54; stroke:none;" d="M409 75L410 76L409 75z"/>
<path style="fill:#ad8ebf; stroke:none;" d="M411 75L412 76L411 75z"/>
<path style="fill:#a87c54; stroke:none;" d="M417 75L418 76L417 75M422 75L423 76L422 75M80 76L81 77L80 76M84 76L85 77L84 76z"/>
<path style="fill:#ad8ebf; stroke:none;" d="M91 76L92 77L91 76M96 76L97 77L96 76z"/>
<path style="fill:#a87c54; stroke:none;" d="M102 76L103 77L102 76M122 76L123 77L122 76z"/>
<path style="fill:#ad8ebf; stroke:none;" d="M127 76L128 77L127 76M144 76L145 77L144 76z"/>
<path style="fill:#a87c54; stroke:none;" d="M153 76L154 77L153 76z"/>
<path style="fill:#ad8ebf; stroke:none;" d="M158 76L159 77L158 76z"/>
<path style="fill:#a87c54; stroke:none;" d="M163 76L164 77L163 76z"/>
<path style="fill:#ad8ebf; stroke:none;" d="M168 76L169 77L168 76M188 76L189 77L188 76M198 76L199 77L198 76z"/>
<path style="fill:#a87c54; stroke:none;" d="M204 76L205 77L204 76z"/>
<path style="fill:#ad8ebf; stroke:none;" d="M209 76L210 77L209 76M227 76L228 77L227 76z"/>
<path style="fill:#a87c54; stroke:none;" d="M238 76L239 77L238 76M249 76L250 77L249 76z"/>
<path style="fill:#ad8ebf; stroke:none;" d="M270 76L271 77L270 76z"/>
<path style="fill:#a87c54; stroke:none;" d="M276 76L277 77L276 76z"/>
<path style="fill:#ad8ebf; stroke:none;" d="M280.333 76.6667L280.667 77.3333L280.333 76.6667z"/>
<path style="fill:#a87c54; stroke:none;" d="M304 76L305 77L304 76z"/>
<path style="fill:#3577bf; stroke:none;" d="M305 76L305 77L309 77L305 76z"/>
<path style="fill:#a87c54; stroke:none;" d="M328 76L329 77L328 76z"/>
<path style="fill:#ad8ebf; stroke:none;" d="M332 76L333 77L332 76z"/>
<path style="fill:#a87c54; stroke:none;" d="M338 76L339 77L338 76z"/>
<path style="fill:#ad8ebf; stroke:none;" d="M348 76L349 77L348 76M350 76L351 77L350 76M359 76L360 77L359 76z"/>
<path style="fill:#3577bf; stroke:none;" d="M365 76L365 77L368 77L365 76z"/>
<path style="fill:#a87c54; stroke:none;" d="M373 76L374 77L373 76z"/>
<path style="fill:#ad8ebf; stroke:none;" d="M377 76L378 77L377 76z"/>
<path style="fill:#a87c54; stroke:none;" d="M386 76L387 77L386 76z"/>
<path style="fill:#3577bf; stroke:none;" d="M387 76L387 77L391 77L387 76z"/>
<path style="fill:#a87c54; stroke:none;" d="M410 76L411 77L410 76M418 76L419 77L418 76z"/>
<path style="fill:#3577bf; stroke:none;" d="M356 77C358.244 79.6945 361.179 82.1581 364 79L356 77z"/>
<path style="fill:#a87c54; stroke:none;" d="M280 78L281 79L280 78M356 78L357 79L356 78M357 79L358 80L357 79z"/>
<path style="fill:#ad8ebf; stroke:none;" d="M360 79L361 80L360 79M362 79L363 80L362 79M364 79L365 80L364 79M275 80L276 81L275 80z"/>
</svg>
