<?xml version="1.0" standalone="yes"?>
<svg xmlns="http://www.w3.org/2000/svg" width="1338" height="176">
<path style="fill:#fefefe; stroke:none;" d="M0 0L0 176L1338 176L1338 0L0 0z"/>
<path style="fill:#f6f107; stroke:none;" d="M48 20L49 21L48 20M46 21L41 24L41 25L47 22L46 21z"/>
<path style="fill:#bd7029; stroke:none;" d="M47 21.9228C32.3422 25.4556 35.3186 47.4605 50 44.8094C64.003 42.2809 60.8826 18.5769 47 21.9228z"/>
<path style="fill:#f6f107; stroke:none;" d="M50 21L51 22L50 21M52 22L53 23L52 22M53.6667 23.3333L54.3333 23.6667L53.6667 23.3333M55.6667 24.3333L56.3333 24.6667L55.6667 24.3333M39 25L40 26L39 25M57 25L58 26L57 25M37 26L38 27L37 26M164 27L165 28L164 27z"/>
<path style="fill:#447fc1; stroke:none;" d="M165 27L165 28L167 43L168 43C168 37.9257 169.717 30.0578 165 27z"/>
<path style="fill:#bd7029; stroke:none;" d="M240 27L241 28L240 27z"/>
<path style="fill:#447fc1; stroke:none;" d="M241 27L242 43L243 43L241 27z"/>
<path style="fill:#bd7029; stroke:none;" d="M305 27L306 28L305 27z"/>
<path style="fill:#447fc1; stroke:none;" d="M306 27L307 28L306 27z"/>
<path style="fill:#bd7029; stroke:none;" d="M369 27L369 33L370 33L369 27z"/>
<path style="fill:#447fc1; stroke:none;" d="M370.667 27.3333L371.333 27.6667L370.667 27.3333z"/>
<path style="fill:#bd7029; stroke:none;" d="M127.333 28.6667L127.667 29.3333L127.333 28.6667z"/>
<path style="fill:#447fc1; stroke:none;" d="M128 28L128 29L135 31C135.59 27.4198 130.655 28.0108 128 28z"/>
<path style="fill:#bd7029; stroke:none;" d="M164 28L164 33L165 33L164 28z"/>
<path style="fill:#354929; stroke:none;" d="M165 28L165 33C160.448 32.2527 154.237 36.4262 158.862 41.2469C160.789 43.2558 164.464 42.8266 167 43L167 28L165 28M240 28L240 33C235.328 32.1181 230.163 36.9795 234.604 41.3858C236.424 43.1909 239.651 42.849 242 43L242 28L240 28M305 28L305 30L308 30L308 28L305 28M370 28L370 33C365.169 32.1063 358.676 36.2686 363.743 41.3858C365.71 43.3719 369.447 42.8396 372 43L372 28L370 28M127 36C130.582 36.5681 131.943 37.5083 133 41L127 41L127 43C135.187 42.8015 138.748 35.1126 129 34L129 31L135 31L135 29C129.348 29.067 127.194 30.1004 127 36z"/>
<path style="fill:#bd7029; stroke:none;" d="M258 29L259 30L258 29z"/>
<path style="fill:#447fc1; stroke:none;" d="M259 29L260 32L261 32L261 29L259 29z"/>
<path style="fill:#354929; stroke:none;" d="M258 30L256 33L256 34C258.883 37.7991 257.389 42.0635 263 43C260.791 38.3564 260.791 36.6435 263 32L258 30z"/>
<path style="fill:#447fc1; stroke:none;" d="M306 30L307 31L306 30M129 31L129 34L130 34L129 31z"/>
<path style="fill:#bd7029; stroke:none;" d="M82 32L83 33L82 32z"/>
<path style="fill:#354929; stroke:none;" d="M81 33L81 34L87 34L87 37C78.2021 37.6855 82.8265 42.5234 89 43C88.9993 36.3477 89.11 31.2591 81 33z"/>
<path style="fill:#447fc1; stroke:none;" d="M87 32L88 33L87 32z"/>
<path style="fill:#354929; stroke:none;" d="M91 32L94 43L97 43L98 36L100 36L101 43L107 32L103 40L102 40L100 32L98 32L96 40L95 40L91 32z"/>
<path style="fill:#447fc1; stroke:none;" d="M93 32L94 33L93 32z"/>
<path style="fill:#f6f107; stroke:none;" d="M97 32L98 33L97 32z"/>
<path style="fill:#447fc1; stroke:none;" d="M100.333 32.6667L100.667 33.3333L100.333 32.6667z"/>
<path style="fill:#bd7029; stroke:none;" d="M104 32L105 33L104 32M110 32L111 33L110 32z"/>
<path style="fill:#354929; stroke:none;" d="M114 41L108 41L108 42C112.254 43.1234 114.681 42.3429 116 38L111 34L115 34C107.896 29.0879 111.124 37.8521 114 41z"/>
<path style="fill:#447fc1; stroke:none;" d="M114 32L115 33L114 32z"/>
<path style="fill:#f6f107; stroke:none;" d="M140 32L141 33L140 32z"/>
<path style="fill:#354929; stroke:none;" d="M146 42L140 45L140 47C149.403 46.6938 148 39.4845 148 32C145.736 32.2799 142.37 31.9417 140.604 33.6389C135.89 38.1696 141.595 42.3353 146 42z"/>
<path style="fill:#447fc1; stroke:none;" d="M144 32L145 33L144 32z"/>
<path style="fill:#bd7029; stroke:none;" d="M146 32L147 33L146 32z"/>
<path style="fill:#447fc1; stroke:none;" d="M148 32L148 44L149 44L148 32z"/>
<path style="fill:#bd7029; stroke:none;" d="M159 32L160 33L159 32z"/>
<path style="fill:#447fc1; stroke:none;" d="M163 32L164 33L163 32z"/>
<path style="fill:#bd7029; stroke:none;" d="M170 32L170 47L171 47L170 32z"/>
<path style="fill:#354929; stroke:none;" d="M171 32L171 47L173 47L173 42C177.819 43.0739 183.016 38.0575 178.397 33.6389C176.624 31.9435 173.269 32.2804 171 32z"/>
<path style="fill:#447fc1; stroke:none;" d="M172 32L173 33L172 32z"/>
<path style="fill:#bd7029; stroke:none;" d="M174 32L175 33L174 32z"/>
<path style="fill:#447fc1; stroke:none;" d="M178 32L179 33L178 32z"/>
<path style="fill:#bd7029; stroke:none;" d="M189 32L190 33L189 32z"/>
<path style="fill:#354929; stroke:none;" d="M190 32L189 43L192 43L192 34L196 34L196 43L198 43C198.102 34.3599 202.898 34.3599 203 43L205 43C204.999 30.6162 200.398 33.2407 190 32z"/>
<path style="fill:#447fc1; stroke:none;" d="M191 32L192 33L191 32z"/>
<path style="fill:#bd7029; stroke:none;" d="M193 32L194 33L193 32z"/>
<path style="fill:#447fc1; stroke:none;" d="M197 32L198 33L197 32z"/>
<path style="fill:#f6f107; stroke:none;" d="M199 32L200 33L199 32z"/>
<path style="fill:#bd7029; stroke:none;" d="M209 32L208 34L209 32z"/>
<path style="fill:#354929; stroke:none;" d="M213 41L208 41L208 43C216.248 42.7292 214.298 38.7045 210 34L215 34C207.88 28.9076 210.054 37.3925 213 41z"/>
<path style="fill:#447fc1; stroke:none;" d="M214 32L215 33L214 32z"/>
<path style="fill:#bd7029; stroke:none;" d="M219 32L220 33L219 32z"/>
<path style="fill:#354929; stroke:none;" d="M223 41L217 41L217 42C221.254 43.1234 223.681 42.3429 225 38L220 34L224 34C216.896 29.0879 220.124 37.8521 223 41z"/>
<path style="fill:#447fc1; stroke:none;" d="M223 32L224 33L223 32z"/>
<path style="fill:#bd7029; stroke:none;" d="M235 32L236 33L235 32M239 32L240 33L239 32M247 32L248 33L247 32z"/>
<path style="fill:#354929; stroke:none;" d="M246 33L246 34L252 34L252 37C243.202 37.6855 247.826 42.5234 254 43C253.999 36.3477 254.11 31.2591 246 33z"/>
<path style="fill:#447fc1; stroke:none;" d="M252 32L253 33L252 32z"/>
<path style="fill:#bd7029; stroke:none;" d="M257 32L258 33L257 32z"/>
<path style="fill:#447fc1; stroke:none;" d="M263 32L261 34L261 35C263.251 34.5267 264.118 34.1397 263 32z"/>
<path style="fill:#bd7029; stroke:none;" d="M267 32L268 33L267 32z"/>
<path style="fill:#354929; stroke:none;" d="M266 33L266 34L272 37C263.202 37.6855 267.826 42.5234 274 43C273.999 36.3477 274.11 31.2591 266 33z"/>
<path style="fill:#447fc1; stroke:none;" d="M272 32L273 33L272 32z"/>
<path style="fill:#bd7029; stroke:none;" d="M286 32L285 34L286 32z"/>
<path style="fill:#354929; stroke:none;" d="M290 41L285 41L285 43C293.248 42.7292 291.298 38.7045 287 34L292 34C284.88 28.9076 287.054 37.3925 290 41z"/>
<path style="fill:#447fc1; stroke:none;" d="M291 32L292 33L291 32z"/>
<path style="fill:#bd7029; stroke:none;" d="M297 32L298 33L297 32z"/>
<path style="fill:#354929; stroke:none;" d="M302 43L302 41C296.395 39.2771 298.488 36.027 302 33C293.387 31.374 293.399 42.3439 302 43z"/>
<path style="fill:#447fc1; stroke:none;" d="M301 32L302 33L301 32z"/>
<path style="fill:#354929; stroke:none;" d="M305 32L305 43L308 43L308 32L305 32z"/>
<path style="fill:#bd7029; stroke:none;" d="M313 32L314 33L313 32z"/>
<path style="fill:#354929; stroke:none;" d="M319 43L319 41L313 38L320 38C317.27 25.2133 303.389 42.4917 319 43z"/>
<path style="fill:#447fc1; stroke:none;" d="M317 32L318 33L317 32z"/>
<path style="fill:#bd7029; stroke:none;" d="M322 32L322 43L323 43L322 32z"/>
<path style="fill:#354929; stroke:none;" d="M323 32L323 43L325 43C325.102 34.3599 329.898 34.3599 330 43L332 43C331.999 34.4537 331.423 32.9713 323 32z"/>
<path style="fill:#447fc1; stroke:none;" d="M324 32L325 33L324 32z"/>
<path style="fill:#f6f107; stroke:none;" d="M326 32L327 33L326 32M337 32L338 33L337 32z"/>
<path style="fill:#354929; stroke:none;" d="M343 42L343 41C337.53 39.4083 337.491 35.5301 343 34C335.673 28.7652 331.601 44.7704 343 42z"/>
<path style="fill:#447fc1; stroke:none;" d="M342 32L343 33L342 32z"/>
<path style="fill:#bd7029; stroke:none;" d="M347 32L348 33L347 32z"/>
<path style="fill:#354929; stroke:none;" d="M353 43L353 41L347 38L354 38C351.27 25.2133 337.389 42.4917 353 43z"/>
<path style="fill:#447fc1; stroke:none;" d="M351 32L352 33L351 32z"/>
<path style="fill:#bd7029; stroke:none;" d="M364 32L365 33L364 32z"/>
<path style="fill:#447fc1; stroke:none;" d="M368 32L369 33L368 32z"/>
<path style="fill:#bd7029; stroke:none;" d="M377 32L378 33L377 32z"/>
<path style="fill:#354929; stroke:none;" d="M383 43L383 41L377 38L384 38C381.27 25.2133 367.389 42.4917 383 43z"/>
<path style="fill:#447fc1; stroke:none;" d="M381 32L382 33L381 32z"/>
<path style="fill:#bd7029; stroke:none;" d="M385 32L386 33L385 32z"/>
<path style="fill:#354929; stroke:none;" d="M386 32L389 43C393.557 41.4152 394.557 36.2647 396 32L391 40L386 32z"/>
<path style="fill:#447fc1; stroke:none;" d="M388.333 32.6667L388.667 33.3333L388.333 32.6667z"/>
<path style="fill:#bd7029; stroke:none;" d="M97 33L98 34L97 33z"/>
<path style="fill:#447fc1; stroke:none;" d="M106.333 33.6667L106.667 34.3333L106.333 33.6667z"/>
<path style="fill:#f6f107; stroke:none;" d="M108 33L109 34L108 33z"/>
<path style="fill:#447fc1; stroke:none;" d="M115 33L116 34L115 33z"/>
<path style="fill:#bd7029; stroke:none;" d="M139 33L140 34L139 33M158 33L159 34L158 33z"/>
<path style="fill:#447fc1; stroke:none;" d="M179 33L180 34L179 33z"/>
<path style="fill:#f6f107; stroke:none;" d="M217 33L218 34L217 33z"/>
<path style="fill:#447fc1; stroke:none;" d="M224 33L225 34L224 33z"/>
<path style="fill:#f6f107; stroke:none;" d="M233 33L234 34L233 33z"/>
<path style="fill:#447fc1; stroke:none;" d="M302.333 33.6667L302.667 34.3333L302.333 33.6667z"/>
<path style="fill:#bd7029; stroke:none;" d="M336 33L337 34L336 33z"/>
<path style="fill:#f6f107; stroke:none;" d="M385 33L386 34L385 33M392 33L393 34L392 33z"/>
<path style="fill:#447fc1; stroke:none;" d="M395 33L396 34L395 33z"/>
<path style="fill:#bd7029; stroke:none;" d="M81 34L82 35L81 34z"/>
<path style="fill:#447fc1; stroke:none;" d="M82 34L83 35L82 34z"/>
<path style="fill:#bd7029; stroke:none;" d="M86 34L87 35L86 34z"/>
<path style="fill:#447fc1; stroke:none;" d="M89 34L89 43L90 43L89 34z"/>
<path style="fill:#bd7029; stroke:none;" d="M91 34L92 35L91 34z"/>
<path style="fill:#447fc1; stroke:none;" d="M94 34L94 37L95 37L94 34z"/>
<path style="fill:#bd7029; stroke:none;" d="M103 34L103 37L104 37L103 34M108 34L108 37L109 37L108 34z"/>
<path style="fill:#447fc1; stroke:none;" d="M133 34L134 35L133 34M142 34L141 39L142 39L142 34z"/>
<path style="fill:#fefefe; stroke:none;" d="M143 34L142 40L145 40L145 34L143 34z"/>
<path style="fill:#bd7029; stroke:none;" d="M145 34L145 40L146 40L145 34z"/>
<path style="fill:#f6f107; stroke:none;" d="M157 34L158 35L157 34z"/>
<path style="fill:#fefefe; stroke:none;" d="M161 34C160.232 37.6875 160.199 39.7354 164 41L163 34L161 34z"/>
<path style="fill:#bd7029; stroke:none;" d="M163 34L164 35L163 34z"/>
<path style="fill:#447fc1; stroke:none;" d="M173 34L173 41L174 41L173 34z"/>
<path style="fill:#fefefe; stroke:none;" d="M174 34L174 41L177 41L176 34L174 34z"/>
<path style="fill:#bd7029; stroke:none;" d="M176 34L177 35L176 34z"/>
<path style="fill:#447fc1; stroke:none;" d="M192 34L193 35L192 34z"/>
<path style="fill:#bd7029; stroke:none;" d="M195 34L196 35L195 34z"/>
<path style="fill:#447fc1; stroke:none;" d="M199 34L200 35L199 34z"/>
<path style="fill:#bd7029; stroke:none;" d="M201 34L202 35L201 34z"/>
<path style="fill:#447fc1; stroke:none;" d="M210.333 34.6667L210.667 35.3333L210.333 34.6667z"/>
<path style="fill:#bd7029; stroke:none;" d="M214 34L215 35L214 34M217 34L217 37L218 37L217 34M233 34L234 35L233 34z"/>
<path style="fill:#447fc1; stroke:none;" d="M236 34L237 35L236 34z"/>
<path style="fill:#fefefe; stroke:none;" d="M237 34L237 41L239 41L239 34L237 34z"/>
<path style="fill:#bd7029; stroke:none;" d="M239 34L240 35L239 34M246 34L247 35L246 34z"/>
<path style="fill:#447fc1; stroke:none;" d="M247 34L248 35L247 34z"/>
<path style="fill:#bd7029; stroke:none;" d="M251 34L252 35L251 34z"/>
<path style="fill:#447fc1; stroke:none;" d="M254 34L254 43L255 43L254 34z"/>
<path style="fill:#bd7029; stroke:none;" d="M256.667 34.3333L257.333 34.6667L256.667 34.3333z"/>
<path style="fill:#447fc1; stroke:none;" d="M266.667 34.3333L267.333 34.6667L266.667 34.3333M287.333 34.6667L287.667 35.3333L287.333 34.6667z"/>
<path style="fill:#bd7029; stroke:none;" d="M291 34L292 35L291 34M295 34L296 35L295 34z"/>
<path style="fill:#447fc1; stroke:none;" d="M299 34L300 35L299 34z"/>
<path style="fill:#bd7029; stroke:none;" d="M301 34L302 35L301 34M311 34L312 35L311 34z"/>
<path style="fill:#fefefe; stroke:none;" d="M314 34L314 36L317 36L317 34L314 34z"/>
<path style="fill:#447fc1; stroke:none;" d="M319 34L320 35L319 34M326 34L327 35L326 34z"/>
<path style="fill:#bd7029; stroke:none;" d="M328 34L329 35L328 34M335.333 34.6667L335.667 35.3333L335.333 34.6667z"/>
<path style="fill:#447fc1; stroke:none;" d="M339 34L340 35L339 34z"/>
<path style="fill:#bd7029; stroke:none;" d="M342 34L343 35L342 34M345 34L346 35L345 34z"/>
<path style="fill:#fefefe; stroke:none;" d="M348 34L348 36L351 36L351 34L348 34z"/>
<path style="fill:#447fc1; stroke:none;" d="M353 34L354 35L353 34z"/>
<path style="fill:#bd7029; stroke:none;" d="M362 34L363 35L362 34z"/>
<path style="fill:#fefefe; stroke:none;" d="M366 34C365.021 37.6742 365.202 39.7396 369 41L368 34L366 34z"/>
<path style="fill:#bd7029; stroke:none;" d="M368 34L369 35L368 34M375 34L376 35L375 34z"/>
<path style="fill:#fefefe; stroke:none;" d="M378 34L378 36L381 36L381 34L378 34z"/>
<path style="fill:#447fc1; stroke:none;" d="M383 34L384 35L383 34z"/>
<path style="fill:#bd7029; stroke:none;" d="M392 34L393 35L392 34z"/>
<path style="fill:#f6f107; stroke:none;" d="M86.3333 35.6667L86.6667 36.3333L86.3333 35.6667M91 35L92 36L91 35M138 35L139 36L138 35z"/>
<path style="fill:#bd7029; stroke:none;" d="M157 35L158 36L157 35z"/>
<path style="fill:#447fc1; stroke:none;" d="M160 35L161 36L160 35z"/>
<path style="fill:#bd7029; stroke:none;" d="M164 35L164 41L165 41L164 35M177 35L178 36L177 35z"/>
<path style="fill:#447fc1; stroke:none;" d="M180 35L180 40L181 40L180 35z"/>
<path style="fill:#f6f107; stroke:none;" d="M195 35L195 43L196 43L195 35z"/>
<path style="fill:#447fc1; stroke:none;" d="M198 35L198 43L199 43L198 35z"/>
<path style="fill:#bd7029; stroke:none;" d="M202 35L202 43L203 43L202 35z"/>
<path style="fill:#447fc1; stroke:none;" d="M205 35L205 43L206 43L205 35z"/>
<path style="fill:#f6f107; stroke:none;" d="M232 35L233 36L232 35M251.333 35.6667L251.667 36.3333L251.333 35.6667M257 35L257 41L258 41L257 35z"/>
<path style="fill:#447fc1; stroke:none;" d="M260 35L260 40L261 40L260 35z"/>
<path style="fill:#bd7029; stroke:none;" d="M271.333 35.6667L271.667 36.3333L271.333 35.6667z"/>
<path style="fill:#447fc1; stroke:none;" d="M274 35L274 43L275 43L274 35z"/>
<path style="fill:#f6f107; stroke:none;" d="M310 35L311 36L310 35z"/>
<path style="fill:#447fc1; stroke:none;" d="M313 35L317 37L317 36L313 35z"/>
<path style="fill:#bd7029; stroke:none;" d="M317 35L318 36L317 35z"/>
<path style="fill:#447fc1; stroke:none;" d="M325 35L325 43L326 43L325 35z"/>
<path style="fill:#bd7029; stroke:none;" d="M329 35L329 43L330 43L329 35z"/>
<path style="fill:#447fc1; stroke:none;" d="M332 35L332 43L333 43L332 35M338 35L339 36L338 35z"/>
<path style="fill:#f6f107; stroke:none;" d="M344 35L345 36L344 35z"/>
<path style="fill:#447fc1; stroke:none;" d="M347 35L351 37L351 36L347 35z"/>
<path style="fill:#bd7029; stroke:none;" d="M351 35L352 36L351 35M369 35L369 40L370 40L369 35z"/>
<path style="fill:#f6f107; stroke:none;" d="M374 35L375 36L374 35z"/>
<path style="fill:#447fc1; stroke:none;" d="M377 35L381 37L381 36L377 35z"/>
<path style="fill:#bd7029; stroke:none;" d="M381 35L382 36L381 35M386 35L387 36L386 35M96.3333 36.6667L96.6667 37.3333L96.3333 36.6667z"/>
<path style="fill:#447fc1; stroke:none;" d="M98.3333 36.6667L98.6667 37.3333L98.3333 36.6667z"/>
<path style="fill:#bd7029; stroke:none;" d="M99.3333 36.6667L99.6667 37.3333L99.3333 36.6667z"/>
<path style="fill:#447fc1; stroke:none;" d="M101.333 36.6667L101.667 37.3333L101.333 36.6667M105.333 36.6667L105.667 37.3333L105.333 36.6667M112 36L113 37L112 36M118 36L118 37L125 38L118 36z"/>
<path style="fill:#bd7029; stroke:none;" d="M127 36L128 37L127 36M131 36L132 37L131 36z"/>
<path style="fill:#447fc1; stroke:none;" d="M135 36L136 37L135 36z"/>
<path style="fill:#bd7029; stroke:none;" d="M138 36L138 39L139 39L138 36z"/>
<path style="fill:#f6f107; stroke:none;" d="M177 36L177 39L178 39L177 36z"/>
<path style="fill:#bd7029; stroke:none;" d="M208 36L209 37L208 36z"/>
<path style="fill:#447fc1; stroke:none;" d="M212 36L213 37L212 36M221 36L222 37L221 36z"/>
<path style="fill:#bd7029; stroke:none;" d="M232 36L232 39L233 39L232 36z"/>
<path style="fill:#447fc1; stroke:none;" d="M235 36L235 40L236 40L235 36z"/>
<path style="fill:#f6f107; stroke:none;" d="M276 36L277 37L276 36z"/>
<path style="fill:#447fc1; stroke:none;" d="M277 36L277 37L283 37L277 36z"/>
<path style="fill:#bd7029; stroke:none;" d="M285 36L286 37L285 36z"/>
<path style="fill:#447fc1; stroke:none;" d="M289 36L290 37L289 36z"/>
<path style="fill:#bd7029; stroke:none;" d="M294 36L294 39L295 39L294 36z"/>
<path style="fill:#447fc1; stroke:none;" d="M297 36L297 40L298 40L297 36z"/>
<path style="fill:#bd7029; stroke:none;" d="M310 36L310 39L311 39L310 36M344 36L344 39L345 39L344 36M374 36L374 39L375 39L374 36z"/>
<path style="fill:#447fc1; stroke:none;" d="M389.333 36.6667L389.667 37.3333L389.333 36.6667M394 36L395 37L394 36z"/>
<path style="fill:#f6f107; stroke:none;" d="M81 37L82 38L81 37z"/>
<path style="fill:#bd7029; stroke:none;" d="M92 37L93 38L92 37M109 37L110 38L109 37z"/>
<path style="fill:#447fc1; stroke:none;" d="M114 37L115 38L114 37z"/>
<path style="fill:#f6f107; stroke:none;" d="M117 37L118 38L117 37z"/>
<path style="fill:#354929; stroke:none;" d="M118 37L118 39L124 39L124 37L118 37z"/>
<path style="fill:#447fc1; stroke:none;" d="M214 37L215 38L214 37z"/>
<path style="fill:#bd7029; stroke:none;" d="M218 37L219 38L218 37z"/>
<path style="fill:#447fc1; stroke:none;" d="M223 37L224 38L223 37z"/>
<path style="fill:#f6f107; stroke:none;" d="M246 37L247 38L246 37z"/>
<path style="fill:#bd7029; stroke:none;" d="M266 37L267 38L266 37M276.333 37.6667L276.667 38.3333L276.333 37.6667z"/>
<path style="fill:#354929; stroke:none;" d="M277 37L277 39L283 39L283 37L277 37z"/>
<path style="fill:#447fc1; stroke:none;" d="M291 37L292 38L291 37M337 37L338 38L337 37M364 37L365 38L364 37z"/>
<path style="fill:#bd7029; stroke:none;" d="M387.333 37.6667L387.667 38.3333L387.333 37.6667M391.333 37.6667L391.667 38.3333L391.333 37.6667z"/>
<path style="fill:#447fc1; stroke:none;" d="M84 38L85 39L84 38z"/>
<path style="fill:#fefefe; stroke:none;" d="M83 40C85.3962 40.5746 85.487 40.4751 86 38L83 40z"/>
<path style="fill:#bd7029; stroke:none;" d="M86 38L87 39L86 38z"/>
<path style="fill:#f6f107; stroke:none;" d="M92 38L93 39L92 38M99 38L100 39L99 38M102 38L103 39L102 38z"/>
<path style="fill:#bd7029; stroke:none;" d="M111 38L112 39L111 38M211 38L212 39L211 38z"/>
<path style="fill:#447fc1; stroke:none;" d="M215 38L215 42L216 42L215 38z"/>
<path style="fill:#bd7029; stroke:none;" d="M220 38L221 39L220 38z"/>
<path style="fill:#447fc1; stroke:none;" d="M249 38L250 39L249 38z"/>
<path style="fill:#fefefe; stroke:none;" d="M248 40C250.396 40.5746 250.487 40.4751 251 38L248 40z"/>
<path style="fill:#bd7029; stroke:none;" d="M251 38L252 39L251 38z"/>
<path style="fill:#f6f107; stroke:none;" d="M265 38L266 39L265 38z"/>
<path style="fill:#fefefe; stroke:none;" d="M269 38L268 39L268 40L268 41L271 38L269 38z"/>
<path style="fill:#bd7029; stroke:none;" d="M271 38L271 41L272 41L271 38M288 38L289 39L288 38z"/>
<path style="fill:#447fc1; stroke:none;" d="M292 38L292 42L293 42L292 38M313.333 38.6667L313.667 39.3333L313.333 38.6667M347.333 38.6667L347.667 39.3333L347.333 38.6667M377.333 38.6667L377.667 39.3333L377.333 38.6667M393.333 38.6667L393.667 39.3333L393.333 38.6667z"/>
<path style="fill:#f6f107; stroke:none;" d="M37 39L38 40L37 39z"/>
<path style="fill:#bd7029; stroke:none;" d="M80.3333 39.6667L80.6667 40.3333L80.3333 39.6667z"/>
<path style="fill:#f6f107; stroke:none;" d="M86 39L87 40L86 39z"/>
<path style="fill:#447fc1; stroke:none;" d="M95 39L96 40L95 39z"/>
<path style="fill:#bd7029; stroke:none;" d="M102 39L103 40L102 39z"/>
<path style="fill:#447fc1; stroke:none;" d="M104.333 39.6667L104.667 40.3333L104.333 39.6667z"/>
<path style="fill:#bd7029; stroke:none;" d="M113.333 39.6667L113.667 40.3333L113.333 39.6667z"/>
<path style="fill:#f6f107; stroke:none;" d="M138 39L139 40L138 39z"/>
<path style="fill:#bd7029; stroke:none;" d="M157.333 39.6667L157.667 40.3333L157.333 39.6667M177 39L178 40L177 39M222.333 39.6667L222.667 40.3333L222.333 39.6667z"/>
<path style="fill:#f6f107; stroke:none;" d="M232 39L233 40L232 39z"/>
<path style="fill:#bd7029; stroke:none;" d="M245.333 39.6667L245.667 40.3333L245.333 39.6667z"/>
<path style="fill:#f6f107; stroke:none;" d="M251 39L252 40L251 39z"/>
<path style="fill:#bd7029; stroke:none;" d="M265 39L265 42L266 42L265 39z"/>
<path style="fill:#f6f107; stroke:none;" d="M294 39L295 40L294 39M310 39L311 40L310 39M344 39L345 40L344 39M374 39L375 40L374 39z"/>
<path style="fill:#447fc1; stroke:none;" d="M390 39L391 40L390 39z"/>
<path style="fill:#f6f107; stroke:none;" d="M58 40L59 41L58 40z"/>
<path style="fill:#447fc1; stroke:none;" d="M83 40L84 41L83 40z"/>
<path style="fill:#bd7029; stroke:none;" d="M86 40L87 41L86 40M93 40L94 41L93 40z"/>
<path style="fill:#447fc1; stroke:none;" d="M97.3333 40.6667L97.6667 41.3333L97.3333 40.6667z"/>
<path style="fill:#bd7029; stroke:none;" d="M100.333 40.6667L100.667 41.3333L100.333 40.6667M126 40L126 43L127 43L126 40z"/>
<path style="fill:#447fc1; stroke:none;" d="M127 40L128 41L127 40z"/>
<path style="fill:#bd7029; stroke:none;" d="M132 40L133 41L132 40z"/>
<path style="fill:#447fc1; stroke:none;" d="M135 40L136 41L135 40z"/>
<path style="fill:#bd7029; stroke:none;" d="M139 40L140 41L139 40z"/>
<path style="fill:#447fc1; stroke:none;" d="M143 40L144 41L143 40z"/>
<path style="fill:#bd7029; stroke:none;" d="M144 40L145 41L144 40M151 40L151 43L152 43L151 40z"/>
<path style="fill:#354929; stroke:none;" d="M152 40L152 43L154 43L154 40L152 40z"/>
<path style="fill:#447fc1; stroke:none;" d="M154 40L154 43L155 43L154 40z"/>
<path style="fill:#bd7029; stroke:none;" d="M183 40L184 41L183 40z"/>
<path style="fill:#354929; stroke:none;" d="M183 41L183 42L186 43L186 40L183 41z"/>
<path style="fill:#447fc1; stroke:none;" d="M186 40L186 43L187 43L186 40z"/>
<path style="fill:#354929; stroke:none;" d="M227 40L227 43L230 43L230 40L227 40z"/>
<path style="fill:#447fc1; stroke:none;" d="M236 40L237 41L236 40z"/>
<path style="fill:#bd7029; stroke:none;" d="M239 40L240 41L239 40z"/>
<path style="fill:#447fc1; stroke:none;" d="M248 40L249 41L248 40z"/>
<path style="fill:#bd7029; stroke:none;" d="M251 40L252 41L251 40z"/>
<path style="fill:#447fc1; stroke:none;" d="M298 40L299 41L298 40M314 40L315 41L314 40z"/>
<path style="fill:#bd7029; stroke:none;" d="M335 40L336 41L335 40z"/>
<path style="fill:#447fc1; stroke:none;" d="M348 40L349 41L348 40z"/>
<path style="fill:#bd7029; stroke:none;" d="M356 40L357 41L356 40z"/>
<path style="fill:#354929; stroke:none;" d="M356 41L356 42L359 43L359 40L356 41z"/>
<path style="fill:#447fc1; stroke:none;" d="M359 40L359 43L360 43L359 40z"/>
<path style="fill:#bd7029; stroke:none;" d="M362 40L363 41L362 40z"/>
<path style="fill:#447fc1; stroke:none;" d="M365 40L366 41L365 40M378 40L379 41L378 40z"/>
<path style="fill:#bd7029; stroke:none;" d="M388 40L389 41L388 40z"/>
<path style="fill:#f6f107; stroke:none;" d="M40 41L41 42L40 41M80 41L81 42L80 41M93 41L94 42L93 41z"/>
<path style="fill:#447fc1; stroke:none;" d="M115 41L116 42L115 41M179 41L180 42L179 41z"/>
<path style="fill:#f6f107; stroke:none;" d="M207 41L208 42L207 41z"/>
<path style="fill:#447fc1; stroke:none;" d="M224 41L225 42L224 41z"/>
<path style="fill:#f6f107; stroke:none;" d="M226 41L227 42L226 41z"/>
<path style="fill:#447fc1; stroke:none;" d="M230 41L231 42L230 41z"/>
<path style="fill:#bd7029; stroke:none;" d="M233 41L234 42L233 41z"/>
<path style="fill:#f6f107; stroke:none;" d="M245 41L246 42L245 41z"/>
<path style="fill:#447fc1; stroke:none;" d="M263.333 41.6667L263.667 42.3333L263.333 41.6667z"/>
<path style="fill:#f6f107; stroke:none;" d="M284 41L285 42L284 41z"/>
<path style="fill:#bd7029; stroke:none;" d="M295 41L296 42L295 41z"/>
<path style="fill:#447fc1; stroke:none;" d="M302.333 41.6667L302.667 42.3333L302.333 41.6667z"/>
<path style="fill:#bd7029; stroke:none;" d="M311 41L312 42L311 41z"/>
<path style="fill:#447fc1; stroke:none;" d="M319.333 41.6667L319.667 42.3333L319.333 41.6667z"/>
<path style="fill:#bd7029; stroke:none;" d="M345 41L346 42L345 41z"/>
<path style="fill:#447fc1; stroke:none;" d="M353.333 41.6667L353.667 42.3333L353.333 41.6667z"/>
<path style="fill:#bd7029; stroke:none;" d="M375 41L376 42L375 41z"/>
<path style="fill:#447fc1; stroke:none;" d="M383.333 41.6667L383.667 42.3333L383.333 41.6667z"/>
<path style="fill:#f6f107; stroke:none;" d="M388 41L389 42L388 41z"/>
<path style="fill:#447fc1; stroke:none;" d="M392 41L393 42L392 41z"/>
<path style="fill:#f6f107; stroke:none;" d="M42 42L43 43L42 42z"/>
<path style="fill:#bd7029; stroke:none;" d="M81 42L82 43L81 42z"/>
<path style="fill:#447fc1; stroke:none;" d="M86 42L87 43L86 42z"/>
<path style="fill:#f6f107; stroke:none;" d="M100 42L101 43L100 42z"/>
<path style="fill:#447fc1; stroke:none;" d="M103 42L104 43L103 42z"/>
<path style="fill:#bd7029; stroke:none;" d="M108 42L109 43L108 42z"/>
<path style="fill:#447fc1; stroke:none;" d="M114 42L115 43L114 42M133 42L134 43L133 42z"/>
<path style="fill:#bd7029; stroke:none;" d="M141 42L142 43L141 42z"/>
<path style="fill:#447fc1; stroke:none;" d="M143 42L144 43L143 42z"/>
<path style="fill:#bd7029; stroke:none;" d="M145.333 42.6667L145.667 43.3333L145.333 42.6667M159 42L160 43L159 42z"/>
<path style="fill:#447fc1; stroke:none;" d="M163 42L164 43L163 42z"/>
<path style="fill:#bd7029; stroke:none;" d="M164 42L165 43L164 42z"/>
<path style="fill:#447fc1; stroke:none;" d="M173 42L173 47L174 47L173 42M178 42L179 43L178 42z"/>
<path style="fill:#bd7029; stroke:none;" d="M183 42L184 43L183 42z"/>
<path style="fill:#447fc1; stroke:none;" d="M214 42L215 43L214 42z"/>
<path style="fill:#bd7029; stroke:none;" d="M217 42L218 43L217 42z"/>
<path style="fill:#447fc1; stroke:none;" d="M223 42L224 43L223 42z"/>
<path style="fill:#bd7029; stroke:none;" d="M234 42L235 43L234 42z"/>
<path style="fill:#447fc1; stroke:none;" d="M239 42L240 43L239 42z"/>
<path style="fill:#bd7029; stroke:none;" d="M240 42L241 43L240 42M246 42L247 43L246 42z"/>
<path style="fill:#447fc1; stroke:none;" d="M251 42L252 43L251 42z"/>
<path style="fill:#bd7029; stroke:none;" d="M266 42L267 43L266 42M271 42L272 43L271 42z"/>
<path style="fill:#447fc1; stroke:none;" d="M291 42L292 43L291 42z"/>
<path style="fill:#f6f107; stroke:none;" d="M296 42L297 43L296 42M312 42L313 43L312 42z"/>
<path style="fill:#bd7029; stroke:none;" d="M337 42L338 43L337 42z"/>
<path style="fill:#447fc1; stroke:none;" d="M342 42L343 43L342 42z"/>
<path style="fill:#f6f107; stroke:none;" d="M346 42L347 43L346 42z"/>
<path style="fill:#bd7029; stroke:none;" d="M356 42L357 43L356 42z"/>
<path style="fill:#447fc1; stroke:none;" d="M368 42L369 43L368 42z"/>
<path style="fill:#bd7029; stroke:none;" d="M369 42L370 43L369 42z"/>
<path style="fill:#f6f107; stroke:none;" d="M376 42L377 43L376 42M44 43L45 44L44 43z"/>
<path style="fill:#bd7029; stroke:none;" d="M1305 44L1300 51L1305 45L1306 45L1311 51L1305 44z"/>
<path style="fill:#f6f107; stroke:none;" d="M49 45L50 46L49 45z"/>
<path style="fill:#bd7029; stroke:none;" d="M139.333 45.6667L139.667 46.3333L139.333 45.6667z"/>
<path style="fill:#447fc1; stroke:none;" d="M147 45L148 46L147 45M1304 47L1307 47L1306 45L1304 47M146 46L147 47L146 46z"/>
<path style="fill:#bd7029; stroke:none;" d="M142 47L143 48L142 47z"/>
<path style="fill:#447fc1; stroke:none;" d="M143.667 47.3333L144.333 47.6667L143.667 47.3333M1303 47L1301 50L1303 47M1307 47L1310 50L1307 47z"/>
<path style="fill:#f6f107; stroke:none;" d="M92 65L93 66L92 65z"/>
<path style="fill:#447fc1; stroke:none;" d="M93.213 66.1759C88.4146 68.2787 89.8682 79.5296 95.74 77.338C100.855 75.4289 98.8118 63.7223 93.213 66.1759z"/>
<path style="fill:#bd7029; stroke:none;" d="M103 65L101 68L103 65z"/>
<path style="fill:#447fc1; stroke:none;" d="M103 66L103 67L108 67L103 66z"/>
<path style="fill:#bd7029; stroke:none;" d="M123 65L124 66L123 65z"/>
<path style="fill:#447fc1; stroke:none;" d="M124.209 65.9707C119.278 67.2426 120.368 78.7554 125.896 77.2485C130.706 75.9372 129.914 64.499 124.209 65.9707M153 71L159 67C152.603 62.7841 149.392 75.1776 155.184 77.338C159.991 79.1309 160.929 70.4039 153 71z"/>
<path style="fill:#bd7029; stroke:none;" d="M164 65L165 66L164 65z"/>
<path style="fill:#447fc1; stroke:none;" d="M165.209 65.9707C160.278 67.2426 161.368 78.7554 166.896 77.2485C171.706 75.9372 170.914 64.499 165.209 65.9707z"/>
<path style="fill:#bd7029; stroke:none;" d="M195 65L196 66L195 65z"/>
<path style="fill:#447fc1; stroke:none;" d="M200 73L193 76C198.528 82.2928 204.532 69.5582 198.571 66.2878C194.06 63.8126 190.976 72.7037 200 73z"/>
<path style="fill:#bd7029; stroke:none;" d="M205 65L206 66L205 65z"/>
<path style="fill:#447fc1; stroke:none;" d="M206.209 65.9707C201.278 67.2426 202.368 78.7554 207.896 77.2485C212.706 75.9372 211.914 64.499 206.209 65.9707z"/>
<path style="fill:#bd7029; stroke:none;" d="M333 65L333 78L334 78L333 65z"/>
<path style="fill:#447fc1; stroke:none;" d="M334 65L334 78L335 78L334 65z"/>
<path style="fill:#bd7029; stroke:none;" d="M378 65L378 70L379 70L378 65z"/>
<path style="fill:#447fc1; stroke:none;" d="M379 65L379 70C370.229 68.0455 371.611 77.292 380 78L379 65z"/>
<path style="fill:#bd7029; stroke:none;" d="M382.333 65.6667L382.667 66.3333L382.333 65.6667z"/>
<path style="fill:#447fc1; stroke:none;" d="M383 65L383 67L385 67L383 65z"/>
<path style="fill:#bd7029; stroke:none;" d="M394 65L394 78L395 78L394 65z"/>
<path style="fill:#447fc1; stroke:none;" d="M395 65L395 78L396 78C396.139 73.735 396.708 71.3029 401 70L401 78L402 78L402 69L396 70L395 65z"/>
<path style="fill:#bd7029; stroke:none;" d="M82 66L83 67L82 66M86 66L87 67L86 66z"/>
<path style="fill:#447fc1; stroke:none;" d="M87 66L88 67L87 66z"/>
<path style="fill:#bd7029; stroke:none;" d="M91 66L92 67L91 66M115 66L114 68L115 66z"/>
<path style="fill:#447fc1; stroke:none;" d="M111 75L117 78L118 78L118 66L111 75M136 66L131 75L137 78L138 78L140 75L140 74L138 66L136 66z"/>
<path style="fill:#bd7029; stroke:none;" d="M141 66L142 67L141 66z"/>
<path style="fill:#447fc1; stroke:none;" d="M142 66L142 67L148 67L143 78L149 66L142 66z"/>
<path style="fill:#bd7029; stroke:none;" d="M153 66L154 67L153 66M174 66L175 67L174 66z"/>
<path style="fill:#447fc1; stroke:none;" d="M173 67L173 68L177 67L177 78L178 78L178 66L173 67z"/>
<path style="fill:#bd7029; stroke:none;" d="M183 66L183 72L184 72L183 66z"/>
<path style="fill:#447fc1; stroke:none;" d="M184 66L184 70L185 70L185 67L190 67L184 66z"/>
<path style="fill:#bd7029; stroke:none;" d="M193 66L194 67L193 66M265 66L265 69L266 69L265 66z"/>
<path style="fill:#447fc1; stroke:none;" d="M266 68L272 67L266 68z"/>
<path style="fill:#bd7029; stroke:none;" d="M360 66L361 67L360 66z"/>
<path style="fill:#447fc1; stroke:none;" d="M361 66L361 67C367.312 67.7054 369.382 70.8976 368 77L360 74C358.582 83.487 379.562 72.2796 365.966 66.6034C364.404 65.9511 362.648 66.0535 361 66M82 67L80 69L80 70L82 72L83 72L86 72L87 72L89 70L89 69L87 67L86 67L82 67z"/>
<path style="fill:#bd7029; stroke:none;" d="M90.3333 67.6667L90.6667 68.3333L90.3333 67.6667z"/>
<path style="fill:#fefefe; stroke:none;" d="M92 67L93 77C97.9445 74.2731 98.0701 68.054 92 67z"/>
<path style="fill:#bd7029; stroke:none;" d="M96 67L97 68L96 67z"/>
<path style="fill:#447fc1; stroke:none;" d="M102 67L103 68L102 67z"/>
<path style="fill:#bd7029; stroke:none;" d="M121 67L122 68L121 67z"/>
<path style="fill:#fefefe; stroke:none;" d="M123 67C121.962 71.4238 121.724 74.642 126 77C127.249 72.7628 127.775 68.5849 123 67z"/>
<path style="fill:#f6f107; stroke:none;" d="M126 67L127 68L126 67z"/>
<path style="fill:#bd7029; stroke:none;" d="M135 67L136 68L135 67M147.333 67.6667L147.667 68.3333L147.333 67.6667M152.333 67.6667L152.667 68.3333L152.333 67.6667M162 67L163 68L162 67z"/>
<path style="fill:#fefefe; stroke:none;" d="M164 67C162.962 71.4238 162.724 74.6419 167 77C168.249 72.7628 168.775 68.5849 164 67z"/>
<path style="fill:#f6f107; stroke:none;" d="M167 67L168 68L167 67z"/>
<path style="fill:#bd7029; stroke:none;" d="M176 67L176 78L177 78L176 67z"/>
<path style="fill:#fefefe; stroke:none;" d="M195.603 68.1566C193.87 69.3145 195.664 72.0015 197.397 70.8434C199.13 69.6855 197.336 66.9985 195.603 68.1566z"/>
<path style="fill:#bd7029; stroke:none;" d="M198 67L199 68L198 67M203 67L204 68L203 67z"/>
<path style="fill:#fefefe; stroke:none;" d="M205 67C203.962 71.4238 203.724 74.6419 208 77C209.249 72.7628 209.775 68.5849 205 67z"/>
<path style="fill:#f6f107; stroke:none;" d="M208 67L209 68L208 67z"/>
<path style="fill:#bd7029; stroke:none;" d="M358 67L356 70L358 67z"/>
<path style="fill:#447fc1; stroke:none;" d="M359.667 67.3333L360.333 67.6667L359.667 67.3333z"/>
<path style="fill:#f6f107; stroke:none;" d="M365 67L366 68L365 67M81 68L82 69L81 68M96 68L97 69L96 68M100 68L101 69L100 68z"/>
<path style="fill:#447fc1; stroke:none;" d="M101 68C101 70.847 100.148 75.5736 103.111 77.2778C106.367 79.1505 110.063 75.4583 108.056 72.25C106.698 70.0801 102.965 69.9803 101 68z"/>
<path style="fill:#bd7029; stroke:none;" d="M116 68L116 74L117 74L116 68M127.333 68.6667L127.667 69.3333L127.333 68.6667M134 68L135 69L134 68M136 68L136 74L137 74L136 68M168.333 68.6667L168.667 69.3333L168.333 68.6667M192 68L192 71L193 71L192 68M209.333 68.6667L209.667 69.3333L209.333 68.6667z"/>
<path style="fill:#447fc1; stroke:none;" d="M358 68L359 69L358 68z"/>
<path style="fill:#bd7029; stroke:none;" d="M367 68L368 69L367 68z"/>
<path style="fill:#f6f107; stroke:none;" d="M79 69L80 70L79 69z"/>
<path style="fill:#bd7029; stroke:none;" d="M100 69L100 75L101 75L100 69M113 69L114 70L113 69z"/>
<path style="fill:#fefefe; stroke:none;" d="M115 69L112 74L116 74L115 69z"/>
<path style="fill:#bd7029; stroke:none;" d="M120 69L120 74L121 74L120 69z"/>
<path style="fill:#f6f107; stroke:none;" d="M133 69L134 70L133 69z"/>
<path style="fill:#fefefe; stroke:none;" d="M135 69L133 74C136.012 73.3545 136.498 71.6128 135 69z"/>
<path style="fill:#f6f107; stroke:none;" d="M146 69L147 70L146 69M151 69L152 70L151 69z"/>
<path style="fill:#bd7029; stroke:none;" d="M161 69L161 74L162 74L161 69M199.333 69.6667L199.667 70.3333L199.333 69.6667M202 69L202 74L203 74L202 69M227 69L228 70L227 69z"/>
<path style="fill:#447fc1; stroke:none;" d="M228 69L228 70L233 70L233 73L228 73L227 77L234 78L234 69L228 69z"/>
<path style="fill:#bd7029; stroke:none;" d="M235 69L236 70L235 69z"/>
<path style="fill:#447fc1; stroke:none;" d="M236 69L239 78L242 71L243 71L243 74L244 74L242 69L240 76L239 76L236 69z"/>
<path style="fill:#bd7029; stroke:none;" d="M241 69L242 70L241 69z"/>
<path style="fill:#447fc1; stroke:none;" d="M247 69L244 78L249 69L247 69z"/>
<path style="fill:#bd7029; stroke:none;" d="M250 69L249 72L250 72L250 69z"/>
<path style="fill:#447fc1; stroke:none;" d="M251 69L251 70L255 70L251 69M265 69C265.582 71.7157 274.65 77.9137 265 76C267.317 78.6379 272.951 77.6937 271.339 73.2191C270.444 70.7348 267.152 69.9993 265 69z"/>
<path style="fill:#bd7029; stroke:none;" d="M275 69L276 70L275 69z"/>
<path style="fill:#447fc1; stroke:none;" d="M281 77L275 80L275 81C283 82.7826 282 74.6926 282 69L281 69L281 76L276 76L280 70C274.035 68.0451 273.762 77.6267 281 77z"/>
<path style="fill:#bd7029; stroke:none;" d="M280 69L280 76L281 76L280 69M289 69L289 78L290 78L289 69z"/>
<path style="fill:#447fc1; stroke:none;" d="M290 69L290 78L291 78L290 69z"/>
<path style="fill:#bd7029; stroke:none;" d="M291 69L292 70L291 69z"/>
<path style="fill:#447fc1; stroke:none;" d="M292 69L292 70L295 70L295 78L297 78C296.984 73.3446 297.225 69.872 292 69M297 69L297 70L301 70L301 78L302 78L302 69L297 69z"/>
<path style="fill:#bd7029; stroke:none;" d="M305 69L304 72L305 72L305 69z"/>
<path style="fill:#447fc1; stroke:none;" d="M306 69L306 70L310 70L306 69z"/>
<path style="fill:#bd7029; stroke:none;" d="M312 69L313 70L312 69z"/>
<path style="fill:#447fc1; stroke:none;" d="M312 70L317 77L312 77L312 78C318.414 77.5006 317.571 74.1503 313 71L318 70L312 70M332 78L332 77C327.679 74.5878 328.453 71.385 333 70C326.432 67.4593 325.887 76.144 332 78z"/>
<path style="fill:#bd7029; stroke:none;" d="M338 69L337 71L338 69z"/>
<path style="fill:#447fc1; stroke:none;" d="M344 78L344 77L338 74L344 74C342.353 64.1367 331.362 77.0359 344 78z"/>
<path style="fill:#bd7029; stroke:none;" d="M345 69L346 70L345 69z"/>
<path style="fill:#447fc1; stroke:none;" d="M346 69L351 78L346 69z"/>
<path style="fill:#bd7029; stroke:none;" d="M352 69L353 70L352 69z"/>
<path style="fill:#447fc1; stroke:none;" d="M353 69L354 70L353 69M357 69L356 73L357 73L357 69z"/>
<path style="fill:#bd7029; stroke:none;" d="M368 69L369 70L368 69M373 69L374 70L373 69M382 69L382 78L383 78L382 69z"/>
<path style="fill:#447fc1; stroke:none;" d="M383 69L383 78L384 78L383 69z"/>
<path style="fill:#bd7029; stroke:none;" d="M387 69L386 72L387 72L387 69z"/>
<path style="fill:#447fc1; stroke:none;" d="M388 69L388 70L392 70L388 69z"/>
<path style="fill:#bd7029; stroke:none;" d="M396 69L397 70L396 69M410 69L409 71L410 69z"/>
<path style="fill:#447fc1; stroke:none;" d="M411 69L411 70L415 70L411 69M418.742 70.0471C415.384 72.583 418.601 79.242 422.686 76.9136C427.065 74.4175 422.753 67.0186 418.742 70.0471z"/>
<path style="fill:#bd7029; stroke:none;" d="M427 69L427 78L428 78L427 69z"/>
<path style="fill:#447fc1; stroke:none;" d="M428 69L428 78L429 78L428 69z"/>
<path style="fill:#bd7029; stroke:none;" d="M429 69L430 70L429 69z"/>
<path style="fill:#447fc1; stroke:none;" d="M430 69L430 70L433 70L433 78L435 78C434.984 73.3446 435.225 69.872 430 69M435 69L435 70L439 70L439 78L440 78L440 69L435 69z"/>
<path style="fill:#bd7029; stroke:none;" d="M81 70L81 73L82 73L81 70z"/>
<path style="fill:#fefefe; stroke:none;" d="M82 73L85 70L82 73z"/>
<path style="fill:#bd7029; stroke:none;" d="M85 70L85 73L86 73L85 70z"/>
<path style="fill:#f6f107; stroke:none;" d="M89 70L89 73L90 73L89 70z"/>
<path style="fill:#bd7029; stroke:none;" d="M97 70L97 74L98 74L97 70M104 70L105 71L104 70M112 70L113 71L112 70z"/>
<path style="fill:#f6f107; stroke:none;" d="M127 70L127 74L128 74L127 70z"/>
<path style="fill:#bd7029; stroke:none;" d="M133 70L134 71L133 70M146 70L147 71L146 70M151 70L151 74L152 74L151 70z"/>
<path style="fill:#f6f107; stroke:none;" d="M168 70L168 74L169 74L168 70z"/>
<path style="fill:#fefefe; stroke:none;" d="M184 70L185 71L184 70z"/>
<path style="fill:#f6f107; stroke:none;" d="M185 70L186 71L185 70z"/>
<path style="fill:#447fc1; stroke:none;" d="M184 71L184 72L189 72C187.925 75.5214 186.661 76.3203 183 76C187.833 81.5031 193.478 70.6443 184 71z"/>
<path style="fill:#f6f107; stroke:none;" d="M209 70L209 74L210 74L209 70z"/>
<path style="fill:#bd7029; stroke:none;" d="M232 70L233 71L232 70M246 70L246 73L247 73L246 70z"/>
<path style="fill:#447fc1; stroke:none;" d="M250 70L255 75L255 76L250 77L250 78C257.74 77.3973 254.21 73.2704 250 70z"/>
<path style="fill:#bd7029; stroke:none;" d="M267 70L268 71L267 70z"/>
<path style="fill:#f6f107; stroke:none;" d="M274 70L275 71L274 70z"/>
<path style="fill:#fefefe; stroke:none;" d="M276 76L280 76L280 70C276.679 71.0989 276.263 72.5902 276 76z"/>
<path style="fill:#bd7029; stroke:none;" d="M294 70L295 71L294 70M300 70L301 71L300 70z"/>
<path style="fill:#447fc1; stroke:none;" d="M305 70L310 75L310 76L305 77L305 78C312.74 77.3973 309.21 73.2704 305 70z"/>
<path style="fill:#bd7029; stroke:none;" d="M327 70L328 71L327 70z"/>
<path style="fill:#fefefe; stroke:none;" d="M329.549 71.1752C327.365 72.5794 328.869 77.4847 331.451 75.8248C333.635 74.4206 332.131 69.5153 329.549 71.1752M338 73L343 73L342 70L338 73z"/>
<path style="fill:#bd7029; stroke:none;" d="M342 70L343 71L342 70z"/>
<path style="fill:#f6f107; stroke:none;" d="M351 70L352 71L351 70z"/>
<path style="fill:#447fc1; stroke:none;" d="M352 70L351 75L352 75L352 70z"/>
<path style="fill:#f6f107; stroke:none;" d="M360 70L361 71L360 70z"/>
<path style="fill:#447fc1; stroke:none;" d="M360 73L365 71L365 75C366.428 70.6444 362.322 69.4501 360 73z"/>
<path style="fill:#bd7029; stroke:none;" d="M365 70L366 71L365 70z"/>
<path style="fill:#f6f107; stroke:none;" d="M368 70L369 71L368 70z"/>
<path style="fill:#bd7029; stroke:none;" d="M372 70L373 71L372 70z"/>
<path style="fill:#fefefe; stroke:none;" d="M374 70C373.401 73.6171 373.751 75.1937 377 77C377.979 73.3258 377.798 71.2603 374 70z"/>
<path style="fill:#f6f107; stroke:none;" d="M377 70L378 71L377 70z"/>
<path style="fill:#447fc1; stroke:none;" d="M387 70L392 75L392 76L387 77L387 78C394.74 77.3973 391.21 73.2704 387 70z"/>
<path style="fill:#bd7029; stroke:none;" d="M400 70L401 71L400 70z"/>
<path style="fill:#447fc1; stroke:none;" d="M410 70C408.754 74.7181 410.104 77.2192 415 78L415 77L410 70z"/>
<path style="fill:#bd7029; stroke:none;" d="M417 70L418 71L417 70z"/>
<path style="fill:#fefefe; stroke:none;" d="M419.549 71.1752C417.365 72.5794 418.869 77.4847 421.451 75.8248C423.634 74.4206 422.131 69.5153 419.549 71.1752z"/>
<path style="fill:#bd7029; stroke:none;" d="M422 70L423 71L422 70M432 70L433 71L432 70M438 70L439 71L438 70M132 71L133 72L132 71z"/>
<path style="fill:#f6f107; stroke:none;" d="M145 71L146 72L145 71M198 71L199 72L198 71M232.333 71.6667L232.667 72.3333L232.333 71.6667z"/>
<path style="fill:#bd7029; stroke:none;" d="M236.333 71.6667L236.667 72.3333L236.333 71.6667M240.333 71.6667L240.667 72.3333L240.333 71.6667M242.333 71.6667L242.667 72.3333L242.333 71.6667M274 71L274 76L275 76L274 71z"/>
<path style="fill:#f6f107; stroke:none;" d="M300 71L300 78L301 78L300 71M326 71L327 72L326 71M342 71L343 72L342 71z"/>
<path style="fill:#bd7029; stroke:none;" d="M346.333 71.6667L346.667 72.3333L346.333 71.6667M351.333 71.6667L351.667 72.3333L351.333 71.6667M355 71L355 74L356 74L355 71z"/>
<path style="fill:#fefefe; stroke:none;" d="M361 77L363 77L364 71C361.059 72.6201 360.501 73.6858 361 77z"/>
<path style="fill:#f6f107; stroke:none;" d="M364.333 71.6667L364.667 72.3333L364.333 71.6667z"/>
<path style="fill:#bd7029; stroke:none;" d="M378 71L378 76L379 76L378 71z"/>
<path style="fill:#f6f107; stroke:none;" d="M400 71L400 78L401 78L400 71M416 71L417 72L416 71z"/>
<path style="fill:#bd7029; stroke:none;" d="M423 71L423 75L424 75L423 71z"/>
<path style="fill:#f6f107; stroke:none;" d="M438 71L438 78L439 78L438 71z"/>
<path style="fill:#fefefe; stroke:none;" d="M102 72C103.218 79.309 109.309 73.2183 102 72z"/>
<path style="fill:#bd7029; stroke:none;" d="M106 72L107 73L106 72M111 72L112 73L111 72M131 72L132 73L131 72M145 72L146 73L145 72z"/>
<path style="fill:#fefefe; stroke:none;" d="M153 72L157 77C157.547 73.4398 156.49 72.5807 153 72z"/>
<path style="fill:#f6f107; stroke:none;" d="M157 72L158 73L157 72z"/>
<path style="fill:#bd7029; stroke:none;" d="M188.333 72.6667L188.667 73.3333L188.333 72.6667z"/>
<path style="fill:#f6f107; stroke:none;" d="M193 72L194 73L193 72M304 72L305 73L304 72z"/>
<path style="fill:#bd7029; stroke:none;" d="M312 72L313 73L312 72M326 72L326 75L327 75L326 72M336.333 72.6667L336.667 73.3333L336.333 72.6667M359.333 72.6667L359.667 73.3333L359.333 72.6667z"/>
<path style="fill:#f6f107; stroke:none;" d="M371 72L372 73L371 72M386 72L387 73L386 72M408 72L409 73L408 72z"/>
<path style="fill:#bd7029; stroke:none;" d="M416 72L416 75L417 75L416 72M79.3333 73.6667L79.6667 74.3333L79.3333 73.6667z"/>
<path style="fill:#447fc1; stroke:none;" d="M80 73L81 78L82 78L82 75L85 75L85 78L86 78L88 73L80 73z"/>
<path style="fill:#bd7029; stroke:none;" d="M107.333 73.6667L107.667 74.3333L107.333 73.6667M110.333 73.6667L110.667 74.3333L110.333 73.6667M158 73L158 76L159 76L158 73M199 73L200 74L199 73z"/>
<path style="fill:#f6f107; stroke:none;" d="M245 73L246 74L245 73z"/>
<path style="fill:#bd7029; stroke:none;" d="M251 73L252 74L251 73M257 73L258 74L257 73z"/>
<path style="fill:#447fc1; stroke:none;" d="M258 73L258 74L262 74L258 73z"/>
<path style="fill:#bd7029; stroke:none;" d="M270 73L270 76L271 76L270 73M313 73L314 74L313 73M319 73L320 74L319 73z"/>
<path style="fill:#447fc1; stroke:none;" d="M320 73L320 74L325 74L320 73z"/>
<path style="fill:#bd7029; stroke:none;" d="M347.333 73.6667L347.667 74.3333L347.333 73.6667z"/>
<path style="fill:#f6f107; stroke:none;" d="M350 73L351 74L350 73z"/>
<path style="fill:#bd7029; stroke:none;" d="M364 73L364 76L365 76L364 73M371 73L372 74L371 73M408 73L409 74L408 73M90.3333 74.6667L90.6667 75.3333L90.3333 74.6667z"/>
<path style="fill:#f6f107; stroke:none;" d="M120 74L121 75L120 74z"/>
<path style="fill:#bd7029; stroke:none;" d="M127.333 74.6667L127.667 75.3333L127.333 74.6667M130 74L131 75L130 74M144 74L145 75L144 74z"/>
<path style="fill:#f6f107; stroke:none;" d="M151 74L152 75L151 74M161 74L162 75L161 74z"/>
<path style="fill:#bd7029; stroke:none;" d="M168.333 74.6667L168.667 75.3333L168.333 74.6667z"/>
<path style="fill:#f6f107; stroke:none;" d="M188 74L189 75L188 74M202 74L203 75L202 74z"/>
<path style="fill:#bd7029; stroke:none;" d="M209.333 74.6667L209.667 75.3333L209.333 74.6667M227.333 74.6667L227.667 75.3333L227.333 74.6667z"/>
<path style="fill:#fefefe; stroke:none;" d="M229 74L229 77L232 77L232 74L229 74z"/>
<path style="fill:#f6f107; stroke:none;" d="M232.333 74.6667L232.667 75.3333L232.333 74.6667z"/>
<path style="fill:#bd7029; stroke:none;" d="M237.333 74.6667L237.667 75.3333L237.333 74.6667z"/>
<path style="fill:#f6f107; stroke:none;" d="M239 74L240 75L239 74z"/>
<path style="fill:#bd7029; stroke:none;" d="M243 74L243 77L244 77L243 74M245.333 74.6667L245.667 75.3333L245.333 74.6667M253 74L254 75L253 74M308 74L309 75L308 74z"/>
<path style="fill:#f6f107; stroke:none;" d="M336 74L337 75L336 74z"/>
<path style="fill:#bd7029; stroke:none;" d="M350.333 74.6667L350.667 75.3333L350.333 74.6667z"/>
<path style="fill:#447fc1; stroke:none;" d="M355.333 74.6667L355.667 75.3333L355.333 74.6667z"/>
<path style="fill:#bd7029; stroke:none;" d="M368.333 74.6667L368.667 75.3333L368.333 74.6667z"/>
<path style="fill:#f6f107; stroke:none;" d="M371 74L372 75L371 74z"/>
<path style="fill:#bd7029; stroke:none;" d="M390 74L391 75L390 74z"/>
<path style="fill:#f6f107; stroke:none;" d="M408 74L409 75L408 74M80 75L81 76L80 75M84 75L85 76L84 75z"/>
<path style="fill:#bd7029; stroke:none;" d="M96 75L97 76L96 75z"/>
<path style="fill:#f6f107; stroke:none;" d="M100 75L101 76L100 75z"/>
<path style="fill:#bd7029; stroke:none;" d="M116 75L116 78L117 78L116 75M121.333 75.6667L121.667 76.3333L121.333 75.6667M136 75L136 78L137 78L136 75M152.333 75.6667L152.667 76.3333L152.333 75.6667M162.333 75.6667L162.667 76.3333L162.333 75.6667M188 75L189 76L188 75M198 75L199 76L198 75M203.333 75.6667L203.667 76.3333L203.333 75.6667M239 75L240 76L239 75M254 75L255 76L254 75M309 75L310 76L309 75z"/>
<path style="fill:#f6f107; stroke:none;" d="M316 75L317 76L316 75M326 75L327 76L326 75M347 75L348 76L347 75z"/>
<path style="fill:#bd7029; stroke:none;" d="M391 75L392 76L391 75z"/>
<path style="fill:#f6f107; stroke:none;" d="M416 75L417 76L416 75z"/>
<path style="fill:#bd7029; stroke:none;" d="M80.3333 76.6667L80.6667 77.3333L80.3333 76.6667M84.3333 76.6667L84.6667 77.3333L84.3333 76.6667M95 76L96 77L95 76M101 76L102 77L101 76M106 76L107 77L106 76M126 76L127 77L126 76M143 76L144 77L143 76M157 76L158 77L157 76M167 76L168 77L167 76M182.333 76.6667L182.667 77.3333L182.333 76.6667M187 76L188 77L187 76M197 76L198 77L197 76M208 76L209 77L208 76M264.333 76.6667L264.667 77.3333L264.333 76.6667M269 76L270 77L269 76M275 76L276 77L275 76z"/>
<path style="fill:#f6f107; stroke:none;" d="M284 76L285 77L284 76z"/>
<path style="fill:#447fc1; stroke:none;" d="M285 76L285 78L287 78L287 76L285 76z"/>
<path style="fill:#f6f107; stroke:none;" d="M308 76L309 77L308 76z"/>
<path style="fill:#bd7029; stroke:none;" d="M316 76L317 77L316 76M327 76L328 77L327 76M337 76L338 77L337 76M343 76L344 77L343 76M348.333 76.6667L348.667 77.3333L348.333 76.6667M355 76L358 81L355 76M359 76L360 77L359 76M363 76L364 77L363 76M367 76L368 77L367 76M372 76L373 77L372 76M377 76L378 77L377 76z"/>
<path style="fill:#f6f107; stroke:none;" d="M390 76L391 77L390 76M404 76L405 77L404 76z"/>
<path style="fill:#447fc1; stroke:none;" d="M405 76L405 78L407 78L407 76L405 76z"/>
<path style="fill:#bd7029; stroke:none;" d="M409 76L410 77L409 76M417 76L418 77L417 76M422 76L423 77L422 76z"/>
<path style="fill:#f6f107; stroke:none;" d="M91 77L92 78L91 77z"/>
<path style="fill:#bd7029; stroke:none;" d="M102 77L103 78L102 77M122 77L123 78L122 77M153 77L154 78L153 77M163 77L164 78L163 77M204 77L205 78L204 77z"/>
<path style="fill:#f6f107; stroke:none;" d="M227 77L228 78L227 77z"/>
<path style="fill:#bd7029; stroke:none;" d="M238 77L239 78L238 77M249 77L250 78L249 77M276 77L277 78L276 77M280 77L280 80L281 80L280 77M284 77L285 78L284 77M304 77L305 78L304 77z"/>
<path style="fill:#f6f107; stroke:none;" d="M311 77L312 78L311 77z"/>
<path style="fill:#bd7029; stroke:none;" d="M328 77L329 78L328 77M338 77L339 78L338 77z"/>
<path style="fill:#447fc1; stroke:none;" d="M356.333 77.6667L356.667 78.3333L356.333 77.6667z"/>
<path style="fill:#f6f107; stroke:none;" d="M359 77L360 78L359 77z"/>
<path style="fill:#bd7029; stroke:none;" d="M364 77L365 78L364 77M373 77L374 78L373 77M378 77L379 78L378 77M386 77L387 78L386 77M404 77L405 78L404 77M410 77L411 78L410 77M418 77L419 78L418 77z"/>
<path style="fill:#447fc1; stroke:none;" d="M357 79L358 80L357 79M358 80L358 81L365 81L358 80z"/>
<path style="fill:#f6f107; stroke:none;" d="M362 80L363 81L362 80z"/>
<path style="fill:#bd7029; stroke:none;" d="M275 81L276 82L275 81z"/>
<path style="fill:#f6f107; stroke:none;" d="M1010 123L1003 121L1005 136C999.576 133.009 1001 126.471 1001 121L992 122L992 136C983.979 134.857 979.693 125.126 990 126L990 122L907 121L908 123C898.002 123.326 897.714 133.878 908 134L908 136C898.938 135.781 893.83 128.481 902 122L902 121L891 121L891 137L952 139.996L1067 138L1067 125C1069.66 125.515 1073.33 125.154 1075.24 127.448C1079.36 132.382 1073.28 135.702 1069 135C1070.29 141.008 1092.36 137 1098 137C1101.08 137 1104.39 137.799 1106 135C1095.36 135.396 1100.65 126.482 1108 125L1108 137L1112 136L1112 125L1118 125L1114 136L1120 136C1119.64 131.909 1121.01 130.637 1125 130L1125 127L1120 127L1120 125C1126.51 125.496 1126.98 129.179 1127 135L1130 135L1131 125C1138.23 126.373 1145.68 123.282 1146 133L1149 133L1149 125C1156.52 126.258 1164.45 122.933 1165 133L1174 130L1174 127L1168 127L1168 126C1174.45 124.812 1175.93 128.078 1176 134L1180 134L1178 126L1181 122L1185 126L1182 127L1182 134L1187 135L1187 125L1189 125L1189 136C1213.54 139.105 1236.21 140.064 1261 139L1261 136L1257 134L1261 135L1261 131C1256.58 128.512 1258.96 126.487 1261 123L1217 122.866L1163 115.019L1070 121L1024 121L1010 123z"/>
<path style="fill:#447fc1; stroke:none;" d="M855 120C855 124.405 852.849 134.896 858 136L855 120z"/>
<path style="fill:#bd7029; stroke:none;" d="M879 120L879 140L880 140L879 120z"/>
<path style="fill:#447fc1; stroke:none;" d="M880 120L880 140L881 140L880 120z"/>
<path style="fill:#bd7029; stroke:none;" d="M990 120L990 126L991 126L990 120z"/>
<path style="fill:#447fc1; stroke:none;" d="M991.333 120.667L991.667 121.333L991.333 120.667z"/>
<path style="fill:#bd7029; stroke:none;" d="M1001 120L1001 135L1002 135L1001 120z"/>
<path style="fill:#447fc1; stroke:none;" d="M1002 120L1003 121L1002 120z"/>
<path style="fill:#bd7029; stroke:none;" d="M215 121L215 125L216 125L215 121z"/>
<path style="fill:#447fc1; stroke:none;" d="M216 121L216 125L217 125L216 121z"/>
<path style="fill:#bd7029; stroke:none;" d="M668 121L668 136L669 136L668 121z"/>
<path style="fill:#447fc1; stroke:none;" d="M669 121L669 136L670 136L670 125L671 125L674 132L677 132L680 125L681 125L681 136L682 136L682 121L676 130L675 130L669 121z"/>
<path style="fill:#bd7029; stroke:none;" d="M854 121L854 134L855 134L854 121M902.667 121.333L903.333 121.667L902.667 121.333z"/>
<path style="fill:#354929; stroke:none;" d="M908 135L908 134C898.275 134.724 897.174 124.104 907 123C897.104 117.393 893.736 139.048 908 135z"/>
<path style="fill:#447fc1; stroke:none;" d="M905 121L906 122L905 121z"/>
<path style="fill:#bd7029; stroke:none;" d="M906 121L907 122L906 121z"/>
<path style="fill:#354929; stroke:none;" d="M1002 121C1002 125.306 999.938 134.915 1005 136L1002 121z"/>
<path style="fill:#bd7029; stroke:none;" d="M1007.33 121.667L1007.67 122.333L1007.33 121.667z"/>
<path style="fill:#354929; stroke:none;" d="M1008.33 121.667L1008.67 122.333L1008.33 121.667z"/>
<path style="fill:#bd7029; stroke:none;" d="M1187.33 121.667L1187.67 122.333L1187.33 121.667z"/>
<path style="fill:#354929; stroke:none;" d="M1188.33 121.667L1188.67 122.333L1188.33 121.667z"/>
<path style="fill:#bd7029; stroke:none;" d="M82 122L82 123L87 123L82 122z"/>
<path style="fill:#447fc1; stroke:none;" d="M87 122L88 123L87 122z"/>
<path style="fill:#bd7029; stroke:none;" d="M97.6667 122.333L98.3333 122.667L97.6667 122.333z"/>
<path style="fill:#447fc1; stroke:none;" d="M99 122L99 137L100 137L99 122z"/>
<path style="fill:#bd7029; stroke:none;" d="M105 122L106 123L105 122z"/>
<path style="fill:#354929; stroke:none;" d="M110 132L110 134L103 135L103 137C112.545 136.914 114.16 130.679 105 127L105 125L112 125C107.257 118.316 99.061 127.656 110 132z"/>
<path style="fill:#447fc1; stroke:none;" d="M110 122L111 123L110 122z"/>
<path style="fill:#bd7029; stroke:none;" d="M116.667 122.333L117.333 122.667L116.667 122.333z"/>
<path style="fill:#447fc1; stroke:none;" d="M118 122L119 129L120 129L118 122z"/>
<path style="fill:#bd7029; stroke:none;" d="M125.667 122.333L126.333 122.667L125.667 122.333z"/>
<path style="fill:#447fc1; stroke:none;" d="M127 122L127 137L128 137L127 122z"/>
<path style="fill:#bd7029; stroke:none;" d="M131 122L131 123L137 123L131 122z"/>
<path style="fill:#447fc1; stroke:none;" d="M137 122L138 123L137 122z"/>
<path style="fill:#bd7029; stroke:none;" d="M177 122L177 137L178 137L178 123L186 123L177 122z"/>
<path style="fill:#447fc1; stroke:none;" d="M186 122L186 125L187 125L186 122z"/>
<path style="fill:#354929; stroke:none;" d="M215 122L215 124L217 124L217 122L215 122z"/>
<path style="fill:#bd7029; stroke:none;" d="M679 122L680 123L679 122z"/>
<path style="fill:#447fc1; stroke:none;" d="M787 122L785 126C787.398 130.31 786.332 135.054 792 136L792 135L788 127L792 127L792 126L787 122M907 122L908 123L907 122z"/>
<path style="fill:#354929; stroke:none;" d="M991 122L991 126C980.644 124.084 981.969 135.354 992 136L991 122z"/>
<path style="fill:#bd7029; stroke:none;" d="M1009 122L1010 123L1009 122M1180 122L1181 123L1180 122M1189 122L1190 123L1189 122z"/>
<path style="fill:#f6f107; stroke:none;" d="M81 123L81 137L82 137L81 123z"/>
<path style="fill:#354929; stroke:none;" d="M82 123L82 137C95.8041 136.875 95.9747 123.04 82 123z"/>
<path style="fill:#447fc1; stroke:none;" d="M90 123L91 124L90 123z"/>
<path style="fill:#354929; stroke:none;" d="M97 123L97 137L99 137L99 123L97 123z"/>
<path style="fill:#f6f107; stroke:none;" d="M115 123L115 137L116 137L115 123z"/>
<path style="fill:#354929; stroke:none;" d="M116 123L116 137L118 137L118 131L125 131L125 137L127 137L127 123L125 123L125 129C120.606 128.665 118.709 127.444 118 123L116 123z"/>
<path style="fill:#f6f107; stroke:none;" d="M124 123L124 128L125 128L124 123z"/>
<path style="fill:#354929; stroke:none;" d="M131 123L131 137C145.198 136.872 145.51 123.011 131 123z"/>
<path style="fill:#bd7029; stroke:none;" d="M158.667 123.333L159.333 123.667L158.667 123.333z"/>
<path style="fill:#447fc1; stroke:none;" d="M160 123L160 126L161 126L160 123z"/>
<path style="fill:#354929; stroke:none;" d="M178 123L178 137L186 137L186 135L180 135L180 131L185 131L185 129L180 129L180 125L186 125L186 123L178 123M1180 123L1178 126L1178 127L1180 134L1181 134L1181 127L1185 127L1185 126L1180 123z"/>
<path style="fill:#447fc1; stroke:none;" d="M1181.33 123.667L1181.67 124.333L1181.33 123.667M107 124L108 125L107 124z"/>
<path style="fill:#bd7029; stroke:none;" d="M108.667 124.333L109.333 124.667L108.667 124.333z"/>
<path style="fill:#354929; stroke:none;" d="M158 124L156 127L156 128C158.883 131.799 157.389 136.064 163 137C160.791 132.356 160.791 130.644 163 126L158 124z"/>
<path style="fill:#bd7029; stroke:none;" d="M678 124L679 125L678 124M786 124L787 125L786 124M898 124L899 125L898 124z"/>
<path style="fill:#447fc1; stroke:none;" d="M900 124L901 125L900 124M84 125L84 134L85 134L84 125z"/>
<path style="fill:#fefefe; stroke:none;" d="M85 125L85 135C90.6657 132.917 91.7708 126.13 85 125z"/>
<path style="fill:#447fc1; stroke:none;" d="M92 125L93 126L92 125z"/>
<path style="fill:#f6f107; stroke:none;" d="M102 125L103 126L102 125z"/>
<path style="fill:#447fc1; stroke:none;" d="M105.333 125.667L105.667 126.333L105.333 125.667z"/>
<path style="fill:#fefefe; stroke:none;" d="M134 125L135 135C140.432 132.141 140.548 126.083 134 125z"/>
<path style="fill:#bd7029; stroke:none;" d="M138 125L139 126L138 125M680 125L680 136L681 136L680 125z"/>
<path style="fill:#447fc1; stroke:none;" d="M686 126L686 127L692 127L692 130C682.391 130.734 687.271 135.503 694 136C693.995 129.89 693.673 123.974 686 126M697 125L697 136L699 136L699 127L704 127L704 136L706 136C705.999 127.454 705.423 125.971 697 125z"/>
<path style="fill:#bd7029; stroke:none;" d="M700 125L701 126L700 125M710 125L709 127L710 125z"/>
<path style="fill:#447fc1; stroke:none;" d="M710 126L710 127L715 127L715 130C706.319 130.676 710.677 135.592 717 136C716.999 130.228 717.569 123.985 710 126M727 135L721 139L721 140C730.698 141.442 729 131.91 729 125C719.613 125.605 717.436 136.806 727 135M741 134L734 131L741 131C740.144 125.631 733.719 123.199 732.542 130.015C731.642 135.233 737.875 137.572 741 134M744 125L744 136L746 136L746 127C750.703 128.428 750.946 131.461 751 136L752 136C752.054 131.461 752.298 128.428 757 127L757 136L759 136C758.999 124.047 754.478 125.629 744 125z"/>
<path style="fill:#bd7029; stroke:none;" d="M764 125L765 126L764 125z"/>
<path style="fill:#447fc1; stroke:none;" d="M771 135L771 134C767.525 134.264 765.824 134.048 764 131L771 131C768.557 115.686 753.845 139.872 771 135M774 125L774 136L776 136L776 127L781 127L781 136L783 136C782.994 127.557 782.27 125.956 774 125z"/>
<path style="fill:#bd7029; stroke:none;" d="M777 125L778 126L777 125M785 125L786 126L785 125z"/>
<path style="fill:#447fc1; stroke:none;" d="M807 135L807 134C801.197 133.891 800.379 128.712 806 127L806 125C796.939 126.034 797.868 137.425 807 135M811.279 126.047C806.044 129.109 810.254 138.287 815.683 134.953C820.366 132.077 816.766 122.838 811.279 126.047M821 125L821 136L823 136L823 127L828 127L828 136L830 136C829.999 127.454 829.423 125.971 821 125z"/>
<path style="fill:#bd7029; stroke:none;" d="M824 125L825 126L824 125z"/>
<path style="fill:#447fc1; stroke:none;" d="M838 135L833 134C834.532 135.744 839.33 136.9 839.365 133.061C839.385 130.863 836.27 128.571 835 127L839 127L839 125C830.304 125.678 835.507 130.444 838 135z"/>
<path style="fill:#bd7029; stroke:none;" d="M844 125L845 126L844 125z"/>
<path style="fill:#447fc1; stroke:none;" d="M845.228 125.801C839.618 127.842 842.783 137.805 848.775 135.377C854.277 133.149 850.947 123.719 845.228 125.801M869 134L862 131L869 131C868.144 125.631 861.719 123.199 860.542 130.015C859.642 135.233 865.875 137.572 869 134z"/>
<path style="fill:#bd7029; stroke:none;" d="M912 125L913 126L912 125z"/>
<path style="fill:#354929; stroke:none;" d="M913.224 125.851C908.112 127.581 910.273 137.276 915.867 135.338C921.004 133.558 918.943 123.916 913.224 125.851z"/>
<path style="fill:#447fc1; stroke:none;" d="M916 125L917 126L916 125z"/>
<path style="fill:#bd7029; stroke:none;" d="M923 125L922 136L923 136L923 125M926 125L927 126L926 125z"/>
<path style="fill:#354929; stroke:none;" d="M923 126L923 136L924 136L924 127L930 127L930 136C932.94 128.994 930.142 125.179 923 126z"/>
<path style="fill:#bd7029; stroke:none;" d="M933 125L934 126L933 125z"/>
<path style="fill:#354929; stroke:none;" d="M932 126L932 127C936.702 128.428 936.946 131.461 937 136C939.039 131.14 938.116 125.47 932 126z"/>
<path style="fill:#447fc1; stroke:none;" d="M936 125L937 126L936 125z"/>
<path style="fill:#bd7029; stroke:none;" d="M941 125L941 136L942 136L943 125L941 125M945 125L946 126L945 125z"/>
<path style="fill:#354929; stroke:none;" d="M942 126L942 136L943 136L943 127L948 127L948 136L950 136L950 127L955 127L955 136L956 136L955 125L942 126z"/>
<path style="fill:#bd7029; stroke:none;" d="M948 125L949 126L948 125M951.667 125.333L952.333 125.667L951.667 125.333M955 125L956 126L955 125M961 125L960 127L961 125z"/>
<path style="fill:#354929; stroke:none;" d="M961 126L961 127L966 127L966 130C957.319 130.676 961.677 135.592 968 136C967.996 130.506 968.128 124.412 961 126z"/>
<path style="fill:#bd7029; stroke:none;" d="M971 125L972 126L971 125M975 125L976 126L975 125z"/>
<path style="fill:#354929; stroke:none;" d="M971 126L971 136L973 136L973 127C978.406 127.862 978.941 130.994 979 136C982.31 128.111 978.254 125.493 971 126z"/>
<path style="fill:#447fc1; stroke:none;" d="M978 125L979 126L978 125z"/>
<path style="fill:#bd7029; stroke:none;" d="M985 125L986 126L985 125M1007 125L1007 136L1008 136L1009 125L1007 125M1013 125L1012 136L1013 136L1013 125M1016 125L1017 126L1016 125z"/>
<path style="fill:#354929; stroke:none;" d="M1013 126L1013 136L1014 136C1014.06 130.994 1014.59 127.862 1020 127L1020 136C1022.94 128.994 1020.14 125.179 1013 126z"/>
<path style="fill:#bd7029; stroke:none;" d="M1027 125L1028 126L1027 125z"/>
<path style="fill:#354929; stroke:none;" d="M1033 136L1033 135L1026 131L1033 131C1031.05 118.81 1017.66 135.5 1033 136z"/>
<path style="fill:#bd7029; stroke:none;" d="M1031 125L1032 126L1031 125M1044 125L1045 126L1044 125z"/>
<path style="fill:#354929; stroke:none;" d="M1045.12 125.89C1039.32 127.462 1041.92 137.354 1047.78 135.199C1052.73 133.377 1050.33 124.478 1045.12 125.89z"/>
<path style="fill:#bd7029; stroke:none;" d="M1054 125L1055 126L1054 125M1058.67 125.333L1059.33 125.667L1058.67 125.333M1067 125L1068 126L1067 125M1070 125L1071 126L1070 125z"/>
<path style="fill:#354929; stroke:none;" d="M1067 126L1067 138L1069 135C1078.17 137.042 1077.95 124.744 1067 126z"/>
<path style="fill:#bd7029; stroke:none;" d="M1080 125L1079 136L1080 136L1080 126L1083 128L1080 125M1083.67 125.333L1084.33 125.667L1083.67 125.333M1089 125L1090 126L1089 125z"/>
<path style="fill:#354929; stroke:none;" d="M1090.22 125.851C1085.11 127.581 1087.27 137.276 1092.87 135.338C1098 133.559 1095.94 123.916 1090.22 125.851z"/>
<path style="fill:#447fc1; stroke:none;" d="M1093 125L1094 126L1093 125z"/>
<path style="fill:#bd7029; stroke:none;" d="M1101 125L1099 130L1100 130L1101 125z"/>
<path style="fill:#354929; stroke:none;" d="M1107 137L1108 137L1108 126C1095.99 124.154 1101.03 133.064 1107 137z"/>
<path style="fill:#bd7029; stroke:none;" d="M1107 125L1108 126L1107 125M1112 125L1113 126L1112 125M1116.67 125.333L1117.33 125.667L1116.67 125.333M1120.67 125.333L1121.33 125.667L1120.67 125.333z"/>
<path style="fill:#354929; stroke:none;" d="M1120 126L1120 127L1126 127L1126 130C1121.01 130.381 1117.22 134.818 1124 136L1124 135L1121 135L1121 131L1126 131L1125 135C1130.02 130.616 1125.89 124.908 1120 126z"/>
<path style="fill:#bd7029; stroke:none;" d="M1125 125L1126 126L1125 125M1131 125L1130 136L1131 136L1131 125M1134 125L1135 126L1134 125z"/>
<path style="fill:#354929; stroke:none;" d="M1131 126L1131 135L1132 135L1132 127L1138 127L1138 134C1140.77 127.379 1137.06 125.303 1131 126z"/>
<path style="fill:#bd7029; stroke:none;" d="M1141 125L1142 126L1141 125z"/>
<path style="fill:#354929; stroke:none;" d="M1140 126L1140 127C1143.49 128.057 1144.43 129.418 1145 133C1146.79 128.554 1144.73 125.59 1140 126z"/>
<path style="fill:#447fc1; stroke:none;" d="M1144 125L1145 126L1144 125z"/>
<path style="fill:#bd7029; stroke:none;" d="M1149 125L1149 133L1150 133L1151 125L1149 125M1153 125L1154 126L1153 125z"/>
<path style="fill:#354929; stroke:none;" d="M1150 126L1150 133L1151 133L1151 127L1156 127L1156 132L1158 132L1158 127L1163 127L1163 132L1164 132L1163 125L1150 126z"/>
<path style="fill:#bd7029; stroke:none;" d="M1156 125L1157 126L1156 125M1159.67 125.333L1160.33 125.667L1159.67 125.333M1163 125L1164 126L1163 125M1169 125L1168 127L1169 125z"/>
<path style="fill:#354929; stroke:none;" d="M1169 126L1169 127L1174 127L1174 130L1168 133L1175 134C1177.12 128.889 1174.6 124.752 1169 126z"/>
<path style="fill:#bd7029; stroke:none;" d="M1179 125L1180 126L1179 125M1182 125L1182 126L1185 126L1182 125M1187 125L1187 136L1188 136L1189 125L1187 125M1195 125L1196 126L1195 125z"/>
<path style="fill:#354929; stroke:none;" d="M1199 136L1199 135C1193.76 133.072 1193.42 128.695 1199 127C1192.76 123.202 1190.2 134.608 1199 136z"/>
<path style="fill:#447fc1; stroke:none;" d="M1198 125L1199 126L1198 125z"/>
<path style="fill:#bd7029; stroke:none;" d="M1209 125L1210 126L1209 125z"/>
<path style="fill:#354929; stroke:none;" d="M1208 126L1208 127L1214 127L1214 130C1209.13 130.377 1205.87 134.095 1212 136L1212 135L1209 135L1209 131L1214 131L1214 136C1216.42 130.238 1214.9 124.719 1208 126z"/>
<path style="fill:#447fc1; stroke:none;" d="M1213 125L1214 126L1213 125z"/>
<path style="fill:#bd7029; stroke:none;" d="M1221 125L1222 126L1221 125z"/>
<path style="fill:#354929; stroke:none;" d="M1226 136L1226 135C1220.04 133.269 1219.39 128.054 1226 127C1219.37 122.47 1215.86 135.227 1226 136z"/>
<path style="fill:#bd7029; stroke:none;" d="M1230.67 125.333L1231.33 125.667L1230.67 125.333z"/>
<path style="fill:#354929; stroke:none;" d="M1235 136L1235 135C1229.16 133.3 1228.54 128.056 1235 127C1228.38 122.784 1225.01 135.238 1235 136z"/>
<path style="fill:#bd7029; stroke:none;" d="M1234 125L1235 126L1234 125M1240 125L1243 127L1243 126L1240 125z"/>
<path style="fill:#354929; stroke:none;" d="M1241 125L1241 126L1245 130L1239 130L1241 127L1241 126C1234.38 130.064 1238.82 135.658 1245 136L1245 135L1239 131L1246 131L1241 125z"/>
<path style="fill:#bd7029; stroke:none;" d="M1249 125L1248 127L1249 125z"/>
<path style="fill:#354929; stroke:none;" d="M1254 132L1254 134L1248 135L1248 136C1254.34 135.792 1256.38 132.034 1250 129L1250 127L1254 127C1250.45 123.158 1247.18 129.596 1254 132z"/>
<path style="fill:#bd7029; stroke:none;" d="M1259 125L1261 127L1259 125z"/>
<path style="fill:#354929; stroke:none;" d="M1260 125L1261 126L1260 125z"/>
<path style="fill:#447fc1; stroke:none;" d="M1261 125L1264 127L1261 125z"/>
<path style="fill:#bd7029; stroke:none;" d="M102 126L103 127L102 126M139 126L140 127L139 126z"/>
<path style="fill:#447fc1; stroke:none;" d="M142.333 126.667L142.667 127.333L142.333 126.667z"/>
<path style="fill:#bd7029; stroke:none;" d="M147 126L148 127L147 126z"/>
<path style="fill:#354929; stroke:none;" d="M146 127L146 128L152 128L152 131C143.202 131.686 147.826 136.523 154 137C153.995 130.662 153.714 125.408 146 127z"/>
<path style="fill:#447fc1; stroke:none;" d="M152 126L153 127L152 126z"/>
<path style="fill:#bd7029; stroke:none;" d="M157 126L158 127L157 126z"/>
<path style="fill:#447fc1; stroke:none;" d="M163 126L163 129L164 129L163 126z"/>
<path style="fill:#bd7029; stroke:none;" d="M166 126L165 128L166 126z"/>
<path style="fill:#354929; stroke:none;" d="M166 127L166 128L172 131C162.521 131.724 167.112 136.566 174 137C173.995 130.89 173.673 124.974 166 127z"/>
<path style="fill:#447fc1; stroke:none;" d="M172 126L173 127L172 126z"/>
<path style="fill:#bd7029; stroke:none;" d="M189 126L190 127L189 126z"/>
<path style="fill:#354929; stroke:none;" d="M190 126L189 137L192 137L192 128L196 128L196 137L199 137C198.977 129.131 197.804 126.967 190 126z"/>
<path style="fill:#447fc1; stroke:none;" d="M191 126L192 127L191 126z"/>
<path style="fill:#bd7029; stroke:none;" d="M193 126L194 127L193 126z"/>
<path style="fill:#447fc1; stroke:none;" d="M197 126L198 127L197 126z"/>
<path style="fill:#354929; stroke:none;" d="M209 136L203 139L203 141C212.403 140.694 211 133.485 211 126C208.736 126.28 205.37 125.942 203.604 127.639C198.89 132.17 204.595 136.335 209 136z"/>
<path style="fill:#447fc1; stroke:none;" d="M207 126L208 127L207 126z"/>
<path style="fill:#bd7029; stroke:none;" d="M209 126L210 127L209 126z"/>
<path style="fill:#447fc1; stroke:none;" d="M211 126L211 138L212 138L211 126z"/>
<path style="fill:#f6f107; stroke:none;" d="M214 126L215 127L214 126z"/>
<path style="fill:#354929; stroke:none;" d="M215 126L215 137L217 137L217 126L215 126z"/>
<path style="fill:#447fc1; stroke:none;" d="M217 126L217 137L218 137L217 126z"/>
<path style="fill:#bd7029; stroke:none;" d="M221 126L222 127L221 126z"/>
<path style="fill:#354929; stroke:none;" d="M222 126L221 137L223 137C223.054 132.461 223.298 129.428 228 128L228 137L230 137C229.999 129.306 229.919 126.982 222 126z"/>
<path style="fill:#bd7029; stroke:none;" d="M225 126L226 127L225 126z"/>
<path style="fill:#447fc1; stroke:none;" d="M229 126L230 127L229 126z"/>
<path style="fill:#f6f107; stroke:none;" d="M235 126L236 127L235 126z"/>
<path style="fill:#354929; stroke:none;" d="M242 137L242 135L236 135L236 132L242 132C240.013 119.543 225.747 136.471 242 137z"/>
<path style="fill:#447fc1; stroke:none;" d="M240 126L241 127L240 126z"/>
<path style="fill:#bd7029; stroke:none;" d="M247 126L248 127L247 126z"/>
<path style="fill:#354929; stroke:none;" d="M253 137L253 135L247 132L254 132C251.27 119.213 237.389 136.492 253 137z"/>
<path style="fill:#447fc1; stroke:none;" d="M251 126L252 127L251 126z"/>
<path style="fill:#bd7029; stroke:none;" d="M256 126L256 137L257 137L256 126z"/>
<path style="fill:#354929; stroke:none;" d="M257 126L257 137L259 137L259 129L263 126L257 126z"/>
<path style="fill:#447fc1; stroke:none;" d="M258 126L259 127L258 126z"/>
<path style="fill:#bd7029; stroke:none;" d="M261 126L262 127L261 126M671 126L672 127L671 126M677 126L678 127L677 126M733 126L734 127L733 126M743 126L743 136L744 136L743 126M773 126L773 136L774 136L773 126M784 126L785 127L784 126M809 126L810 127L809 126M861 126L862 127L861 126M897 126L897 131L898 131L897 126z"/>
<path style="fill:#447fc1; stroke:none;" d="M899 126L899 131L900 131L899 126z"/>
<path style="fill:#bd7029; stroke:none;" d="M931 126L932 127L931 126z"/>
<path style="fill:#447fc1; stroke:none;" d="M937 126L938 127L937 126z"/>
<path style="fill:#bd7029; stroke:none;" d="M967 126L968 127L967 126z"/>
<path style="fill:#354929; stroke:none;" d="M1008 126L1008 136L1009 136L1008 126z"/>
<path style="fill:#447fc1; stroke:none;" d="M1028 126L1029 127L1028 126z"/>
<path style="fill:#bd7029; stroke:none;" d="M1029 126L1030 127L1029 126z"/>
<path style="fill:#447fc1; stroke:none;" d="M1032 126L1033 127L1032 126z"/>
<path style="fill:#bd7029; stroke:none;" d="M1042 126L1043 127L1042 126z"/>
<path style="fill:#447fc1; stroke:none;" d="M1049 126L1050 127L1049 126z"/>
<path style="fill:#354929; stroke:none;" d="M1054 126L1054 136L1055 136L1054 126z"/>
<path style="fill:#447fc1; stroke:none;" d="M1055 126L1057 128L1055 126z"/>
<path style="fill:#bd7029; stroke:none;" d="M1056 126L1057 127L1056 126z"/>
<path style="fill:#354929; stroke:none;" d="M1057.67 126.333L1058.33 126.667L1057.67 126.333z"/>
<path style="fill:#447fc1; stroke:none;" d="M1059 126L1060 127L1059 126M1075 126L1076 127L1075 126z"/>
<path style="fill:#354929; stroke:none;" d="M1080 126L1080 136L1081 136L1080 126M1082 126L1082 127L1085 127L1082 126z"/>
<path style="fill:#447fc1; stroke:none;" d="M1085 126L1086 127L1085 126M1108 126L1108 136L1109 136L1108 126z"/>
<path style="fill:#354929; stroke:none;" d="M1112 126L1112 136L1113 136L1112 126z"/>
<path style="fill:#447fc1; stroke:none;" d="M1113 126L1115 128L1113 126z"/>
<path style="fill:#bd7029; stroke:none;" d="M1114 126L1115 127L1114 126z"/>
<path style="fill:#354929; stroke:none;" d="M1115.67 126.333L1116.33 126.667L1115.67 126.333z"/>
<path style="fill:#447fc1; stroke:none;" d="M1117 126L1118 127L1117 126z"/>
<path style="fill:#bd7029; stroke:none;" d="M1139 126L1140 127L1139 126z"/>
<path style="fill:#447fc1; stroke:none;" d="M1145 126L1146 127L1145 126z"/>
<path style="fill:#bd7029; stroke:none;" d="M1175 126L1176 127L1175 126z"/>
<path style="fill:#354929; stroke:none;" d="M1188 126L1188 136L1189 136L1188 126z"/>
<path style="fill:#bd7029; stroke:none;" d="M1193 126L1194 127L1193 126z"/>
<path style="fill:#447fc1; stroke:none;" d="M1199 126L1200 127L1199 126z"/>
<path style="fill:#bd7029; stroke:none;" d="M1238 126L1239 127L1238 126M1251.67 126.333L1252.33 126.667L1251.67 126.333z"/>
<path style="fill:#447fc1; stroke:none;" d="M1254 126L1255 127L1254 126z"/>
<path style="fill:#bd7029; stroke:none;" d="M1257 126L1258 131L1259 131L1257 126z"/>
<path style="fill:#354929; stroke:none;" d="M1258 126L1261 131L1260 126L1258 126z"/>
<path style="fill:#bd7029; stroke:none;" d="M90 127L90 133L91 133L90 127z"/>
<path style="fill:#447fc1; stroke:none;" d="M93 127L93 132L94 132L93 127z"/>
<path style="fill:#f6f107; stroke:none;" d="M102 127L103 128L102 127z"/>
<path style="fill:#447fc1; stroke:none;" d="M106 127L107 128L106 127z"/>
<path style="fill:#f6f107; stroke:none;" d="M139.333 127.667L139.667 128.333L139.333 127.667z"/>
<path style="fill:#447fc1; stroke:none;" d="M153 127L154 128L153 127M173 127L174 128L173 127M198.333 127.667L198.667 128.333L198.333 127.667z"/>
<path style="fill:#f6f107; stroke:none;" d="M202 127L203 128L202 127z"/>
<path style="fill:#bd7029; stroke:none;" d="M214 127L214 137L215 137L214 127z"/>
<path style="fill:#447fc1; stroke:none;" d="M230 127L230 137L231 137L230 127z"/>
<path style="fill:#bd7029; stroke:none;" d="M234 127L235 128L234 127z"/>
<path style="fill:#447fc1; stroke:none;" d="M241 127L242 128L241 127z"/>
<path style="fill:#bd7029; stroke:none;" d="M259 127L260 128L259 127M691 127L692 128L691 127M703 127L704 128L703 127M720 127L721 128L720 127z"/>
<path style="fill:#fefefe; stroke:none;" d="M727 134L727 127C721.286 127.954 721.286 133.046 727 134M734 130L739 130L739 127L734 130z"/>
<path style="fill:#bd7029; stroke:none;" d="M762 127L763 128L762 127z"/>
<path style="fill:#fefefe; stroke:none;" d="M764 127L764 130L769 130L764 127z"/>
<path style="fill:#bd7029; stroke:none;" d="M768 127L769 128L768 127M780 127L781 128L780 127M786 127L786 135L787 135L786 127M799 127L800 128L799 127z"/>
<path style="fill:#fefefe; stroke:none;" d="M811.728 128.086C809.115 130.018 811.478 135.667 814.411 133.249C816.822 131.262 814.768 125.84 811.728 128.086z"/>
<path style="fill:#bd7029; stroke:none;" d="M815 127L816 128L815 127M827 127L828 128L827 127M842 127L843 128L842 127z"/>
<path style="fill:#fefefe; stroke:none;" d="M848 135C853.558 122.882 837.826 130.91 848 135M862 130L867 130L867 127L862 130z"/>
<path style="fill:#bd7029; stroke:none;" d="M910 127L911 128L910 127z"/>
<path style="fill:#447fc1; stroke:none;" d="M912 127L913 128L912 127z"/>
<path style="fill:#f6f107; stroke:none;" d="M916 135C921.558 122.882 905.826 130.91 916 135z"/>
<path style="fill:#447fc1; stroke:none;" d="M924 127L924 136L925 136L924 127z"/>
<path style="fill:#bd7029; stroke:none;" d="M929 127L929 136L930 136L929 127z"/>
<path style="fill:#447fc1; stroke:none;" d="M931 127L932 128L931 127z"/>
<path style="fill:#bd7029; stroke:none;" d="M943 127L944 128L943 127M954 127L955 128L954 127z"/>
<path style="fill:#447fc1; stroke:none;" d="M956 127L956 136L957 136L956 127z"/>
<path style="fill:#bd7029; stroke:none;" d="M973 127L974 128L973 127M983 127L984 128L983 127z"/>
<path style="fill:#447fc1; stroke:none;" d="M985 127L986 128L985 127z"/>
<path style="fill:#f6f107; stroke:none;" d="M990 127C980.796 128.536 989.849 139.648 990 127z"/>
<path style="fill:#bd7029; stroke:none;" d="M990 127L990 134L991 134L990 127M1019 127L1020 128L1019 127z"/>
<path style="fill:#447fc1; stroke:none;" d="M1021 127L1021 136L1022 136L1021 127z"/>
<path style="fill:#bd7029; stroke:none;" d="M1025 127L1026 128L1025 127z"/>
<path style="fill:#f6f107; stroke:none;" d="M1027 127L1027 130L1032 130L1027 127z"/>
<path style="fill:#bd7029; stroke:none;" d="M1031 127L1032 128L1031 127z"/>
<path style="fill:#f6f107; stroke:none;" d="M1044.59 128.086C1041.94 130.001 1044.51 135.636 1047.41 133.249C1049.9 131.2 1047.7 125.844 1044.59 128.086z"/>
<path style="fill:#bd7029; stroke:none;" d="M1048 127L1049 128L1048 127z"/>
<path style="fill:#f6f107; stroke:none;" d="M1069 127C1069.16 140.053 1079.4 127.83 1069 127z"/>
<path style="fill:#bd7029; stroke:none;" d="M1087 127L1088 128L1087 127z"/>
<path style="fill:#447fc1; stroke:none;" d="M1089 127L1090 128L1089 127z"/>
<path style="fill:#f6f107; stroke:none;" d="M1093 135C1098.56 122.882 1082.83 130.91 1093 135M1106 134L1106 127C1100.29 127.954 1100.29 133.046 1106 134z"/>
<path style="fill:#bd7029; stroke:none;" d="M1106 127L1106 134L1107 134L1106 127M1125 127L1125 130L1126 130L1125 127z"/>
<path style="fill:#447fc1; stroke:none;" d="M1132 127L1131 136C1133.64 133.693 1133.3 130.089 1132 127z"/>
<path style="fill:#f6f107; stroke:none;" d="M1133 127L1133 135C1136.94 133.416 1136.95 130.986 1137 127L1133 127z"/>
<path style="fill:#bd7029; stroke:none;" d="M1137 127L1137 136L1138 136L1137 127z"/>
<path style="fill:#447fc1; stroke:none;" d="M1139 127L1140 128L1139 127z"/>
<path style="fill:#f6f107; stroke:none;" d="M1139 134L1144 133L1144 127C1139.64 127.728 1139.14 129.824 1139 134z"/>
<path style="fill:#bd7029; stroke:none;" d="M1151 127L1152 128L1151 127z"/>
<path style="fill:#f6f107; stroke:none;" d="M1151 133L1156 132L1156 127C1152.09 127.652 1151.3 129.136 1151 133M1158 127L1158 132L1163 132C1162.42 128.526 1161.47 127.576 1158 127z"/>
<path style="fill:#bd7029; stroke:none;" d="M1162 127L1163 128L1162 127z"/>
<path style="fill:#447fc1; stroke:none;" d="M1164 127L1163 136L1165 136L1164 127M1181 127L1180 135L1185 136L1185 135L1181 127z"/>
<path style="fill:#bd7029; stroke:none;" d="M1213 127L1214 128L1213 127M1215 127L1216 128L1215 127M1228 127L1229 128L1228 127z"/>
<path style="fill:#447fc1; stroke:none;" d="M1230 127L1231 128L1230 127M1239 127L1240 128L1239 127z"/>
<path style="fill:#f6f107; stroke:none;" d="M1239 130L1244 130L1244 127L1239 130z"/>
<path style="fill:#447fc1; stroke:none;" d="M1245 127L1246 128L1245 127z"/>
<path style="fill:#f6f107; stroke:none;" d="M1259 127L1261 130L1261 127L1259 127z"/>
<path style="fill:#bd7029; stroke:none;" d="M103 128L104 129L103 128z"/>
<path style="fill:#447fc1; stroke:none;" d="M108 128L109 129L108 128z"/>
<path style="fill:#bd7029; stroke:none;" d="M120 128L120 129L125 129L120 128z"/>
<path style="fill:#447fc1; stroke:none;" d="M146.667 128.333L147.333 128.667L146.667 128.333z"/>
<path style="fill:#bd7029; stroke:none;" d="M151 128L151 131L152 131L151 128M156.667 128.333L157.333 128.667L156.667 128.333M161.667 128.333L162.333 128.667L161.667 128.333z"/>
<path style="fill:#f6f107; stroke:none;" d="M165 128L166 129L165 128z"/>
<path style="fill:#447fc1; stroke:none;" d="M166 128L167 129L166 128z"/>
<path style="fill:#f6f107; stroke:none;" d="M170 128L171 129L170 128z"/>
<path style="fill:#447fc1; stroke:none;" d="M180 128L181 129L180 128z"/>
<path style="fill:#bd7029; stroke:none;" d="M181 128L181 129L185 129L181 128z"/>
<path style="fill:#447fc1; stroke:none;" d="M192 128L193 129L192 128z"/>
<path style="fill:#bd7029; stroke:none;" d="M195 128L196 129L195 128z"/>
<path style="fill:#447fc1; stroke:none;" d="M205 128L205 135L206 135L205 128z"/>
<path style="fill:#fefefe; stroke:none;" d="M206 128L205 134L208 134L208 128L206 128z"/>
<path style="fill:#bd7029; stroke:none;" d="M208 128L208 134L209 134L208 128z"/>
<path style="fill:#447fc1; stroke:none;" d="M224 128L225 129L224 128z"/>
<path style="fill:#bd7029; stroke:none;" d="M227 128L228 129L227 128z"/>
<path style="fill:#f6f107; stroke:none;" d="M233 128L234 129L233 128z"/>
<path style="fill:#447fc1; stroke:none;" d="M236 128L237 129L236 128z"/>
<path style="fill:#fefefe; stroke:none;" d="M236 129L236 130L240 130L236 129z"/>
<path style="fill:#bd7029; stroke:none;" d="M239 128L240 129L239 128M245 128L246 129L245 128z"/>
<path style="fill:#fefefe; stroke:none;" d="M248 128L248 130L251 130L251 128L248 128z"/>
<path style="fill:#447fc1; stroke:none;" d="M253 128L254 129L253 128z"/>
<path style="fill:#bd7029; stroke:none;" d="M672 128L673 129L672 128M676 128L677 129L676 128M732 128L733 129L732 128M739.333 128.667L739.667 129.333L739.333 128.667M750 128L750 136L751 136L750 128M808.333 128.667L808.667 129.333L808.333 128.667M849 128L850 129L849 128M860 128L861 129L860 128M867.333 128.667L867.667 129.333L867.333 128.667M917 128L918 129L917 128M936 128L936 136L937 136L936 128M978 128L978 136L979 136L978 128z"/>
<path style="fill:#447fc1; stroke:none;" d="M1014 128L1014 136L1015 136L1014 128M1026 128L1027 129L1026 128z"/>
<path style="fill:#bd7029; stroke:none;" d="M1033 128L1034 129L1033 128M1041.33 128.667L1041.67 129.333L1041.33 128.667z"/>
<path style="fill:#447fc1; stroke:none;" d="M1050 128L1051 129L1050 128M1055 128L1055 136L1056 136L1055 128z"/>
<path style="fill:#bd7029; stroke:none;" d="M1074 128L1075 129L1074 128z"/>
<path style="fill:#447fc1; stroke:none;" d="M1076.33 128.667L1076.67 129.333L1076.33 128.667M1081 128L1081 136L1082 136L1081 128z"/>
<path style="fill:#bd7029; stroke:none;" d="M1094 128L1095 129L1094 128z"/>
<path style="fill:#447fc1; stroke:none;" d="M1113 128L1113 136L1114 136L1113 128z"/>
<path style="fill:#bd7029; stroke:none;" d="M1144 128L1144 133L1145 133L1144 128M1192.33 128.667L1192.67 129.333L1192.33 128.667z"/>
<path style="fill:#447fc1; stroke:none;" d="M1215 128L1215 136L1216 136L1215 128z"/>
<path style="fill:#bd7029; stroke:none;" d="M1218 128L1218 133L1219 133L1218 128z"/>
<path style="fill:#447fc1; stroke:none;" d="M1220 128L1221 129L1220 128z"/>
<path style="fill:#bd7029; stroke:none;" d="M1237.33 128.667L1237.67 129.333L1237.33 128.667M1244.33 128.667L1244.67 129.333L1244.33 128.667M104 129L105 130L104 129z"/>
<path style="fill:#f6f107; stroke:none;" d="M157 129L157 135L158 135L157 129z"/>
<path style="fill:#447fc1; stroke:none;" d="M160 129L160 134L161 134L160 129z"/>
<path style="fill:#bd7029; stroke:none;" d="M171.333 129.667L171.667 130.333L171.333 129.667z"/>
<path style="fill:#447fc1; stroke:none;" d="M185.333 129.667L185.667 130.333L185.333 129.667z"/>
<path style="fill:#f6f107; stroke:none;" d="M201 129L202 130L201 129z"/>
<path style="fill:#447fc1; stroke:none;" d="M223 129L223 137L224 137L223 129z"/>
<path style="fill:#f6f107; stroke:none;" d="M227 129L227 137L228 137L227 129z"/>
<path style="fill:#bd7029; stroke:none;" d="M233 129L234 130L233 129z"/>
<path style="fill:#447fc1; stroke:none;" d="M242 129L242 132L243 132L242 129z"/>
<path style="fill:#f6f107; stroke:none;" d="M244 129L245 130L244 129z"/>
<path style="fill:#447fc1; stroke:none;" d="M247.333 129.667L247.667 130.333L247.333 129.667z"/>
<path style="fill:#bd7029; stroke:none;" d="M251 129L252 130L251 129z"/>
<path style="fill:#447fc1; stroke:none;" d="M259 129L260 130L259 129M911 129L911 132L912 132L911 129M919 129L919 133L920 133L919 129M984 129L984 132L985 132L984 129z"/>
<path style="fill:#bd7029; stroke:none;" d="M1024 129L1024 132L1025 132L1024 129M1026 129L1027 130L1026 129z"/>
<path style="fill:#447fc1; stroke:none;" d="M1033 129L1034 130L1033 129M1088 129L1088 132L1089 132L1088 129M1096 129L1096 133L1097 133L1096 129z"/>
<path style="fill:#bd7029; stroke:none;" d="M1227 129L1227 132L1228 132L1227 129z"/>
<path style="fill:#447fc1; stroke:none;" d="M1229 129L1229 133L1230 133L1229 129z"/>
<path style="fill:#bd7029; stroke:none;" d="M1248 129L1249 130L1248 129z"/>
<path style="fill:#f6f107; stroke:none;" d="M105 130L106 131L105 130z"/>
<path style="fill:#bd7029; stroke:none;" d="M201 130L201 133L202 133L201 130z"/>
<path style="fill:#447fc1; stroke:none;" d="M236 130L237 131L236 130z"/>
<path style="fill:#bd7029; stroke:none;" d="M237 130L237 131L240 131L237 130M244 130L244 133L245 133L244 130M248 130L248 131L251 131L248 130M673 130L674 131L673 130M686 130L687 131L686 130M1033 130L1034 131L1033 130M1120 130L1121 131L1120 130M1208 130L1209 131L1208 130M1249 130L1250 131L1249 130M1253 130L1254 131L1253 130z"/>
<path style="fill:#447fc1; stroke:none;" d="M1261 130L1263 132L1261 136C1264.47 134.025 1264.47 131.975 1261 130z"/>
<path style="fill:#bd7029; stroke:none;" d="M108 131L109 132L108 131z"/>
<path style="fill:#447fc1; stroke:none;" d="M112 131L112 135L113 135L112 131M118 131L118 137L119 137L118 131z"/>
<path style="fill:#f6f107; stroke:none;" d="M124 131L124 137L125 137L124 131M139 131L140 132L139 131z"/>
<path style="fill:#447fc1; stroke:none;" d="M142.333 131.667L142.667 132.333L142.333 131.667z"/>
<path style="fill:#bd7029; stroke:none;" d="M146 131L147 132L146 131M166 131L167 132L166 131M685 131L686 132L685 131z"/>
<path style="fill:#fefefe; stroke:none;" d="M687 132L687 134L688 135L692 134L692 132L687 132z"/>
<path style="fill:#bd7029; stroke:none;" d="M691 131L692 132L691 131z"/>
<path style="fill:#fefefe; stroke:none;" d="M711 135L715 131L711 135z"/>
<path style="fill:#f6f107; stroke:none;" d="M961 132L961 134L962 135L966 131L961 132z"/>
<path style="fill:#bd7029; stroke:none;" d="M1026 131L1027 132L1026 131z"/>
<path style="fill:#447fc1; stroke:none;" d="M1076.33 131.667L1076.67 132.333L1076.33 131.667z"/>
<path style="fill:#bd7029; stroke:none;" d="M1099.33 131.667L1099.67 132.333L1099.33 131.667M1119 131L1120 132L1119 131z"/>
<path style="fill:#447fc1; stroke:none;" d="M1121 131L1122 132L1121 131z"/>
<path style="fill:#f6f107; stroke:none;" d="M1121 132L1121 134L1122 135L1124 135L1125 131L1121 132z"/>
<path style="fill:#bd7029; stroke:none;" d="M1125 131L1125 134L1126 134L1125 131z"/>
<path style="fill:#f6f107; stroke:none;" d="M1169 132L1169 133L1174 133L1174 131L1169 132z"/>
<path style="fill:#bd7029; stroke:none;" d="M1207.33 131.667L1207.67 132.333L1207.33 131.667z"/>
<path style="fill:#447fc1; stroke:none;" d="M1209 131L1210 132L1209 131z"/>
<path style="fill:#f6f107; stroke:none;" d="M1209 132L1209 134L1210 135L1214 134L1214 132L1209 132z"/>
<path style="fill:#bd7029; stroke:none;" d="M1213 131L1214 132L1213 131M1251 131L1252 132L1251 131z"/>
<path style="fill:#f6f107; stroke:none;" d="M109.333 132.667L109.667 133.333L109.333 132.667z"/>
<path style="fill:#bd7029; stroke:none;" d="M139 132L140 133L139 132z"/>
<path style="fill:#f6f107; stroke:none;" d="M145 132L146 133L145 132z"/>
<path style="fill:#447fc1; stroke:none;" d="M148 132L149 133L148 132z"/>
<path style="fill:#fefefe; stroke:none;" d="M149 132L148 133L148 134L148 135L151 132L149 132z"/>
<path style="fill:#bd7029; stroke:none;" d="M151 132L151 135L152 135L151 132M165 132L166 133L165 132z"/>
<path style="fill:#447fc1; stroke:none;" d="M168 132L167 135L168 135L168 132z"/>
<path style="fill:#fefefe; stroke:none;" d="M169 132L168 135L171 135L169 132z"/>
<path style="fill:#bd7029; stroke:none;" d="M170 132L171 133L170 132z"/>
<path style="fill:#447fc1; stroke:none;" d="M247.333 132.667L247.667 133.333L247.333 132.667z"/>
<path style="fill:#bd7029; stroke:none;" d="M708.333 132.667L708.667 133.333L708.333 132.667M808 132L809 133L808 132M849 132L850 133L849 132M917.333 132.667L917.667 133.333L917.333 132.667M959 132L959 135L960 135L959 132z"/>
<path style="fill:#447fc1; stroke:none;" d="M1026 132L1027 133L1026 132z"/>
<path style="fill:#bd7029; stroke:none;" d="M1041.33 132.667L1041.67 133.333L1041.33 132.667M1074.33 132.667L1074.67 133.333L1074.33 132.667M1094.33 132.667L1094.67 133.333L1094.33 132.667z"/>
<path style="fill:#447fc1; stroke:none;" d="M1156 132L1156 136L1158 136L1158 132L1156 132z"/>
<path style="fill:#bd7029; stroke:none;" d="M1167 132L1168 136L1169 136L1167 132M1192.33 132.667L1192.67 133.333L1192.33 132.667M1237.33 132.667L1237.67 133.333L1237.33 132.667M1253.33 132.667L1253.67 133.333L1253.33 132.667z"/>
<path style="fill:#fefefe; stroke:none;" d="M1261 132L1261 135L1263 134L1263 133L1261 132z"/>
<path style="fill:#bd7029; stroke:none;" d="M1262 132L1263 133L1262 132M89 133L90 134L89 133z"/>
<path style="fill:#f6f107; stroke:none;" d="M138 133L139 134L138 133z"/>
<path style="fill:#bd7029; stroke:none;" d="M145 133L145 136L146 136L145 133M171.333 133.667L171.667 134.333L171.333 133.667z"/>
<path style="fill:#f6f107; stroke:none;" d="M201 133L202 134L201 133z"/>
<path style="fill:#bd7029; stroke:none;" d="M233.333 133.667L233.667 134.333L233.333 133.667z"/>
<path style="fill:#f6f107; stroke:none;" d="M244 133L245 134L244 133z"/>
<path style="fill:#bd7029; stroke:none;" d="M720 133L721 134L720 133M732 133L733 134L732 133M799 133L800 134L799 133M815 133L816 134L815 133M842 133L843 134L842 133M860 133L861 134L860 133M898 133L899 134L898 133M910 133L911 134L910 133M983 133L984 134L983 133z"/>
<path style="fill:#447fc1; stroke:none;" d="M1043 133L1044 134L1043 133z"/>
<path style="fill:#bd7029; stroke:none;" d="M1048 133L1049 134L1048 133z"/>
<path style="fill:#447fc1; stroke:none;" d="M1050 133L1051 134L1050 133z"/>
<path style="fill:#bd7029; stroke:none;" d="M1087 133L1088 134L1087 133z"/>
<path style="fill:#447fc1; stroke:none;" d="M1144 133L1144 136L1146 136L1146 133L1144 133M1149 133L1149 136L1151 136L1151 133L1149 133M1168 133L1176 136L1175 133L1168 133z"/>
<path style="fill:#fefefe; stroke:none;" d="M1170 135L1174 134L1170 135z"/>
<path style="fill:#447fc1; stroke:none;" d="M1194 133L1195 134L1194 133M1239 133L1240 134L1239 133z"/>
<path style="fill:#bd7029; stroke:none;" d="M87 134L88 135L87 134z"/>
<path style="fill:#447fc1; stroke:none;" d="M92 134L93 135L92 134M103 134L104 135L103 134M134 134L135 135L134 134z"/>
<path style="fill:#bd7029; stroke:none;" d="M137 134L138 135L137 134z"/>
<path style="fill:#447fc1; stroke:none;" d="M141 134L142 135L141 134M180 134L181 135L180 134z"/>
<path style="fill:#bd7029; stroke:none;" d="M202 134L203 135L202 134M206.667 134.333L207.333 134.667L206.667 134.333z"/>
<path style="fill:#447fc1; stroke:none;" d="M236 134L237 135L236 134M248 134L249 135L248 134z"/>
<path style="fill:#bd7029; stroke:none;" d="M685 134L686 135L685 134M809 134L810 135L809 134M814 134L815 135L814 134M832 134L833 135L832 134M837 134L838 135L837 134M899 134L900 135L899 134M903 134L903 135L906 135L903 134M913 134L914 135L913 134z"/>
<path style="fill:#447fc1; stroke:none;" d="M918 134L919 135L918 134z"/>
<path style="fill:#bd7029; stroke:none;" d="M964 134L965 135L964 134z"/>
<path style="fill:#447fc1; stroke:none;" d="M986 134L987 135L986 134z"/>
<path style="fill:#bd7029; stroke:none;" d="M988 134L989 135L988 134M1004 134L1005 135L1004 134M1025 134L1026 135L1025 134M1028 134L1029 135L1028 134M1031.67 134.333L1032.33 134.667L1031.67 134.333M1042 134L1043 135L1042 134z"/>
<path style="fill:#447fc1; stroke:none;" d="M1044 134L1045 135L1044 134z"/>
<path style="fill:#bd7029; stroke:none;" d="M1047 134L1048 135L1047 134M1070 134L1071 135L1070 134M1072 134L1073 135L1072 134z"/>
<path style="fill:#447fc1; stroke:none;" d="M1075 134L1076 135L1075 134z"/>
<path style="fill:#bd7029; stroke:none;" d="M1090 134L1091 135L1090 134z"/>
<path style="fill:#447fc1; stroke:none;" d="M1095 134L1096 135L1095 134z"/>
<path style="fill:#bd7029; stroke:none;" d="M1100 134L1101 135L1100 134M1119 134L1120 135L1119 134z"/>
<path style="fill:#447fc1; stroke:none;" d="M1121 134L1122 135L1121 134z"/>
<path style="fill:#bd7029; stroke:none;" d="M1124 134L1125 135L1124 134z"/>
<path style="fill:#447fc1; stroke:none;" d="M1138.33 134.667L1138.67 135.333L1138.33 134.667z"/>
<path style="fill:#bd7029; stroke:none;" d="M1172 134L1173 135L1172 134M1183.67 134.333L1184.33 134.667L1183.67 134.333M1193 134L1194 135L1193 134M1196 134L1197 135L1196 134M1198.67 134.333L1199.33 134.667L1198.67 134.333M1207 134L1208 135L1207 134z"/>
<path style="fill:#447fc1; stroke:none;" d="M1209 134L1210 135L1209 134z"/>
<path style="fill:#bd7029; stroke:none;" d="M1212 134L1213 135L1212 134M1219 134L1220 135L1219 134M1222 134L1223 135L1222 134M1224.67 134.333L1225.33 134.667L1224.67 134.333M1228 134L1229 135L1228 134M1231 134L1232 135L1231 134M1233.67 134.333L1234.33 134.667L1233.67 134.333z"/>
<path style="fill:#447fc1; stroke:none;" d="M1240 134L1241 135L1240 134z"/>
<path style="fill:#bd7029; stroke:none;" d="M1244 134L1245 135L1244 134z"/>
<path style="fill:#447fc1; stroke:none;" d="M1245.33 134.667L1245.67 135.333L1245.33 134.667M1248 134L1249 135L1248 134z"/>
<path style="fill:#bd7029; stroke:none;" d="M1252 134L1253 135L1252 134M1257 134L1257 136L1259 134L1257 134z"/>
<path style="fill:#447fc1; stroke:none;" d="M91 135L92 136L91 135z"/>
<path style="fill:#f6f107; stroke:none;" d="M102 135L103 136L102 135z"/>
<path style="fill:#447fc1; stroke:none;" d="M140 135L141 136L140 135M163.333 135.667L163.667 136.333L163.333 135.667z"/>
<path style="fill:#bd7029; stroke:none;" d="M165 135L166 136L165 135z"/>
<path style="fill:#447fc1; stroke:none;" d="M186.333 135.667L186.667 136.333L186.333 135.667z"/>
<path style="fill:#bd7029; stroke:none;" d="M234 135L235 136L234 135M245 135L246 136L245 135z"/>
<path style="fill:#447fc1; stroke:none;" d="M253.333 135.667L253.667 136.333L253.333 135.667z"/>
<path style="fill:#bd7029; stroke:none;" d="M709 135L710 136L709 135M715 135L716 136L715 135M722 135L723 136L722 135M787 135L788 136L787 135M810 135L811 136L810 135z"/>
<path style="fill:#447fc1; stroke:none;" d="M907 135L908 136L907 135z"/>
<path style="fill:#bd7029; stroke:none;" d="M917 135L918 136L917 135M960 135L961 136L960 135M966 135L967 136L966 135M989 135L990 136L989 135M1026 135L1027 136L1026 135M1043 135L1044 136L1043 135z"/>
<path style="fill:#447fc1; stroke:none;" d="M1048 135L1049 136L1048 135M1074 135L1075 136L1074 135z"/>
<path style="fill:#bd7029; stroke:none;" d="M1094 135L1095 136L1094 135M1102 135L1103 136L1102 135M1104 135L1105 136L1104 135M1106.33 135.667L1106.67 136.333L1106.33 135.667z"/>
<path style="fill:#447fc1; stroke:none;" d="M1124 135L1125 136L1124 135z"/>
<path style="fill:#f6f107; stroke:none;" d="M1125 135L1126 136L1125 135z"/>
<path style="fill:#447fc1; stroke:none;" d="M1126 135L1127 136L1126 135z"/>
<path style="fill:#bd7029; stroke:none;" d="M1174 135L1175 136L1174 135M1180 135L1181 136L1180 135M1194 135L1195 136L1194 135z"/>
<path style="fill:#447fc1; stroke:none;" d="M1199 135L1200 136L1199 135z"/>
<path style="fill:#bd7029; stroke:none;" d="M1208 135L1209 136L1208 135z"/>
<path style="fill:#447fc1; stroke:none;" d="M1212 135L1213 136L1212 135z"/>
<path style="fill:#bd7029; stroke:none;" d="M1220 135L1221 136L1220 135M1239 135L1240 136L1239 135z"/>
<path style="fill:#354929; stroke:none;" d="M1258 135L1258 136L1261 136L1258 135z"/>
<path style="fill:#447fc1; stroke:none;" d="M89 136L90 137L89 136M110 136L111 137L110 136M138 136L139 137L138 136z"/>
<path style="fill:#bd7029; stroke:none;" d="M146 136L147 137L146 136M151 136L152 137L151 136z"/>
<path style="fill:#447fc1; stroke:none;" d="M170 136L171 137L170 136z"/>
<path style="fill:#bd7029; stroke:none;" d="M171 136L172 137L171 136M204 136L205 137L204 136z"/>
<path style="fill:#447fc1; stroke:none;" d="M206 136L207 137L206 136z"/>
<path style="fill:#bd7029; stroke:none;" d="M208.333 136.667L208.667 137.333L208.333 136.667M235 136L236 137L235 136z"/>
<path style="fill:#f6f107; stroke:none;" d="M246 136L247 137L246 136z"/>
<path style="fill:#447fc1; stroke:none;" d="M1100 138C1102.65 141.427 1105.95 140.465 1108 137L1100 138M1067 138L1067 140L1069 140L1069 138L1067 138z"/>
<path style="fill:#bd7029; stroke:none;" d="M202.333 139.667L202.667 140.333L202.333 139.667z"/>
<path style="fill:#447fc1; stroke:none;" d="M210 139L211 140L210 139z"/>
<path style="fill:#bd7029; stroke:none;" d="M720 139L721 140L720 139z"/>
<path style="fill:#447fc1; stroke:none;" d="M209 140L210 141L209 140z"/>
<path style="fill:#bd7029; stroke:none;" d="M1102 140L1103 141L1102 140M205.667 141.333L206.333 141.667L205.667 141.333z"/>
<path style="fill:#447fc1; stroke:none;" d="M207 141L208 142L207 141z"/>
</svg>
