<?xml version="1.0" standalone="yes"?>
<svg xmlns="http://www.w3.org/2000/svg" width="1054" height="125">
<path style="fill:#fdfdfe; stroke:none;" d="M0 0L0 125L282 125L280 119L283 123L284 123L284 119L287 124L288 124L291 119C289.668 121.844 288.327 124.197 292 125C291.753 118.427 297.06 119.107 298 125L300 125L300 119L304 119L304 120L301 125L305 125L305 116L307 116L307 121L313 119L314 115L319 116L319 125L321 125C322.395 116.259 326.349 122.016 330 125L329 119L330 119L331 123L332 123L335 119L336 123L337 123L339 119L337 125L344 125L344 119L346 119L346 125L347 125L347 119L354 119L354 125L356 125C355.914 121.07 355.158 116.655 360 116L360 119L360 120L358 125L361 125L361 119L365 119L365 120L363 125L366 122L370 122L370 120L366 120L366 119C369.993 119.636 371.364 121.007 372 125L377 125L377 124L373 119L378 119L378 120L375 120L380 125L380 117L384 119L384 120L382 125L385 125L385 119L389 119L389 120L387 125L390 125L390 119L392 119L392 125L395 125L395 119L396 119L396 125L398 125C398.568 121.418 399.508 120.057 403 119L403 120L400 120L400 125L405 125L405 117L409 119L409 120L407 125L410 125L410 119L412 119L412 125L415 125L415 119L416 119L416 125L418 125L418 119L423 119L423 120L420 120L420 125L423 125C423.636 121.007 425.007 119.636 429 119L429 123L425 123L425 125C430.374 124.996 434.812 124.837 438 120L434 120L434 119L440 119L440 125L445 125L441 122L441 120L446 119L446 120L443 121L451 125C451.568 121.418 452.508 120.057 456 119L456 120L453 120L453 125L458 125C457.661 115.987 462.873 122.444 466 125L466 119C468.993 118.936 470.346 119.054 471 116L472 116L472 125L474 125C474.636 121.007 476.007 119.636 480 119L480 123L476 123L476 125L831 125L831 115L834 112L845 112L842 125L910 125L910 115L913 112L924 112L921 125L1054 125L1054 0L579 0L582 2L582 3L579 3L582 8L582 9L578 9L578 3L576 3L576 9C571.108 8.62683 569.373 6.89159 569 2L571 2L571 8L574 8L574 2L578 2L578 0C569.173 0 541.547 -4.24593 537 4L540 5L533 9L533 8L538 5L534 4L537 0L530 0L530 9L528 9C527.959 -2.44688 519.154 0 510 0L457 0L225 0L227 2L227 3C224.966 4.76852 224.966 6.23148 227 8L227 9C222.239 7.50367 222.788 3.77 224 0L213 0L213 9C207.552 8.13052 206.181 3.77263 212 2L212 0L190 0L190 4L194 2L192 7L190 6L188 9L188 0L154 0L154 9C148.652 8.58656 145.635 4.0303 152 2L152 0L128 0L130 2L130 3C127.966 4.76852 127.966 6.23149 130 8L130 9C126.675 6.85391 126.731 3.75021 127 0L106 0L106 9C100.652 8.58656 97.6351 4.0303 104 2L104 0L0 0z"/>
<path style="fill:#a15225; stroke:none;" d="M104.333 0.666664L104.667 1.33334L104.333 0.666664z"/>
<path style="fill:#2881c5; stroke:none;" d="M105 0L100 2C100.155 6.72401 101.11 8.61903 106 9L105 0M127 0C126.586 3.82149 126.611 6.82599 130 9L130 8L130 3L130 2L127 0z"/>
<path style="fill:#a15225; stroke:none;" d="M152.333 0.666664L152.667 1.33334L152.333 0.666664z"/>
<path style="fill:#2881c5; stroke:none;" d="M153 0L148 2C148.155 6.72401 149.11 8.61903 154 9L153 0M156 0L157 1L156 0z"/>
<path style="fill:#a15225; stroke:none;" d="M188 0L188 9L189 9L188 0z"/>
<path style="fill:#2881c5; stroke:none;" d="M189 0L189 9L190 9L190 6L192 7L194 2L190 4L189 0M212 0C207.964 3.78366 205.137 8.3873 213 9L212 0M224 0C223.415 3.57296 222.902 8.12182 227 9L227 8L227 3L227 2L224 0z"/>
<path style="fill:#a15225; stroke:none;" d="M526 0L527 1L526 0z"/>
<path style="fill:#36502d; stroke:none;" d="M527.667 0.333336L528.333 0.666664L527.667 0.333336z"/>
<path style="fill:#2881c5; stroke:none;" d="M529 0L529 9L530 9L529 0z"/>
<path style="fill:#a15225; stroke:none;" d="M537 0L538 1L537 0z"/>
<path style="fill:#36502d; stroke:none;" d="M538 0L539 1L538 0z"/>
<path style="fill:#2881c5; stroke:none;" d="M558 0L559 1L558 0z"/>
<path style="fill:#a15225; stroke:none;" d="M578.333 0.666664L578.667 1.33334L578.333 0.666664M528 1L528 9L529 9L528 1z"/>
<path style="fill:#f4ed0c; stroke:none;" d="M536 1L534 4L536 1z"/>
<path style="fill:#36502d; stroke:none;" d="M537 1L538 2L537 1z"/>
<path style="fill:#a15225; stroke:none;" d="M83 2L83 7L84 7L83 2z"/>
<path style="fill:#2881c5; stroke:none;" d="M88 2L88 8L83 7L83 8L89 9L88 2z"/>
<path style="fill:#a15225; stroke:none;" d="M91 2L91 9L92 9L91 2z"/>
<path style="fill:#2881c5; stroke:none;" d="M92 2L92 9L93 9L93 3L96 3L96 9L97 9L97 2L92 2z"/>
<path style="fill:#a15225; stroke:none;" d="M108 2L109 3L108 2z"/>
<path style="fill:#2881c5; stroke:none;" d="M108 8L109 8L113 6L113 2C109.089 2.65173 108.3 4.13562 108 8z"/>
<path style="fill:#a15225; stroke:none;" d="M115 2L115 9L116 9L115 2z"/>
<path style="fill:#2881c5; stroke:none;" d="M116 2L116 9L117 9L119 3L116 2M121 2L121 3L125 3L121 2M132 2L132 3L136 3L136 5L132 5L132 9L137 9L137 2L132 2z"/>
<path style="fill:#a15225; stroke:none;" d="M139 2L139 9L140 9L139 2z"/>
<path style="fill:#2881c5; stroke:none;" d="M140 2L140 9L141 9L141 3L144 3L144 9L145 9L145 2L140 2M156 2L156 9L157 9L156 2z"/>
<path style="fill:#a15225; stroke:none;" d="M159 2L159 9L160 9L159 2z"/>
<path style="fill:#2881c5; stroke:none;" d="M160 2L160 9L161 9L161 3L164 3L164 9L165 9L165 2L160 2M168 2L171 9L169 3L173 4L168 2M187 9L187 8L182 7L182 6L187 6C184.51 -1.49118 177.082 8.22721 187 9z"/>
<path style="fill:#a15225; stroke:none;" d="M192 2L193 3L192 2z"/>
<path style="fill:#2881c5; stroke:none;" d="M196 2L196 8L196 9L200 9L200 3L196 2M216 2L216 3L220 3L220 5L215 6L221 9C220.863 4.82417 220.362 2.72793 216 2z"/>
<path style="fill:#a15225; stroke:none;" d="M222 2L223 3L222 2M228 2L229 3L228 2z"/>
<path style="fill:#2881c5; stroke:none;" d="M229 2L229 3L233 4L229 2z"/>
<path style="fill:#36502d; stroke:none;" d="M536 2L535 4L536 2z"/>
<path style="fill:#a15225; stroke:none;" d="M545 2L545 9L546 9L545 2z"/>
<path style="fill:#2881c5; stroke:none;" d="M546 2L546 9L547 9L546 2z"/>
<path style="fill:#36502d; stroke:none;" d="M547 2L547 3L550 3L550 9L551 9C550.88 5.30836 550.687 3.22264 547 2z"/>
<path style="fill:#2881c5; stroke:none;" d="M550 2L551 3L550 2z"/>
<path style="fill:#a15225; stroke:none;" d="M551 2L552 3L551 2z"/>
<path style="fill:#36502d; stroke:none;" d="M552 2L552 3L555 3L552 2z"/>
<path style="fill:#f4ed0c; stroke:none;" d="M557 2L557 9L558 9L557 2z"/>
<path style="fill:#36502d; stroke:none;" d="M558 2L558 9L559 9L558 2z"/>
<path style="fill:#a15225; stroke:none;" d="M561 2L561 9L562 9L561 2z"/>
<path style="fill:#2881c5; stroke:none;" d="M562 2L563 3L562 2z"/>
<path style="fill:#a15225; stroke:none;" d="M563 2L564 3L563 2z"/>
<path style="fill:#36502d; stroke:none;" d="M564 2L564 3L567 3L564 2z"/>
<path style="fill:#f4ed0c; stroke:none;" d="M569 2L569 8L570 8L569 2z"/>
<path style="fill:#2881c5; stroke:none;" d="M570 2L570 7L571 7L570 2z"/>
<path style="fill:#a15225; stroke:none;" d="M574 2L574 9L575 9L574 2z"/>
<path style="fill:#2881c5; stroke:none;" d="M575 2L575 9L576 9L575 2z"/>
<path style="fill:#f4ed0c; stroke:none;" d="M576 2L577 3L576 2z"/>
<path style="fill:#36502d; stroke:none;" d="M577 2L577 3L581 3L577 2z"/>
<path style="fill:#2881c5; stroke:none;" d="M581 2L582 3L581 2z"/>
<path style="fill:#f4ed0c; stroke:none;" d="M583 2L584 3L583 2z"/>
<path style="fill:#36502d; stroke:none;" d="M584 2L584 3L588 3L584 2z"/>
<path style="fill:#a15225; stroke:none;" d="M590 2L591 6L592 6L590 2z"/>
<path style="fill:#36502d; stroke:none;" d="M591 2L591 3L594 3L591 2z"/>
<path style="fill:#2881c5; stroke:none;" d="M594 2L595 3L594 2z"/>
<path style="fill:#a15225; stroke:none;" d="M600 2L601 3L600 2z"/>
<path style="fill:#36502d; stroke:none;" d="M601 2L601 3L605 3L601 2z"/>
<path style="fill:#a15225; stroke:none;" d="M608 2L607 7L608 7L608 2z"/>
<path style="fill:#36502d; stroke:none;" d="M609 2L609 3L613 3L609 2z"/>
<path style="fill:#a15225; stroke:none;" d="M616 2L617 3L616 2z"/>
<path style="fill:#36502d; stroke:none;" d="M616 3L616 4L620 3L616 3z"/>
<path style="fill:#2881c5; stroke:none;" d="M620 2L621 5L622 5L620 2z"/>
<path style="fill:#fdfdfe; stroke:none;" d="M101 3L101 8L104 8L104 3L101 3z"/>
<path style="fill:#a15225; stroke:none;" d="M104 3L104 7L105 7L104 3z"/>
<path style="fill:#fdfdfe; stroke:none;" d="M109 3L109 5L112 5L112 3L109 3z"/>
<path style="fill:#a15225; stroke:none;" d="M120.333 3.66666L120.667 4.33334L120.333 3.66666z"/>
<path style="fill:#fdfdfe; stroke:none;" d="M149 3L149 8L152 8L152 3L149 3z"/>
<path style="fill:#a15225; stroke:none;" d="M152 3L152 7L153 7L152 3M167 3L167 7L168 7L167 3z"/>
<path style="fill:#fdfdfe; stroke:none;" d="M182 3L182 5L185 5L185 3L182 3z"/>
<path style="fill:#a15225; stroke:none;" d="M185.333 3.66666L185.667 4.33334L185.333 3.66666M191 3L192 4L191 3M195.333 3.66666L195.667 4.33334L195.333 3.66666M207 3L208 4L207 3z"/>
<path style="fill:#fdfdfe; stroke:none;" d="M212 8L212 3C208.156 4.27747 208.156 6.72253 212 8z"/>
<path style="fill:#a15225; stroke:none;" d="M219.333 3.66666L219.667 4.33334L219.333 3.66666M223 3L223 7L224 7L223 3z"/>
<path style="fill:#2881c5; stroke:none;" d="M536 3L535 5L536 3z"/>
<path style="fill:#f4ed0c; stroke:none;" d="M549 3L549 9L550 9L549 3z"/>
<path style="fill:#a15225; stroke:none;" d="M554 3L554 9L555 9L554 3z"/>
<path style="fill:#2881c5; stroke:none;" d="M555 3L555 9L556 9L555 3z"/>
<path style="fill:#36502d; stroke:none;" d="M562 3L563 4L562 3z"/>
<path style="fill:#a15225; stroke:none;" d="M566 3L566 9L567 9L566 3z"/>
<path style="fill:#2881c5; stroke:none;" d="M567 3L567 9L568 9L567 3z"/>
<path style="fill:#a15225; stroke:none;" d="M578 3L578 8L579 8L578 3M583 3L584 4L583 3z"/>
<path style="fill:#fdfdfe; stroke:none;" d="M584 3L584 5L587 5L587 3L584 3z"/>
<path style="fill:#a15225; stroke:none;" d="M587.333 3.66666L587.667 4.33334L587.333 3.66666z"/>
<path style="fill:#2881c5; stroke:none;" d="M588 3L588 6L589 6L588 3z"/>
<path style="fill:#a15225; stroke:none;" d="M604.333 3.66666L604.667 4.33334L604.333 3.66666z"/>
<path style="fill:#2881c5; stroke:none;" d="M608 3L609 8L610 8L608 3z"/>
<path style="fill:#fdfdfe; stroke:none;" d="M609 3L610 8L611 8L612 3L609 3z"/>
<path style="fill:#a15225; stroke:none;" d="M612 3L612 10L613 10L612 3z"/>
<path style="fill:#f4ed0c; stroke:none;" d="M615 3L616 4L615 3z"/>
<path style="fill:#fdfdfe; stroke:none;" d="M617 3L617 8L620 8L620 3L617 3z"/>
<path style="fill:#a15225; stroke:none;" d="M620 3L621 4L620 3M99 4L99 7L100 7L99 4M107 4L107 7L108 7L107 4z"/>
<path style="fill:#2881c5; stroke:none;" d="M121 4L124 6L124 5L121 4z"/>
<path style="fill:#a15225; stroke:none;" d="M147 4L147 7L148 7L147 4M172 4L172 7L173 7L172 4M232 4L233 5L232 4M536 4L536 5L538 7L539 7L536 4z"/>
<path style="fill:#36502d; stroke:none;" d="M538 4L539 5L538 4z"/>
<path style="fill:#2881c5; stroke:none;" d="M562 4L562 9L563 9L562 4z"/>
<path style="fill:#f4ed0c; stroke:none;" d="M582 4L582 7L583 7L582 4z"/>
<path style="fill:#36502d; stroke:none;" d="M583 4L583 7L584 7L588 6L588 5L583 4z"/>
<path style="fill:#2881c5; stroke:none;" d="M591 4L592 5L591 4z"/>
<path style="fill:#a15225; stroke:none;" d="M615 4L615 7L616 7L615 4z"/>
<path style="fill:#2881c5; stroke:none;" d="M616 4L616 7L617 7L616 4z"/>
<path style="fill:#f4ed0c; stroke:none;" d="M620 4L620 7L621 7L620 4z"/>
<path style="fill:#a15225; stroke:none;" d="M175 5L176 6L175 5z"/>
<path style="fill:#2881c5; stroke:none;" d="M176 5L176 6L179 6L176 5z"/>
<path style="fill:#a15225; stroke:none;" d="M196 5L197 6L196 5z"/>
<path style="fill:#2881c5; stroke:none;" d="M202 5L202 6L206 6L202 5M228 6L228 8L233 7L229 8L233 6L228 6z"/>
<path style="fill:#f4ed0c; stroke:none;" d="M280 5L281 6L280 5z"/>
<path style="fill:#36502d; stroke:none;" d="M281 5L281 6L284 6L281 5z"/>
<path style="fill:#2881c5; stroke:none;" d="M284 5L285 6L284 5M539.333 5.66666L539.667 6.33334L539.333 5.66666z"/>
<path style="fill:#36502d; stroke:none;" d="M592 5L592 6L591 8L591 9L595 8L595 6L592 5z"/>
<path style="fill:#a15225; stroke:none;" d="M600 5L601 6L600 5z"/>
<path style="fill:#36502d; stroke:none;" d="M600 6L600 8L603 9L603 8L601 6L605 6L600 6M621 5L622 6L621 5z"/>
<path style="fill:#2881c5; stroke:none;" d="M124.333 6.66666L124.667 7.33334L124.333 6.66666z"/>
<path style="fill:#a15225; stroke:none;" d="M131.333 6.66666L131.667 7.33334L131.333 6.66666z"/>
<path style="fill:#fdfdfe; stroke:none;" d="M133 6L133 8L136 8L136 6L133 6M217 6L217 8L219 8L219 6L217 6z"/>
<path style="fill:#a15225; stroke:none;" d="M219.333 6.66666L219.667 7.33334L219.333 6.66666z"/>
<path style="fill:#fdfdfe; stroke:none;" d="M229 6L229 8L232 8L232 6L229 6z"/>
<path style="fill:#a15225; stroke:none;" d="M232 6L233 7L232 6z"/>
<path style="fill:#f4ed0c; stroke:none;" d="M593.333 6.66666L593.667 7.33334L593.333 6.66666M599.333 6.66666L599.667 7.33334L599.333 6.66666z"/>
<path style="fill:#fdfdfe; stroke:none;" d="M601 6L601 8L604 8L604 6L601 6z"/>
<path style="fill:#a15225; stroke:none;" d="M604 6L604 9L605 9L604 6z"/>
<path style="fill:#2881c5; stroke:none;" d="M621 6L620 9L621 6M172 7L172 11L173 11L172 7M192 7L194 9L192 7z"/>
<path style="fill:#a15225; stroke:none;" d="M215 7L216 8L215 7z"/>
<path style="fill:#f4ed0c; stroke:none;" d="M537 7L538 8L537 7z"/>
<path style="fill:#36502d; stroke:none;" d="M538 7L539 8L538 7M570 7L573 9L573 8L570 7z"/>
<path style="fill:#2881c5; stroke:none;" d="M579 7L580 8L579 7z"/>
<path style="fill:#a15225; stroke:none;" d="M583 7L584 8L583 7z"/>
<path style="fill:#2881c5; stroke:none;" d="M584 7L585 8L584 7z"/>
<path style="fill:#f4ed0c; stroke:none;" d="M607 7L609 9L607 7z"/>
<path style="fill:#36502d; stroke:none;" d="M608 7L609 8L608 7M612 7L613 8L612 7z"/>
<path style="fill:#f4ed0c; stroke:none;" d="M615 7L616 8L615 7z"/>
<path style="fill:#36502d; stroke:none;" d="M616 7L616 8L620 9L620 8L616 7z"/>
<path style="fill:#a15225; stroke:none;" d="M620 7L621 8L620 7M100 8L101 9L100 8z"/>
<path style="fill:#2881c5; stroke:none;" d="M109 8L109 9L113 9L109 8M120 8L120 9L124 9L120 8z"/>
<path style="fill:#a15225; stroke:none;" d="M127 8L128 9L127 8M148 8L149 9L148 8M195 8L196 9L195 8M228 8L229 9L228 8M533 8L534 9L533 8z"/>
<path style="fill:#36502d; stroke:none;" d="M534 8L534 9L538 9L534 8z"/>
<path style="fill:#a15225; stroke:none;" d="M570 8L571 9L570 8z"/>
<path style="fill:#2881c5; stroke:none;" d="M573 8L574 9L573 8z"/>
<path style="fill:#f4ed0c; stroke:none;" d="M578 8L579 9L578 8z"/>
<path style="fill:#36502d; stroke:none;" d="M579.667 8.33334L580.333 8.66666L579.667 8.33334z"/>
<path style="fill:#2881c5; stroke:none;" d="M581 8L582 9L581 8z"/>
<path style="fill:#36502d; stroke:none;" d="M584 8L584 9L588 9L584 8z"/>
<path style="fill:#2881c5; stroke:none;" d="M588 8L589 9L588 8z"/>
<path style="fill:#a15225; stroke:none;" d="M590 8L591 9L590 8M600 8L601 9L600 8z"/>
<path style="fill:#2881c5; stroke:none;" d="M603 8L604 9L603 8z"/>
<path style="fill:#36502d; stroke:none;" d="M609.667 8.33334L610.333 8.66666L609.667 8.33334z"/>
<path style="fill:#a15225; stroke:none;" d="M616 8L617 9L616 8z"/>
<path style="fill:#2881c5; stroke:none;" d="M834 9L831 12L831 23L842 23L845 20L845 9L834 9z"/>
<path style="fill:#f4ed0c; stroke:none;" d="M611 10L612 11L611 10z"/>
<path style="fill:#36502d; stroke:none;" d="M612 10L613 11L612 10z"/>
<path style="fill:#2881c5; stroke:none;" d="M930 10L930 23L931 23C932.989 18.2547 933.156 14.2423 930 10M168 11L168 12L172 12L168 11z"/>
<path style="fill:#a15225; stroke:none;" d="M608 11L609 12L608 11z"/>
<path style="fill:#36502d; stroke:none;" d="M609.667 11.3333L610.333 11.6667L609.667 11.3333z"/>
<path style="fill:#2881c5; stroke:none;" d="M611 11L612 12L611 11z"/>
<path style="fill:#fdfdfe; stroke:none;" d="M836 11L836 12L842 12L842 18L843 18L843 11L836 11z"/>
<path style="fill:#a15225; stroke:none;" d="M852 11L852 21L853 21L852 11z"/>
<path style="fill:#2881c5; stroke:none;" d="M853 11L853 21L854 21L854 17L859 17L859 21L860 21L860 11L859 11L859 15L854 15L853 11z"/>
<path style="fill:#a15225; stroke:none;" d="M861 11L862 12L861 11z"/>
<path style="fill:#2881c5; stroke:none;" d="M862 11L862 12L865 21L866 21L869 12L862 11M870 11L870 12L873 12L873 21L874 21L877 12L870 11M879 11L879 21L880 21L880 17L885 17C884.657 12.7033 883.249 11.489 879 11M887 15L892 20L887 20L887 21C893.306 20.5093 893.428 16.5838 888 14L888 13L893 13C889.995 10.7848 888.348 11.6529 887 15M900 11L900 23L901 23L900 11M908 16L908 17L910 20C904.797 18.4764 903.722 13.284 910 13C906.758 7.41103 899.594 16.6503 905.25 20.2778C909.107 22.7512 913.462 17.1703 908 16M913 11L913 21L914 21L914 17L920 21C918.217 15.8402 919.561 11.5113 913 11M928 21L928 20C922.992 18.4789 922.141 13.6462 928 13C923.576 8.13139 917.421 20.1781 928 21z"/>
<path style="fill:#fdfdfe; stroke:none;" d="M880 12L880 16L884 16L880 12z"/>
<path style="fill:#a15225; stroke:none;" d="M887 12L888 13L887 12M899 12L900 13L899 12z"/>
<path style="fill:#fdfdfe; stroke:none;" d="M914 12L914 16L918 15L918 13L914 12z"/>
<path style="fill:#a15225; stroke:none;" d="M930 12L931 13L930 12M864 13L864 21L865 21L864 13M903 13L904 14L903 13z"/>
<path style="fill:#fdfdfe; stroke:none;" d="M833 14L833 21L840 21L840 14L833 14z"/>
<path style="fill:#a15225; stroke:none;" d="M921 14L922 15L921 14M917 15L918 16L917 15M931 15L931 18L932 18L931 15M898 16L899 17L898 16M907 16L908 17L907 16M891 17L892 18L891 17M909 17L909 20L910 20L909 17M916 17L917 18L916 17M921.333 17.6667L921.667 18.3333L921.333 17.6667M903 18L904 19L903 18M891 19L892 20L891 19M930 21L931 22L930 21z"/>
<path style="fill:#2881c5; stroke:none;" d="M834 39L831 42L831 53L842 53L845 50L845 39L834 39M913 39L910 42L910 53L921 53L924 50L924 39L913 39z"/>
<path style="fill:#fdfdfe; stroke:none;" d="M836 41L836 42L842 42L842 48L843 48L843 41L836 41z"/>
<path style="fill:#a15225; stroke:none;" d="M852 41L852 51L853 51L852 41z"/>
<path style="fill:#2881c5; stroke:none;" d="M853 41L853 51L854 51L854 47L859 47L859 51L860 51L860 41L859 41L859 45L854 45L853 41z"/>
<path style="fill:#a15225; stroke:none;" d="M861 41L862 42L861 41z"/>
<path style="fill:#2881c5; stroke:none;" d="M862 41L862 42L865 51L866 51L869 42L862 41M870 41L870 42L873 42L873 51L874 51L877 42L870 41M879 41L879 51L880 51L880 47L885 47C884.657 42.7033 883.249 41.489 879 41M887 45L892 50L887 50L887 51C893.306 50.5093 893.428 46.5838 888 44L888 43L893 43C889.995 40.7848 888.348 41.6529 887 45z"/>
<path style="fill:#fdfdfe; stroke:none;" d="M915 41L915 42L921 42L921 48L922 48L922 41L915 41z"/>
<path style="fill:#2881c5; stroke:none;" d="M931 45L936 50L931 50L931 51C937.306 50.5093 937.428 46.5838 932 44L932 43L937 43C933.995 40.7848 932.348 41.6529 931 45M944 50L939 50L939 51C945.981 50.4564 943.971 46.7627 940 43L944 42C936.476 39.5317 942.655 47.6479 944 50z"/>
<path style="fill:#a15225; stroke:none;" d="M947 41L947 51L948 51L947 41z"/>
<path style="fill:#2881c5; stroke:none;" d="M948 41L948 51L949 51L949 47L954 47L954 51L955 51L955 41L954 41L954 45L949 45L948 41z"/>
<path style="fill:#fdfdfe; stroke:none;" d="M880 42L880 46L884 46L880 42z"/>
<path style="fill:#a15225; stroke:none;" d="M887 42L888 43L887 42M931 42L932 43L931 42M953 42L953 45L954 45L953 42M864 43L864 51L865 51L864 43z"/>
<path style="fill:#fdfdfe; stroke:none;" d="M833 44L833 51L840 51L840 44L833 44M912 44L912 51L919 51L919 44L912 44z"/>
<path style="fill:#a15225; stroke:none;" d="M891 47L892 48L891 47M935 47L936 48L935 47M943 47L944 48L943 47M953 47L953 51L954 51L953 47M891 49L892 50L891 49M935 49L936 50L935 49M943 49L944 50L943 49z"/>
<path style="fill:#2881c5; stroke:none;" d="M130 54L130 64L131 64L136 64L135 57L131 59L130 54z"/>
<path style="fill:#a15225; stroke:none;" d="M526 54L525 56L526 54z"/>
<path style="fill:#36502d; stroke:none;" d="M527.667 54.3333L528.333 54.6667L527.667 54.3333z"/>
<path style="fill:#2881c5; stroke:none;" d="M529 54L531 56L529 54z"/>
<path style="fill:#f4ed0c; stroke:none;" d="M541 54L541 57L542 57L541 54z"/>
<path style="fill:#36502d; stroke:none;" d="M542 54L538 57L538 58L542 58L542 64L543 64L542 54z"/>
<path style="fill:#2881c5; stroke:none;" d="M526 55L527 56L526 55z"/>
<path style="fill:#f4ed0c; stroke:none;" d="M528 55L530 57L528 55z"/>
<path style="fill:#a15225; stroke:none;" d="M529 55L530 56L529 55z"/>
<path style="fill:#36502d; stroke:none;" d="M530 56L531 57L530 56z"/>
<path style="fill:#a15225; stroke:none;" d="M83 57L83 64L84 64L83 57z"/>
<path style="fill:#2881c5; stroke:none;" d="M84 57L84 64L85 64L85 58L88 58L88 64L89 64L89 58L93 64C95.7961 57.094 89.0634 57.0039 84 57M96 57L96 63L96 64L100 64L100 58L96 57M102 57L102 63L102 64L106 64L106 58L102 57M108 57L108 67L109 67L109 64C115.598 62.8988 113.947 57.4634 108 57z"/>
<path style="fill:#a15225; stroke:none;" d="M116 57L117 58L116 57z"/>
<path style="fill:#2881c5; stroke:none;" d="M117 57L117 58L121 59L117 57z"/>
<path style="fill:#a15225; stroke:none;" d="M124 57L125 58L124 57z"/>
<path style="fill:#2881c5; stroke:none;" d="M125 57L125 58L128 58L125 57z"/>
<path style="fill:#a15225; stroke:none;" d="M137 57L138 58L137 57z"/>
<path style="fill:#2881c5; stroke:none;" d="M138 57L138 58L142 59L138 57z"/>
<path style="fill:#a15225; stroke:none;" d="M145 57L146 58L145 57z"/>
<path style="fill:#2881c5; stroke:none;" d="M149 66L150 66L151 57C138.882 57 149.328 64.6873 149 66z"/>
<path style="fill:#a15225; stroke:none;" d="M153 57L154 58L153 57z"/>
<path style="fill:#2881c5; stroke:none;" d="M153 63L154 63L158 61L158 57C154.089 57.6517 153.3 59.1356 153 63M160 57L164 62L164 63L160 63L160 64L165 63L165 61L161 59L164 58L160 57z"/>
<path style="fill:#a15225; stroke:none;" d="M529 57L530 58L529 57z"/>
<path style="fill:#2881c5; stroke:none;" d="M530 57L526 63L530 57z"/>
<path style="fill:#f4ed0c; stroke:none;" d="M537 57L538 58L537 57z"/>
<path style="fill:#a15225; stroke:none;" d="M545 57L546 58L545 57z"/>
<path style="fill:#36502d; stroke:none;" d="M546 57L546 58L550 58L546 57z"/>
<path style="fill:#f4ed0c; stroke:none;" d="M551 57L552 58L551 57z"/>
<path style="fill:#36502d; stroke:none;" d="M552 57L553 58L552 57M557 57L558 58L557 57z"/>
<path style="fill:#f4ed0c; stroke:none;" d="M559 57L560 58L559 57z"/>
<path style="fill:#36502d; stroke:none;" d="M560 57L560 58L563 58L560 57z"/>
<path style="fill:#2881c5; stroke:none;" d="M563 57L564 58L563 57z"/>
<path style="fill:#a15225; stroke:none;" d="M569 57L570 58L569 57z"/>
<path style="fill:#36502d; stroke:none;" d="M570 57L570 58L574 58L570 57z"/>
<path style="fill:#a15225; stroke:none;" d="M577 57L578 58L577 57z"/>
<path style="fill:#36502d; stroke:none;" d="M577 58L577 59L581 58L577 58z"/>
<path style="fill:#a15225; stroke:none;" d="M581 57L581 62L582 62L581 57z"/>
<path style="fill:#2881c5; stroke:none;" d="M582 57L582 65L583 65L582 57z"/>
<path style="fill:#f4ed0c; stroke:none;" d="M585 57L586 58L585 57z"/>
<path style="fill:#36502d; stroke:none;" d="M586 57L586 58L590 58L586 57z"/>
<path style="fill:#a15225; stroke:none;" d="M95.3333 58.6667L95.6667 59.3333L95.3333 58.6667M101.333 58.6667L101.667 59.3333L101.333 58.6667z"/>
<path style="fill:#fdfdfe; stroke:none;" d="M109 58L109 63C112.844 61.7225 112.844 59.2775 109 58z"/>
<path style="fill:#a15225; stroke:none;" d="M112 58L113 59L112 58z"/>
<path style="fill:#2881c5; stroke:none;" d="M124 58C124.263 61.4098 124.679 62.9011 128 64L128 63L125 63L124 58z"/>
<path style="fill:#fdfdfe; stroke:none;" d="M146 58L149 63L149 58L146 58z"/>
<path style="fill:#a15225; stroke:none;" d="M149 58L149 62L150 62L149 58z"/>
<path style="fill:#fdfdfe; stroke:none;" d="M154 58L154 60L157 60L157 58L154 58z"/>
<path style="fill:#36502d; stroke:none;" d="M529 58L530 59L529 58z"/>
<path style="fill:#a15225; stroke:none;" d="M537 58L538 59L537 58z"/>
<path style="fill:#2881c5; stroke:none;" d="M538 58L539 59L538 58z"/>
<path style="fill:#fdfdfe; stroke:none;" d="M539 58L541 63L541 58L539 58z"/>
<path style="fill:#f4ed0c; stroke:none;" d="M541 58L541 63L542 63L541 58z"/>
<path style="fill:#a15225; stroke:none;" d="M549.333 58.6667L549.667 59.3333L549.333 58.6667z"/>
<path style="fill:#2881c5; stroke:none;" d="M550 58L550 64L551 64L550 58z"/>
<path style="fill:#a15225; stroke:none;" d="M552 58L553 59L552 58z"/>
<path style="fill:#2881c5; stroke:none;" d="M553.333 58.6667L553.667 59.3333L553.333 58.6667z"/>
<path style="fill:#a15225; stroke:none;" d="M556.333 58.6667L556.667 59.3333L556.333 58.6667z"/>
<path style="fill:#2881c5; stroke:none;" d="M557.333 58.6667L557.667 59.3333L557.333 58.6667z"/>
<path style="fill:#a15225; stroke:none;" d="M559 58L561 61L559 58z"/>
<path style="fill:#2881c5; stroke:none;" d="M560 58L561 59L560 58z"/>
<path style="fill:#a15225; stroke:none;" d="M573.333 58.6667L573.667 59.3333L573.333 58.6667z"/>
<path style="fill:#2881c5; stroke:none;" d="M574 58L574 64L575 64L574 58z"/>
<path style="fill:#f4ed0c; stroke:none;" d="M576 58L577 59L576 58z"/>
<path style="fill:#fdfdfe; stroke:none;" d="M578 58L579 63L580 63L581 58L578 58z"/>
<path style="fill:#a15225; stroke:none;" d="M585 58L586 59L585 58z"/>
<path style="fill:#2881c5; stroke:none;" d="M586 58L587 59L586 58z"/>
<path style="fill:#fdfdfe; stroke:none;" d="M587 58L587 63L589 63L589 58L587 58z"/>
<path style="fill:#a15225; stroke:none;" d="M589 58L590 59L589 58z"/>
<path style="fill:#2881c5; stroke:none;" d="M590 58L591 59L590 58z"/>
<path style="fill:#a15225; stroke:none;" d="M92 59L92 64L93 64L92 59M120 59L121 60L120 59M123 59L123 62L124 62L123 59M141 59L142 60L141 59M144 59L144 62L145 62L144 59M152 59L152 62L153 62L152 59M528 59L529 60L528 59z"/>
<path style="fill:#f4ed0c; stroke:none;" d="M536 59L536 62L537 62L536 59z"/>
<path style="fill:#36502d; stroke:none;" d="M537 59L537 62L538 62L537 59z"/>
<path style="fill:#f4ed0c; stroke:none;" d="M552 59L553 60L552 59z"/>
<path style="fill:#36502d; stroke:none;" d="M560 59L561 60L560 59z"/>
<path style="fill:#a15225; stroke:none;" d="M576 59L576 62L577 62L576 59z"/>
<path style="fill:#2881c5; stroke:none;" d="M577 59L578 63L579 63L577 59z"/>
<path style="fill:#f4ed0c; stroke:none;" d="M584 59L584 62L585 62L584 59z"/>
<path style="fill:#36502d; stroke:none;" d="M585 59L585 62L586 62L585 59M590 59L590 62L591 62L590 59z"/>
<path style="fill:#a15225; stroke:none;" d="M96 60L97 61L96 60M102 60L103 61L102 60z"/>
<path style="fill:#2881c5; stroke:none;" d="M116 61L116 63L121 62L117 63L121 61L116 61M137 61L137 63L142 62L138 63L142 61L137 61z"/>
<path style="fill:#f4ed0c; stroke:none;" d="M280 60L281 61L280 60z"/>
<path style="fill:#36502d; stroke:none;" d="M281 60L281 61L284 61L281 60z"/>
<path style="fill:#2881c5; stroke:none;" d="M284 60L285 61L284 60z"/>
<path style="fill:#a15225; stroke:none;" d="M527 60L528 61L527 60z"/>
<path style="fill:#f4ed0c; stroke:none;" d="M545 60L546 61L545 60z"/>
<path style="fill:#36502d; stroke:none;" d="M546 60L546 61L550 61L546 60z"/>
<path style="fill:#a15225; stroke:none;" d="M553.333 60.6667L553.667 61.3333L553.333 60.6667z"/>
<path style="fill:#36502d; stroke:none;" d="M556 60L557 61L556 60M561 60L561 61L560 63L560 64L564 63L564 61L561 60z"/>
<path style="fill:#f4ed0c; stroke:none;" d="M569 60L570 61L569 60z"/>
<path style="fill:#36502d; stroke:none;" d="M570 60L570 61L574 61L570 60z"/>
<path style="fill:#fdfdfe; stroke:none;" d="M117 61L117 63L120 63L120 61L117 61z"/>
<path style="fill:#a15225; stroke:none;" d="M120 61L121 62L120 61z"/>
<path style="fill:#fdfdfe; stroke:none;" d="M138 61L138 63L141 63L141 61L138 61z"/>
<path style="fill:#a15225; stroke:none;" d="M141 61L142 62L141 61M526 61L527 62L526 61M545.333 61.6667L545.667 62.3333L545.333 61.6667z"/>
<path style="fill:#2881c5; stroke:none;" d="M546.333 61.6667L546.667 62.3333L546.333 61.6667z"/>
<path style="fill:#fdfdfe; stroke:none;" d="M547 61L547 63L549 63L549 61L547 61z"/>
<path style="fill:#a15225; stroke:none;" d="M549 61L549 64L550 64L549 61z"/>
<path style="fill:#2881c5; stroke:none;" d="M554 61L555 62L554 61z"/>
<path style="fill:#a15225; stroke:none;" d="M555 61L556 62L555 61z"/>
<path style="fill:#2881c5; stroke:none;" d="M556 61L557 62L556 61z"/>
<path style="fill:#f4ed0c; stroke:none;" d="M562 61L563 62L562 61z"/>
<path style="fill:#a15225; stroke:none;" d="M569.333 61.6667L569.667 62.3333L569.333 61.6667z"/>
<path style="fill:#2881c5; stroke:none;" d="M570.333 61.6667L570.667 62.3333L570.333 61.6667z"/>
<path style="fill:#fdfdfe; stroke:none;" d="M571 61L571 63L573 63L573 61L571 61z"/>
<path style="fill:#a15225; stroke:none;" d="M573 61L573 64L574 64L573 61M163 62L164 63L163 62M525.333 62.6667L525.667 63.3333L525.333 62.6667M537 62L538 63L537 62z"/>
<path style="fill:#2881c5; stroke:none;" d="M538 62L539 63L538 62z"/>
<path style="fill:#f4ed0c; stroke:none;" d="M553 62L554 63L553 62z"/>
<path style="fill:#36502d; stroke:none;" d="M554.667 62.3333L555.333 62.6667L554.667 62.3333z"/>
<path style="fill:#f4ed0c; stroke:none;" d="M576 62L578 64L576 62z"/>
<path style="fill:#36502d; stroke:none;" d="M577 62L578 63L577 62z"/>
<path style="fill:#f4ed0c; stroke:none;" d="M580 62L581 63L580 62z"/>
<path style="fill:#36502d; stroke:none;" d="M581 62L582 63L581 62z"/>
<path style="fill:#a15225; stroke:none;" d="M585 62L586 63L585 62z"/>
<path style="fill:#2881c5; stroke:none;" d="M586 62L587 63L586 62z"/>
<path style="fill:#a15225; stroke:none;" d="M589 62L590 63L589 62z"/>
<path style="fill:#2881c5; stroke:none;" d="M590 62L591 63L590 62z"/>
<path style="fill:#a15225; stroke:none;" d="M95 63L96 64L95 63M101 63L102 64L101 63M116 63L117 64L116 63M124 63L125 64L124 63M137 63L138 64L137 63z"/>
<path style="fill:#2881c5; stroke:none;" d="M154 63L154 64L158 64L154 63z"/>
<path style="fill:#36502d; stroke:none;" d="M526 63L526 64L531 64L526 63z"/>
<path style="fill:#2881c5; stroke:none;" d="M531 63L532 64L531 63z"/>
<path style="fill:#f4ed0c; stroke:none;" d="M537 63L538 64L537 63z"/>
<path style="fill:#36502d; stroke:none;" d="M538 63L538 64L541 64L538 63z"/>
<path style="fill:#2881c5; stroke:none;" d="M541 63L542 64L541 63z"/>
<path style="fill:#f4ed0c; stroke:none;" d="M545 63L546 64L545 63z"/>
<path style="fill:#36502d; stroke:none;" d="M546 63L546 64L549 64L546 63z"/>
<path style="fill:#a15225; stroke:none;" d="M554.333 63.6667L554.667 64.3333L554.333 63.6667z"/>
<path style="fill:#2881c5; stroke:none;" d="M555.333 63.6667L555.667 64.3333L555.333 63.6667z"/>
<path style="fill:#a15225; stroke:none;" d="M559 63L560 64L559 63z"/>
<path style="fill:#2881c5; stroke:none;" d="M563 63L564 64L563 63z"/>
<path style="fill:#f4ed0c; stroke:none;" d="M569 63L570 64L569 63z"/>
<path style="fill:#36502d; stroke:none;" d="M570 63L570 64L573 64L570 63z"/>
<path style="fill:#a15225; stroke:none;" d="M578 63L579 64L578 63z"/>
<path style="fill:#36502d; stroke:none;" d="M579 63L580 64L579 63z"/>
<path style="fill:#2881c5; stroke:none;" d="M580 63L581 64L580 63z"/>
<path style="fill:#a15225; stroke:none;" d="M581.333 63.6667L581.667 64.3333L581.333 63.6667z"/>
<path style="fill:#36502d; stroke:none;" d="M586 63L586 64L590 64L586 63z"/>
<path style="fill:#f4ed0c; stroke:none;" d="M871 65L871 66L877 66L877 67L874 67L874 76L873 76L873 67L866 67L866 76L865 76C864.982 71.032 864.905 68.0814 860 66L860 76L859 76L859 72L854 72L854 76L852 76L852 67L845 67L845 75L842 78L831 78L831 67L829 67L829 83C864.975 83.0238 903.426 85.6281 939 79L939 63L871 65z"/>
<path style="fill:#a15225; stroke:none;" d="M149 64L150 65L149 64z"/>
<path style="fill:#2881c5; stroke:none;" d="M834 67L845 67C844.026 62.4538 834.974 62.4537 834 67z"/>
<path style="fill:#f4ed0c; stroke:none;" d="M553 65L554 66L553 65z"/>
<path style="fill:#36502d; stroke:none;" d="M554 65L555 66L554 65z"/>
<path style="fill:#f4ed0c; stroke:none;" d="M580 65L581 66L580 65z"/>
<path style="fill:#36502d; stroke:none;" d="M581 65L582 66L581 65z"/>
<path style="fill:#2881c5; stroke:none;" d="M145 66L145 67L149 67L145 66z"/>
<path style="fill:#36502d; stroke:none;" d="M552.667 66.3333L553.333 66.6667L552.667 66.3333z"/>
<path style="fill:#a15225; stroke:none;" d="M577 66L578 67L577 66z"/>
<path style="fill:#36502d; stroke:none;" d="M578 66L578 67L581 67L578 66z"/>
<path style="fill:#fdfdfe; stroke:none;" d="M836 66L836 67L843 67L836 66z"/>
<path style="fill:#a15225; stroke:none;" d="M852 66L852 76L853 76L852 66z"/>
<path style="fill:#2881c5; stroke:none;" d="M853 66L853 70L854 70L853 66M859 66L860 67L859 66z"/>
<path style="fill:#a15225; stroke:none;" d="M861 66L862 67L861 66z"/>
<path style="fill:#36502d; stroke:none;" d="M862 66L862 67L868 67L862 66z"/>
<path style="fill:#2881c5; stroke:none;" d="M868 66L869 67L868 66z"/>
<path style="fill:#36502d; stroke:none;" d="M870 66L870 67L873 67L873 76L874 76L877 67L870 66M879 66L879 76L880 76L880 72C883.49 71.4193 884.547 70.5602 884 67L883 67L884 71L880 71L882 67L879 66z"/>
<path style="fill:#2881c5; stroke:none;" d="M882 66L883 67L882 66z"/>
<path style="fill:#a15225; stroke:none;" d="M888 66L887 68L888 66z"/>
<path style="fill:#36502d; stroke:none;" d="M889 66L889 67L892 67L889 66M900 66L901 67L900 66M904 69L909 67L904 69z"/>
<path style="fill:#2881c5; stroke:none;" d="M909 66L910 67L909 66z"/>
<path style="fill:#36502d; stroke:none;" d="M913 66L913 76L914 76L914 72C917.058 71.4919 920.058 69.773 917 67L918 71L914 71L916 67L913 66z"/>
<path style="fill:#2881c5; stroke:none;" d="M916 66L917 67L916 66z"/>
<path style="fill:#a15225; stroke:none;" d="M924 66L925 67L924 66z"/>
<path style="fill:#36502d; stroke:none;" d="M925.667 66.3333L926.333 66.6667L925.667 66.3333z"/>
<path style="fill:#2881c5; stroke:none;" d="M927 66L928 67L927 66z"/>
<path style="fill:#36502d; stroke:none;" d="M930 66L931 67L930 66z"/>
<path style="fill:#2881c5; stroke:none;" d="M831 67L832 68L831 67z"/>
<path style="fill:#36502d; stroke:none;" d="M845 67L843 67L843 73C840.067 65.3507 828.531 65.2219 831.319 74.8519C834.223 84.8855 844.928 73.1304 845 67z"/>
<path style="fill:#2881c5; stroke:none;" d="M841 67L842 68L841 67z"/>
<path style="fill:#f4ed0c; stroke:none;" d="M842 67L842 73L843 73L842 67M854 67L854 70L859 70L859 67L854 67z"/>
<path style="fill:#36502d; stroke:none;" d="M859 67L859 76L860 76L859 67z"/>
<path style="fill:#a15225; stroke:none;" d="M864 67L865 68L864 67z"/>
<path style="fill:#2881c5; stroke:none;" d="M865 67L865 76L866 76L865 67z"/>
<path style="fill:#f4ed0c; stroke:none;" d="M880 67L880 71L884 71L880 67z"/>
<path style="fill:#2881c5; stroke:none;" d="M884 67L885 68L884 67z"/>
<path style="fill:#36502d; stroke:none;" d="M888 67L889 68L888 67z"/>
<path style="fill:#a15225; stroke:none;" d="M899 67L900 68L899 67z"/>
<path style="fill:#2881c5; stroke:none;" d="M900 67L901 68L900 67z"/>
<path style="fill:#a15225; stroke:none;" d="M904 67L905 68L904 67M909 67L910 68L909 67z"/>
<path style="fill:#f4ed0c; stroke:none;" d="M914 67L914 71L918 71L914 67z"/>
<path style="fill:#a15225; stroke:none;" d="M922 67L923 68L922 67z"/>
<path style="fill:#36502d; stroke:none;" d="M923 67L924 68L923 67z"/>
<path style="fill:#2881c5; stroke:none;" d="M924 67L925 68L924 67z"/>
<path style="fill:#a15225; stroke:none;" d="M930 67L931 68L930 67z"/>
<path style="fill:#2881c5; stroke:none;" d="M931 67L932 68L931 67z"/>
<path style="fill:#36502d; stroke:none;" d="M887 68L888 69L887 68M899 68L899 75L900 75L899 68z"/>
<path style="fill:#a15225; stroke:none;" d="M903.333 68.6667L903.667 69.3333L903.333 68.6667z"/>
<path style="fill:#36502d; stroke:none;" d="M922 68L923 69L922 68M931.333 68.6667L931.667 69.3333L931.333 68.6667z"/>
<path style="fill:#f4ed0c; stroke:none;" d="M833 69L833 76L840 76L840 69L833 69z"/>
<path style="fill:#a15225; stroke:none;" d="M887 69L888 70L887 69z"/>
<path style="fill:#2881c5; stroke:none;" d="M888 69L889 70L888 69z"/>
<path style="fill:#a15225; stroke:none;" d="M921.333 69.6667L921.667 70.3333L921.333 69.6667z"/>
<path style="fill:#2881c5; stroke:none;" d="M922 69L923 70L922 69z"/>
<path style="fill:#36502d; stroke:none;" d="M853.333 70.6667L853.667 71.3333L853.333 70.6667z"/>
<path style="fill:#a15225; stroke:none;" d="M854 70L854 72L859 72L859 70L854 70z"/>
<path style="fill:#36502d; stroke:none;" d="M888.667 70.3333L889.333 70.6667L888.667 70.3333M903 70L903 73L904 73L903 70z"/>
<path style="fill:#a15225; stroke:none;" d="M931 70L931 74L932 74L931 70z"/>
<path style="fill:#2881c5; stroke:none;" d="M932 70L932 73L933 73L932 70z"/>
<path style="fill:#36502d; stroke:none;" d="M890.667 71.3333L891.333 71.6667L890.667 71.3333z"/>
<path style="fill:#a15225; stroke:none;" d="M907 71L908 72L907 71z"/>
<path style="fill:#36502d; stroke:none;" d="M908.667 71.3333L909.333 71.6667L908.667 71.3333z"/>
<path style="fill:#2881c5; stroke:none;" d="M910 71L910 75L911 75L910 71z"/>
<path style="fill:#36502d; stroke:none;" d="M921 71L922 72L921 71z"/>
<path style="fill:#2881c5; stroke:none;" d="M853 72L853 76L854 76L853 72z"/>
<path style="fill:#36502d; stroke:none;" d="M892 72L888 75L888 76C890.758 75.5486 892.688 75.0455 892 72z"/>
<path style="fill:#a15225; stroke:none;" d="M909 72L909 75L910 75L909 72M916 72L917 73L916 72z"/>
<path style="fill:#2881c5; stroke:none;" d="M917 72L918 73L917 72z"/>
<path style="fill:#a15225; stroke:none;" d="M921.333 72.6667L921.667 73.3333L921.333 72.6667z"/>
<path style="fill:#2881c5; stroke:none;" d="M922 72L923 73L922 72z"/>
<path style="fill:#a15225; stroke:none;" d="M903 73L904 74L903 73z"/>
<path style="fill:#2881c5; stroke:none;" d="M904 73L906 75L904 73z"/>
<path style="fill:#36502d; stroke:none;" d="M917 73L918 74L917 73M922.333 73.6667L922.667 74.3333L922.333 73.6667z"/>
<path style="fill:#2881c5; stroke:none;" d="M844 74L845 75L844 74z"/>
<path style="fill:#a15225; stroke:none;" d="M891 74L892 75L891 74z"/>
<path style="fill:#36502d; stroke:none;" d="M904 74L905 75L904 74M918 74L919 75L918 74z"/>
<path style="fill:#2881c5; stroke:none;" d="M923 74L924 75L923 74z"/>
<path style="fill:#36502d; stroke:none;" d="M931.333 74.6667L931.667 75.3333L931.333 74.6667z"/>
<path style="fill:#a15225; stroke:none;" d="M887 75L888 76L887 75M899 75L900 76L899 75z"/>
<path style="fill:#36502d; stroke:none;" d="M905 75L905 76L910 76L905 75z"/>
<path style="fill:#a15225; stroke:none;" d="M918 75L919 76L918 75z"/>
<path style="fill:#2881c5; stroke:none;" d="M919 75L920 76L919 75z"/>
<path style="fill:#a15225; stroke:none;" d="M923 75L924 76L923 75z"/>
<path style="fill:#36502d; stroke:none;" d="M924 75L924 76L928 76L924 75z"/>
<path style="fill:#2881c5; stroke:none;" d="M900 76L901 77L900 76z"/>
<path style="fill:#a15225; stroke:none;" d="M930 76L931 77L930 76z"/>
<path style="fill:#2881c5; stroke:none;" d="M931 76L932 77L931 76M831 77L832 78L831 77M841 77L842 78L841 77z"/>
<path style="fill:#a15225; stroke:none;" d="M900 77L901 78L900 77z"/>
<path style="fill:#36502d; stroke:none;" d="M930 77L931 78L930 77z"/>
<path style="fill:#a15225; stroke:none;" d="M282 96L281 98L282 96z"/>
<path style="fill:#36502d; stroke:none;" d="M283.667 96.3333L284.333 96.6667L283.667 96.3333z"/>
<path style="fill:#2881c5; stroke:none;" d="M285 96L286 97L285 96z"/>
<path style="fill:#a15225; stroke:none;" d="M312 96L312 106L313 106L312 96z"/>
<path style="fill:#2881c5; stroke:none;" d="M313 96L315 98L313 96z"/>
<path style="fill:#a15225; stroke:none;" d="M320 96L318 100C321.102 100 320 103.367 320 106L321 106L320 96z"/>
<path style="fill:#2881c5; stroke:none;" d="M321 96L321 106L322 106L321 96z"/>
<path style="fill:#a15225; stroke:none;" d="M331 96L331 106L332 106L331 96z"/>
<path style="fill:#2881c5; stroke:none;" d="M332 96L332 102L333 102L332 96z"/>
<path style="fill:#f4ed0c; stroke:none;" d="M354 96L354 106L355 106L354 96z"/>
<path style="fill:#36502d; stroke:none;" d="M355 96L357 99L355 96z"/>
<path style="fill:#a15225; stroke:none;" d="M362 96L363 97L362 96z"/>
<path style="fill:#2881c5; stroke:none;" d="M363 96L363 106L364 106L363 96z"/>
<path style="fill:#a15225; stroke:none;" d="M379 96L379 99L380 99L379 96z"/>
<path style="fill:#2881c5; stroke:none;" d="M380 96L380 106L381 106L380 96z"/>
<path style="fill:#a15225; stroke:none;" d="M390 96L390 106L391 106L390 96z"/>
<path style="fill:#2881c5; stroke:none;" d="M391 96L392 106L393 106L391 96z"/>
<path style="fill:#f4ed0c; stroke:none;" d="M397 96L397 106L398 106L397 96z"/>
<path style="fill:#36502d; stroke:none;" d="M398 96L398 106L399 106L399 100L403 100L403 99L398 96z"/>
<path style="fill:#a15225; stroke:none;" d="M414 96L415 97L414 96z"/>
<path style="fill:#2881c5; stroke:none;" d="M415 96L416 97L415 96z"/>
<path style="fill:#f4ed0c; stroke:none;" d="M417 96L417 105L418 105L417 96z"/>
<path style="fill:#36502d; stroke:none;" d="M418 96L419 106L420 106L418 96z"/>
<path style="fill:#a15225; stroke:none;" d="M426 96L426 99L427 99L426 96z"/>
<path style="fill:#2881c5; stroke:none;" d="M427 96L427 106L428 106L427 96z"/>
<path style="fill:#a15225; stroke:none;" d="M430.333 96.6667L430.667 97.3333L430.333 96.6667z"/>
<path style="fill:#2881c5; stroke:none;" d="M431 96L432 97L431 96z"/>
<path style="fill:#36502d; stroke:none;" d="M282 97L283 98L282 97z"/>
<path style="fill:#2881c5; stroke:none;" d="M286 97L287 98L286 97z"/>
<path style="fill:#36502d; stroke:none;" d="M313 97L313 99L315 99L313 97M320.333 97.6667L320.667 98.3333L320.333 97.6667z"/>
<path style="fill:#2881c5; stroke:none;" d="M356 97L357 98L356 97z"/>
<path style="fill:#36502d; stroke:none;" d="M362 97L361 100L362 97z"/>
<path style="fill:#f4ed0c; stroke:none;" d="M414 97L415 98L414 97z"/>
<path style="fill:#36502d; stroke:none;" d="M281 98L282 99L281 98z"/>
<path style="fill:#a15225; stroke:none;" d="M361 98L362 99L361 98M281 99L282 100L281 99z"/>
<path style="fill:#2881c5; stroke:none;" d="M282 99L283 100L282 99z"/>
<path style="fill:#a15225; stroke:none;" d="M289 99L290 100L289 99z"/>
<path style="fill:#36502d; stroke:none;" d="M290 99L290 100L294 100L290 99z"/>
<path style="fill:#a15225; stroke:none;" d="M297 99L296 104L297 104L297 99z"/>
<path style="fill:#36502d; stroke:none;" d="M298 99L298 100L302 100L298 99z"/>
<path style="fill:#a15225; stroke:none;" d="M305 99L306 100L305 99z"/>
<path style="fill:#36502d; stroke:none;" d="M306 99L306 100L310 101L310 100L306 99z"/>
<path style="fill:#2881c5; stroke:none;" d="M309 99L310 100L309 99M313 99L313 106L314 106L313 99z"/>
<path style="fill:#a15225; stroke:none;" d="M314 99L315 100L314 99z"/>
<path style="fill:#2881c5; stroke:none;" d="M315 99L316 100L315 99M319 99L320 100L319 99z"/>
<path style="fill:#a15225; stroke:none;" d="M324 99L325 100L324 99z"/>
<path style="fill:#36502d; stroke:none;" d="M325 99L325 100L328 101L324 103L324 105L327 106L327 105L325 103L328 105L329 105C328.737 101.59 328.321 100.099 325 99z"/>
<path style="fill:#2881c5; stroke:none;" d="M328 99L329 100L328 99z"/>
<path style="fill:#36502d; stroke:none;" d="M335 99L336 100L335 99z"/>
<path style="fill:#2881c5; stroke:none;" d="M336 99L337 100L336 99z"/>
<path style="fill:#36502d; stroke:none;" d="M339 99L339 100L343 100L339 99z"/>
<path style="fill:#f4ed0c; stroke:none;" d="M345 99L345 106L346 106L345 99z"/>
<path style="fill:#2881c5; stroke:none;" d="M346 99L347 100L346 99z"/>
<path style="fill:#a15225; stroke:none;" d="M347 99L348 100L347 99z"/>
<path style="fill:#36502d; stroke:none;" d="M348 99L349 100L348 99z"/>
<path style="fill:#2881c5; stroke:none;" d="M349 99L350 100L349 99M355 99L355 106L356 106L355 99z"/>
<path style="fill:#f4ed0c; stroke:none;" d="M356 99L357 100L356 99z"/>
<path style="fill:#2881c5; stroke:none;" d="M357 99L358 100L357 99z"/>
<path style="fill:#f4ed0c; stroke:none;" d="M360 99L361 100L360 99M362 99L362 106L363 106L362 99z"/>
<path style="fill:#a15225; stroke:none;" d="M367 99L366 101L367 99z"/>
<path style="fill:#36502d; stroke:none;" d="M368 99L368 100L372 101L372 100L368 99z"/>
<path style="fill:#a15225; stroke:none;" d="M375 99L375 106L376 106L375 99z"/>
<path style="fill:#36502d; stroke:none;" d="M376 99L376 100L380 100L376 99z"/>
<path style="fill:#a15225; stroke:none;" d="M383 99L384 100L383 99z"/>
<path style="fill:#36502d; stroke:none;" d="M384 99L384 100L388 101L388 100L384 99z"/>
<path style="fill:#2881c5; stroke:none;" d="M387 99L388 100L387 99z"/>
<path style="fill:#36502d; stroke:none;" d="M406 99C406.12 102.692 406.313 104.777 410 106L410 105L407 105L406 99z"/>
<path style="fill:#f4ed0c; stroke:none;" d="M410 99L410 104L411 104L410 99z"/>
<path style="fill:#2881c5; stroke:none;" d="M411 99L411 106L412 106L411 99z"/>
<path style="fill:#a15225; stroke:none;" d="M414 99L414 106L415 106L414 99z"/>
<path style="fill:#2881c5; stroke:none;" d="M415 99L415 106L416 106L415 99z"/>
<path style="fill:#a15225; stroke:none;" d="M422 99L423 100L422 99z"/>
<path style="fill:#36502d; stroke:none;" d="M422 100L422 101L427 100L422 100z"/>
<path style="fill:#a15225; stroke:none;" d="M430 99L430 106L431 106L430 99M433 99L433 106L434 106L433 99z"/>
<path style="fill:#2881c5; stroke:none;" d="M434 99L435 100L434 99z"/>
<path style="fill:#a15225; stroke:none;" d="M435 99L436 100L435 99z"/>
<path style="fill:#36502d; stroke:none;" d="M436 99L436 100L439 100L436 99z"/>
<path style="fill:#a15225; stroke:none;" d="M442 99L443 100L442 99z"/>
<path style="fill:#36502d; stroke:none;" d="M442 100L442 101L446 100L442 100z"/>
<path style="fill:#a15225; stroke:none;" d="M446 99L446 104L447 104L446 99z"/>
<path style="fill:#2881c5; stroke:none;" d="M447 99L447 107L448 107L447 99z"/>
<path style="fill:#f4ed0c; stroke:none;" d="M281 100L282 101L281 100z"/>
<path style="fill:#36502d; stroke:none;" d="M282 100L282 101L286 105L282 105L282 106C287.403 105.099 286.595 101.692 282 100z"/>
<path style="fill:#2881c5; stroke:none;" d="M284 100L285 101L284 100z"/>
<path style="fill:#a15225; stroke:none;" d="M293.333 100.667L293.667 101.333L293.333 100.667z"/>
<path style="fill:#2881c5; stroke:none;" d="M297 100L298 105L299 105L297 100z"/>
<path style="fill:#fdfdfe; stroke:none;" d="M298 100L299 105L300 105L301 100L298 100z"/>
<path style="fill:#a15225; stroke:none;" d="M301 100L301 107L302 107L301 100z"/>
<path style="fill:#f4ed0c; stroke:none;" d="M304 100L305 101L304 100z"/>
<path style="fill:#2881c5; stroke:none;" d="M305.333 100.667L305.667 101.333L305.333 100.667z"/>
<path style="fill:#fdfdfe; stroke:none;" d="M306 100L306 102L309 102L309 100L306 100z"/>
<path style="fill:#f4ed0c; stroke:none;" d="M314 100L315 101L314 100z"/>
<path style="fill:#36502d; stroke:none;" d="M315 100L316 101L315 100M318 100L319 101L318 100z"/>
<path style="fill:#a15225; stroke:none;" d="M334 100L333 102L334 100z"/>
<path style="fill:#2881c5; stroke:none;" d="M335 100L336 101L335 100z"/>
<path style="fill:#a15225; stroke:none;" d="M338 100L339 101L338 100z"/>
<path style="fill:#2881c5; stroke:none;" d="M339 100L340 101L339 100z"/>
<path style="fill:#fdfdfe; stroke:none;" d="M339 102L342 100L339 102z"/>
<path style="fill:#a15225; stroke:none;" d="M342 100L343 101L342 100z"/>
<path style="fill:#2881c5; stroke:none;" d="M343 100L343 103L344 103L343 100z"/>
<path style="fill:#36502d; stroke:none;" d="M346 100L346 106L347 106L346 100z"/>
<path style="fill:#a15225; stroke:none;" d="M357 100L358 101L357 100M360 100L361 101L360 100z"/>
<path style="fill:#2881c5; stroke:none;" d="M361 100L362 101L361 100M367 100L368 101L367 100z"/>
<path style="fill:#fdfdfe; stroke:none;" d="M368 100L368 105L370 105L370 100L368 100z"/>
<path style="fill:#f4ed0c; stroke:none;" d="M370 100L371 101L370 100z"/>
<path style="fill:#2881c5; stroke:none;" d="M375 100L375 104L376 104L375 100z"/>
<path style="fill:#fdfdfe; stroke:none;" d="M376 100L376 105L379 105L379 100L376 100z"/>
<path style="fill:#a15225; stroke:none;" d="M379 100L379 106L380 106L379 100z"/>
<path style="fill:#f4ed0c; stroke:none;" d="M382 100L383 101L382 100z"/>
<path style="fill:#2881c5; stroke:none;" d="M383.333 100.667L383.667 101.333L383.333 100.667z"/>
<path style="fill:#fdfdfe; stroke:none;" d="M384 100L384 102L387 102L387 100L384 100M399 100L399 105L402 105L402 100L399 100z"/>
<path style="fill:#a15225; stroke:none;" d="M402 100L403 101L402 100z"/>
<path style="fill:#2881c5; stroke:none;" d="M403 100L404 101L403 100z"/>
<path style="fill:#f4ed0c; stroke:none;" d="M421 100L422 101L421 100z"/>
<path style="fill:#fdfdfe; stroke:none;" d="M423 100L423 105L426 105L426 100L423 100z"/>
<path style="fill:#a15225; stroke:none;" d="M426 100L426 106L427 106L426 100z"/>
<path style="fill:#36502d; stroke:none;" d="M434 100L435 101L434 100z"/>
<path style="fill:#a15225; stroke:none;" d="M438 100L438 106L439 106L438 100z"/>
<path style="fill:#2881c5; stroke:none;" d="M439 100L439 106L440 106L439 100z"/>
<path style="fill:#f4ed0c; stroke:none;" d="M441 100L442 101L441 100z"/>
<path style="fill:#fdfdfe; stroke:none;" d="M443 100L444 105L445 105L446 100L443 100z"/>
<path style="fill:#a15225; stroke:none;" d="M283 101L284 102L283 101z"/>
<path style="fill:#2881c5; stroke:none;" d="M286 101L287 102L286 101z"/>
<path style="fill:#a15225; stroke:none;" d="M304 101L304 104L305 104L304 101M309 101L310 102L309 101M315 101L316 102L315 101z"/>
<path style="fill:#2881c5; stroke:none;" d="M316 101L317 102L316 101z"/>
<path style="fill:#a15225; stroke:none;" d="M317 101L318 102L317 101z"/>
<path style="fill:#2881c5; stroke:none;" d="M318 101L319 102L318 101M334 101L335 102L334 101z"/>
<path style="fill:#36502d; stroke:none;" d="M338 101L338 104L339 104L343 103L343 102L338 101z"/>
<path style="fill:#f4ed0c; stroke:none;" d="M342 101L343 102L342 101M357 101L358 102L357 101z"/>
<path style="fill:#2881c5; stroke:none;" d="M358 101L359 102L358 101z"/>
<path style="fill:#f4ed0c; stroke:none;" d="M359 101L360 102L359 101z"/>
<path style="fill:#36502d; stroke:none;" d="M360 101L359 103L360 101M366 101L366 104L367 104L366 101z"/>
<path style="fill:#a15225; stroke:none;" d="M371 101L371 104L372 104L371 101M382 101L382 104L383 104L382 101M387 101L388 102L387 101z"/>
<path style="fill:#f4ed0c; stroke:none;" d="M402 101L402 104L403 104L402 101z"/>
<path style="fill:#36502d; stroke:none;" d="M403 101L403 104L404 104L403 101z"/>
<path style="fill:#a15225; stroke:none;" d="M421 101L421 104L422 104L421 101z"/>
<path style="fill:#2881c5; stroke:none;" d="M422 101L422 104L423 104L422 101M434 101L434 106L435 106L434 101z"/>
<path style="fill:#a15225; stroke:none;" d="M441 101L441 104L442 104L441 101z"/>
<path style="fill:#2881c5; stroke:none;" d="M442 101L443 105L444 105L442 101z"/>
<path style="fill:#a15225; stroke:none;" d="M285 102L286 103L285 102M289 102L290 103L289 102z"/>
<path style="fill:#36502d; stroke:none;" d="M289 103L289 105L292 106L292 105L290 103L294 103L289 103M305 102L305 103L310 103L305 102M316.667 102.333L317.333 102.667L316.667 102.333z"/>
<path style="fill:#a15225; stroke:none;" d="M324 102L325 103L324 102z"/>
<path style="fill:#36502d; stroke:none;" d="M332.667 102.333L333.333 102.667L332.667 102.333z"/>
<path style="fill:#f4ed0c; stroke:none;" d="M337 102L338 103L337 102z"/>
<path style="fill:#a15225; stroke:none;" d="M358 102L359 103L358 102z"/>
<path style="fill:#2881c5; stroke:none;" d="M360 102L361 103L360 102z"/>
<path style="fill:#f4ed0c; stroke:none;" d="M365 102L366 103L365 102z"/>
<path style="fill:#2881c5; stroke:none;" d="M372 102L373 103L372 102z"/>
<path style="fill:#36502d; stroke:none;" d="M383 102L383 103L388 103L383 102z"/>
<path style="fill:#f4ed0c; stroke:none;" d="M288.333 103.667L288.667 104.333L288.333 103.667z"/>
<path style="fill:#fdfdfe; stroke:none;" d="M290 103L290 105L293 105L293 103L290 103z"/>
<path style="fill:#a15225; stroke:none;" d="M293 103L293 106L294 106L293 103z"/>
<path style="fill:#2881c5; stroke:none;" d="M305 103L306 104L305 103z"/>
<path style="fill:#f4ed0c; stroke:none;" d="M316 103L317 104L316 103M323.333 103.667L323.667 104.333L323.333 103.667z"/>
<path style="fill:#fdfdfe; stroke:none;" d="M325 105L328 103L325 105z"/>
<path style="fill:#2881c5; stroke:none;" d="M332 103L332 106L333 106L332 103z"/>
<path style="fill:#a15225; stroke:none;" d="M333 103L336 106L333 103z"/>
<path style="fill:#2881c5; stroke:none;" d="M334 103L335 104L334 103M359 103L360 104L359 103M383 103L384 104L383 103z"/>
<path style="fill:#a15225; stroke:none;" d="M285 104L286 105L285 104z"/>
<path style="fill:#f4ed0c; stroke:none;" d="M296 104L298 106L296 104z"/>
<path style="fill:#36502d; stroke:none;" d="M297 104L298 105L297 104M301 104L302 105L301 104z"/>
<path style="fill:#f4ed0c; stroke:none;" d="M304 104L305 105L304 104z"/>
<path style="fill:#36502d; stroke:none;" d="M305 104L305 105L310 106L310 105L305 104z"/>
<path style="fill:#f4ed0c; stroke:none;" d="M327 104L328 105L327 104z"/>
<path style="fill:#2881c5; stroke:none;" d="M335 104L336 105L335 104z"/>
<path style="fill:#a15225; stroke:none;" d="M338 104L340 106L338 104z"/>
<path style="fill:#2881c5; stroke:none;" d="M339 104L340 105L339 104z"/>
<path style="fill:#a15225; stroke:none;" d="M366 104L368 106L366 104z"/>
<path style="fill:#2881c5; stroke:none;" d="M367 104L368 105L367 104z"/>
<path style="fill:#f4ed0c; stroke:none;" d="M370 104L371 105L370 104z"/>
<path style="fill:#36502d; stroke:none;" d="M371 104L372 105L371 104M375 104L376 105L375 104z"/>
<path style="fill:#f4ed0c; stroke:none;" d="M382 104L383 105L382 104z"/>
<path style="fill:#36502d; stroke:none;" d="M383 104L383 105L388 106L388 105L383 104z"/>
<path style="fill:#a15225; stroke:none;" d="M402 104L403 105L402 104z"/>
<path style="fill:#2881c5; stroke:none;" d="M403 104L404 105L403 104M407 104L408 105L407 104z"/>
<path style="fill:#a15225; stroke:none;" d="M410.333 104.667L410.667 105.333L410.333 104.667z"/>
<path style="fill:#f4ed0c; stroke:none;" d="M421 104L422 105L421 104z"/>
<path style="fill:#36502d; stroke:none;" d="M422 104L422 105L426 106L426 105L422 104z"/>
<path style="fill:#f4ed0c; stroke:none;" d="M441 104L443 106L441 104z"/>
<path style="fill:#36502d; stroke:none;" d="M442 104L443 105L442 104z"/>
<path style="fill:#f4ed0c; stroke:none;" d="M445 104L446 105L445 104z"/>
<path style="fill:#36502d; stroke:none;" d="M446 104L447 105L446 104z"/>
<path style="fill:#a15225; stroke:none;" d="M281 105L282 106L281 105M289 105L290 106L289 105z"/>
<path style="fill:#2881c5; stroke:none;" d="M292 105L293 106L292 105z"/>
<path style="fill:#36502d; stroke:none;" d="M298.667 105.333L299.333 105.667L298.667 105.333z"/>
<path style="fill:#a15225; stroke:none;" d="M305 105L306 106L305 105M324 105L325 106L324 105z"/>
<path style="fill:#2881c5; stroke:none;" d="M327 105L328 106L327 105z"/>
<path style="fill:#a15225; stroke:none;" d="M328 105L329 106L328 105z"/>
<path style="fill:#2881c5; stroke:none;" d="M336 105L337 106L336 105z"/>
<path style="fill:#36502d; stroke:none;" d="M340 105L340 106L343 106L340 105z"/>
<path style="fill:#2881c5; stroke:none;" d="M343 105L344 106L343 105z"/>
<path style="fill:#36502d; stroke:none;" d="M368 105L368 106L371 106L368 105M376.667 105.333L377.333 105.667L376.667 105.333z"/>
<path style="fill:#2881c5; stroke:none;" d="M378 105L379 106L378 105z"/>
<path style="fill:#a15225; stroke:none;" d="M383 105L384 106L383 105z"/>
<path style="fill:#36502d; stroke:none;" d="M391 105L392 106L391 105z"/>
<path style="fill:#a15225; stroke:none;" d="M399 105L400 106L399 105z"/>
<path style="fill:#36502d; stroke:none;" d="M400.667 105.333L401.333 105.667L400.667 105.333z"/>
<path style="fill:#2881c5; stroke:none;" d="M402 105L403 106L402 105z"/>
<path style="fill:#a15225; stroke:none;" d="M406 105L407 106L406 105M418 105L419 106L418 105M422 105L423 106L422 105M443 105L444 106L443 105z"/>
<path style="fill:#36502d; stroke:none;" d="M444 105L445 106L444 105z"/>
<path style="fill:#2881c5; stroke:none;" d="M445 105L446 106L445 105z"/>
<path style="fill:#a15225; stroke:none;" d="M446.333 105.667L446.667 106.333L446.333 105.667z"/>
<path style="fill:#2881c5; stroke:none;" d="M132 106L132 116L133 116L138 116L137 109L133 111L132 106z"/>
<path style="fill:#f4ed0c; stroke:none;" d="M300 107L301 108L300 107z"/>
<path style="fill:#36502d; stroke:none;" d="M301 107L302 108L301 107z"/>
<path style="fill:#f4ed0c; stroke:none;" d="M445 107L446 108L445 107z"/>
<path style="fill:#36502d; stroke:none;" d="M446 107L447 108L446 107z"/>
<path style="fill:#a15225; stroke:none;" d="M297 108L298 109L297 108z"/>
<path style="fill:#36502d; stroke:none;" d="M298.667 108.333L299.333 108.667L298.667 108.333z"/>
<path style="fill:#2881c5; stroke:none;" d="M300 108L301 109L300 108z"/>
<path style="fill:#a15225; stroke:none;" d="M442 108L443 109L442 108z"/>
<path style="fill:#36502d; stroke:none;" d="M443 108L443 109L446 109L443 108z"/>
<path style="fill:#2881c5; stroke:none;" d="M83 109L87 114L87 115L83 115L83 116L88 115L88 113L84 111L87 110L83 109z"/>
<path style="fill:#a15225; stroke:none;" d="M89 109L90 110L89 109z"/>
<path style="fill:#2881c5; stroke:none;" d="M90 109L90 110L94 111L90 109z"/>
<path style="fill:#a15225; stroke:none;" d="M97 109L98 110L97 109z"/>
<path style="fill:#2881c5; stroke:none;" d="M101 118L102 118L103 109C90.8819 109 101.328 116.687 101 118z"/>
<path style="fill:#a15225; stroke:none;" d="M105 109L106 110L105 109z"/>
<path style="fill:#2881c5; stroke:none;" d="M105 115L106 115L110 113L110 109C106.089 109.652 105.3 111.136 105 115z"/>
<path style="fill:#a15225; stroke:none;" d="M112 109L112 116L113 116L112 109z"/>
<path style="fill:#2881c5; stroke:none;" d="M113 109L113 116L114 116L114 110L117 110L117 116L118 116L118 110L122 116C124.796 109.094 118.063 109.004 113 109M125 109L125 110L129 110L129 112L125 112L125 116L130 116L130 109L125 109M145 116L145 115L140 114L140 113L145 113C142.51 105.509 135.082 115.227 145 116z"/>
<path style="fill:#a15225; stroke:none;" d="M146 109L146 116L147 116L146 109z"/>
<path style="fill:#2881c5; stroke:none;" d="M147 109L147 116L148 116L147 109z"/>
<path style="fill:#a15225; stroke:none;" d="M148 109L149 110L148 109z"/>
<path style="fill:#2881c5; stroke:none;" d="M149.667 109.333L150.333 109.667L149.667 109.333z"/>
<path style="fill:#fdfdfe; stroke:none;" d="M98 110L101 115L101 110L98 110z"/>
<path style="fill:#a15225; stroke:none;" d="M101 110L101 114L102 114L101 110z"/>
<path style="fill:#fdfdfe; stroke:none;" d="M106 110L106 112L109 112L109 110L106 110M140 110L140 112L143 112L143 110L140 110z"/>
<path style="fill:#a15225; stroke:none;" d="M143.333 110.667L143.667 111.333L143.333 110.667M93 111L94 112L93 111M96 111L96 114L97 114L96 111M104 111L104 114L105 114L104 111M121 111L121 116L122 116L121 111z"/>
<path style="fill:#2881c5; stroke:none;" d="M89 113L89 115L94 114L90 115L94 113L89 113z"/>
<path style="fill:#a15225; stroke:none;" d="M151 112L152 113L151 112z"/>
<path style="fill:#2881c5; stroke:none;" d="M152 112L152 113L155 113L152 112M834 112L831 115L831 125L845 123L845 112L834 112M913 112L910 115L910 125L924 123L924 112L913 112z"/>
<path style="fill:#fdfdfe; stroke:none;" d="M90 113L90 115L93 115L93 113L90 113z"/>
<path style="fill:#a15225; stroke:none;" d="M93 113L94 114L93 113M124.333 113.667L124.667 114.333L124.333 113.667z"/>
<path style="fill:#fdfdfe; stroke:none;" d="M126 113L126 115L129 115L129 113L126 113z"/>
<path style="fill:#a15225; stroke:none;" d="M86 114L87 115L86 114z"/>
<path style="fill:#fdfdfe; stroke:none;" d="M836 114L836 115L842 115L842 121L843 121L843 114L836 114z"/>
<path style="fill:#a15225; stroke:none;" d="M852 114L852 124L853 124L852 114z"/>
<path style="fill:#2881c5; stroke:none;" d="M853 114L853 124L854 124L854 120L859 120L859 124L860 124L860 114L859 114L859 118L854 118L853 114z"/>
<path style="fill:#a15225; stroke:none;" d="M861 114L862 115L861 114z"/>
<path style="fill:#2881c5; stroke:none;" d="M862 114L862 115L865 124L866 124L869 115L862 114M870 114L870 115L873 115L873 124L874 124L877 115L870 114M879 114L879 124L880 124L880 120L885 120C884.657 115.703 883.249 114.489 879 114M887 118L892 123L887 123L887 124C893.306 123.509 893.428 119.584 888 117L888 116L893 116C889.995 113.785 888.348 114.653 887 118z"/>
<path style="fill:#fdfdfe; stroke:none;" d="M915 114L915 115L921 115L921 121L922 121L922 114L915 114z"/>
<path style="fill:#2881c5; stroke:none;" d="M931 118L936 123L931 123L931 124C937.306 123.509 937.428 119.584 932 117L932 116L937 116C933.995 113.785 932.348 114.653 931 118M944 123L939 123L939 124C945.981 123.456 943.971 119.763 940 116L944 115C936.476 112.532 942.655 120.648 944 123z"/>
<path style="fill:#a15225; stroke:none;" d="M947 114L947 124L948 124L947 114z"/>
<path style="fill:#2881c5; stroke:none;" d="M948 114L948 124L949 124L949 120L954 120L954 124L955 124L955 114L954 114L954 118L949 118L948 114z"/>
<path style="fill:#a15225; stroke:none;" d="M89 115L90 116L89 115z"/>
<path style="fill:#2881c5; stroke:none;" d="M106 115L106 116L110 116L106 115z"/>
<path style="fill:#f4ed0c; stroke:none;" d="M314 115L315 116L314 115z"/>
<path style="fill:#2881c5; stroke:none;" d="M315 115L314 119L315 119L317 116L315 115z"/>
<path style="fill:#a15225; stroke:none;" d="M358 115L359 116L358 115z"/>
<path style="fill:#fdfdfe; stroke:none;" d="M880 115L880 119L884 119L880 115z"/>
<path style="fill:#a15225; stroke:none;" d="M887 115L888 116L887 115M931 115L932 116L931 115M953 115L953 118L954 118L953 115M101 116L102 117L101 116M305 116L305 125L306 125L305 116z"/>
<path style="fill:#2881c5; stroke:none;" d="M306 116L306 122L307 122L306 116z"/>
<path style="fill:#a15225; stroke:none;" d="M313 116L313 119L314 119L313 116z"/>
<path style="fill:#36502d; stroke:none;" d="M314 116L315 117L314 116z"/>
<path style="fill:#f4ed0c; stroke:none;" d="M317 116L317 125L318 125L317 116z"/>
<path style="fill:#36502d; stroke:none;" d="M318 116L318 125L319 125L318 116z"/>
<path style="fill:#a15225; stroke:none;" d="M344 116L345 117L344 116z"/>
<path style="fill:#2881c5; stroke:none;" d="M345 116L346 117L345 116z"/>
<path style="fill:#f4ed0c; stroke:none;" d="M356 116L357 117L356 116z"/>
<path style="fill:#36502d; stroke:none;" d="M357 116L358 117L357 116z"/>
<path style="fill:#2881c5; stroke:none;" d="M358.667 116.333L359.333 116.667L358.667 116.333z"/>
<path style="fill:#36502d; stroke:none;" d="M471 116L467 119L467 120L471 120L471 125L472 125L471 116z"/>
<path style="fill:#a15225; stroke:none;" d="M864 116L864 124L865 124L864 116z"/>
<path style="fill:#fdfdfe; stroke:none;" d="M315 117L315 119L317 119L317 117L315 117z"/>
<path style="fill:#f4ed0c; stroke:none;" d="M344 117L345 118L344 117z"/>
<path style="fill:#a15225; stroke:none;" d="M356 117L356 125L357 125L356 117z"/>
<path style="fill:#2881c5; stroke:none;" d="M357.333 117.667L357.667 118.333L357.333 117.667z"/>
<path style="fill:#f4ed0c; stroke:none;" d="M380 117L381 118L380 117z"/>
<path style="fill:#2881c5; stroke:none;" d="M381.333 117.667L381.667 118.333L381.333 117.667z"/>
<path style="fill:#f4ed0c; stroke:none;" d="M405.333 117.667L405.667 118.333L405.333 117.667z"/>
<path style="fill:#2881c5; stroke:none;" d="M406.333 117.667L406.667 118.333L406.333 117.667z"/>
<path style="fill:#fdfdfe; stroke:none;" d="M833 117L833 124L840 124L840 117L833 117M912 117L912 124L919 124L919 117L912 117z"/>
<path style="fill:#2881c5; stroke:none;" d="M97 118L97 119L101 119L97 118z"/>
<path style="fill:#a15225; stroke:none;" d="M380 118L380 125L381 125L380 118M280 119L281 120L280 119z"/>
<path style="fill:#2881c5; stroke:none;" d="M281 119L282 120L281 119z"/>
<path style="fill:#f4ed0c; stroke:none;" d="M284 119L285 120L284 119z"/>
<path style="fill:#36502d; stroke:none;" d="M285.333 119.667L285.667 120.333L285.333 119.667z"/>
<path style="fill:#a15225; stroke:none;" d="M289 119L290 120L289 119z"/>
<path style="fill:#2881c5; stroke:none;" d="M290 119L291 120L290 119z"/>
<path style="fill:#f4ed0c; stroke:none;" d="M292 119L293 120L292 119z"/>
<path style="fill:#36502d; stroke:none;" d="M293 119L293 120L297 120L293 119M300 119L300 125L301 125L300 119z"/>
<path style="fill:#2881c5; stroke:none;" d="M301.333 119.667L301.667 120.333L301.333 119.667z"/>
<path style="fill:#36502d; stroke:none;" d="M302.667 119.333L303.333 119.667L302.667 119.333M309 119L310 120L309 119z"/>
<path style="fill:#2881c5; stroke:none;" d="M310 119L308 122L310 119z"/>
<path style="fill:#f4ed0c; stroke:none;" d="M311 119L312 120L311 119z"/>
<path style="fill:#36502d; stroke:none;" d="M312 119L312 120L316 120L312 119z"/>
<path style="fill:#2881c5; stroke:none;" d="M316 119L317 120L316 119z"/>
<path style="fill:#a15225; stroke:none;" d="M322 119L323 120L322 119z"/>
<path style="fill:#36502d; stroke:none;" d="M322 120L322 121L326 120L322 120z"/>
<path style="fill:#2881c5; stroke:none;" d="M326 119L327 122L328 122L326 119z"/>
<path style="fill:#36502d; stroke:none;" d="M329 119L330 120L329 119z"/>
<path style="fill:#a15225; stroke:none;" d="M333 119L334 120L333 119z"/>
<path style="fill:#2881c5; stroke:none;" d="M334 119L335 120L334 119z"/>
<path style="fill:#f4ed0c; stroke:none;" d="M337 119L338 120L337 119z"/>
<path style="fill:#36502d; stroke:none;" d="M338 119L339 120L338 119z"/>
<path style="fill:#a15225; stroke:none;" d="M344 119L344 125L345 125L344 119z"/>
<path style="fill:#2881c5; stroke:none;" d="M345 119L345 125L346 125L345 119z"/>
<path style="fill:#f4ed0c; stroke:none;" d="M347 119L347 125L348 125L347 119z"/>
<path style="fill:#36502d; stroke:none;" d="M348 119L348 125L349 125L348 119z"/>
<path style="fill:#a15225; stroke:none;" d="M349 119L350 120L349 119z"/>
<path style="fill:#36502d; stroke:none;" d="M350 119L350 120L353 120L350 119z"/>
<path style="fill:#2881c5; stroke:none;" d="M353 119L353 125L354 125L353 119z"/>
<path style="fill:#36502d; stroke:none;" d="M356 119L356 120L360 120L356 119z"/>
<path style="fill:#a15225; stroke:none;" d="M361 119L361 125L362 125L361 119z"/>
<path style="fill:#2881c5; stroke:none;" d="M362 119L362 125L363 125L362 119z"/>
<path style="fill:#a15225; stroke:none;" d="M363 119L364 120L363 119z"/>
<path style="fill:#36502d; stroke:none;" d="M364 119L365 120L364 119z"/>
<path style="fill:#a15225; stroke:none;" d="M366 119L367 120L366 119z"/>
<path style="fill:#36502d; stroke:none;" d="M367 119L367 120L371 120L367 119z"/>
<path style="fill:#f4ed0c; stroke:none;" d="M373 119L374 120L373 119z"/>
<path style="fill:#36502d; stroke:none;" d="M374 119L374 120L377 120L374 119z"/>
<path style="fill:#2881c5; stroke:none;" d="M377 119L378 120L377 119z"/>
<path style="fill:#36502d; stroke:none;" d="M380 119L380 120L383 120L380 119z"/>
<path style="fill:#2881c5; stroke:none;" d="M383 119L384 120L383 119z"/>
<path style="fill:#a15225; stroke:none;" d="M385 119L385 125L386 125L385 119z"/>
<path style="fill:#2881c5; stroke:none;" d="M386 119L386 125L387 125L386 119z"/>
<path style="fill:#a15225; stroke:none;" d="M387 119L388 120L387 119z"/>
<path style="fill:#36502d; stroke:none;" d="M388 119L389 120L388 119z"/>
<path style="fill:#a15225; stroke:none;" d="M390 119L390 125L391 125L390 119z"/>
<path style="fill:#2881c5; stroke:none;" d="M391 119L391 125L392 125L391 119z"/>
<path style="fill:#a15225; stroke:none;" d="M395 119L395 124L396 124L395 119M399 119L398 125L399 125L399 119z"/>
<path style="fill:#36502d; stroke:none;" d="M400 119L400 120L403 120L400 119z"/>
<path style="fill:#a15225; stroke:none;" d="M404 119L405 120L404 119z"/>
<path style="fill:#36502d; stroke:none;" d="M405 119L405 120L409 120L405 119z"/>
<path style="fill:#a15225; stroke:none;" d="M410 119L410 125L411 125L410 119z"/>
<path style="fill:#2881c5; stroke:none;" d="M411 119L411 125L412 125L411 119z"/>
<path style="fill:#a15225; stroke:none;" d="M415 119L415 124L416 124L415 119M418 119L418 125L419 125L418 119z"/>
<path style="fill:#2881c5; stroke:none;" d="M419 119L420 120L419 119z"/>
<path style="fill:#a15225; stroke:none;" d="M420 119L421 120L420 119z"/>
<path style="fill:#36502d; stroke:none;" d="M421 119L422 120L421 119z"/>
<path style="fill:#2881c5; stroke:none;" d="M422 119L423 120L422 119z"/>
<path style="fill:#a15225; stroke:none;" d="M424 119L425 120L424 119z"/>
<path style="fill:#36502d; stroke:none;" d="M425 119L425 120L429 121L429 120L425 119z"/>
<path style="fill:#2881c5; stroke:none;" d="M428 119L429 120L428 119z"/>
<path style="fill:#f4ed0c; stroke:none;" d="M434 119L435 120L434 119z"/>
<path style="fill:#36502d; stroke:none;" d="M435 119L435 120L439 120L435 119z"/>
<path style="fill:#2881c5; stroke:none;" d="M439 119L439 125L440 125L439 119z"/>
<path style="fill:#a15225; stroke:none;" d="M442 119L443 120L442 119z"/>
<path style="fill:#36502d; stroke:none;" d="M443 119L443 120L446 120L443 119z"/>
<path style="fill:#a15225; stroke:none;" d="M452 119L453 120L452 119z"/>
<path style="fill:#36502d; stroke:none;" d="M453 119L453 120L456 120L453 119z"/>
<path style="fill:#f4ed0c; stroke:none;" d="M458 119L459 120L458 119z"/>
<path style="fill:#36502d; stroke:none;" d="M459 119L459 120L463 120L459 119z"/>
<path style="fill:#f4ed0c; stroke:none;" d="M466 119L467 120L466 119z"/>
<path style="fill:#a15225; stroke:none;" d="M475 119L474 125L475 125L475 119z"/>
<path style="fill:#36502d; stroke:none;" d="M476 119L476 120L479 122L475 122L475 123L480 123L476 119z"/>
<path style="fill:#2881c5; stroke:none;" d="M479 119L480 120L479 119z"/>
<path style="fill:#f4ed0c; stroke:none;" d="M280 120L281 121L280 120z"/>
<path style="fill:#36502d; stroke:none;" d="M281 120L282 121L281 120z"/>
<path style="fill:#a15225; stroke:none;" d="M284.333 120.667L284.667 121.333L284.333 120.667z"/>
<path style="fill:#2881c5; stroke:none;" d="M286.333 120.667L286.667 121.333L286.333 120.667z"/>
<path style="fill:#36502d; stroke:none;" d="M289 120L290 121L289 120z"/>
<path style="fill:#a15225; stroke:none;" d="M292 120L293 121L292 120z"/>
<path style="fill:#2881c5; stroke:none;" d="M293 120L294 121L293 120z"/>
<path style="fill:#fdfdfe; stroke:none;" d="M294 120L294 125L296 125L296 120L294 120z"/>
<path style="fill:#a15225; stroke:none;" d="M296 120L297 121L296 120z"/>
<path style="fill:#2881c5; stroke:none;" d="M297 120L298 121L297 120z"/>
<path style="fill:#a15225; stroke:none;" d="M308 120L309 121L308 120z"/>
<path style="fill:#fdfdfe; stroke:none;" d="M308 122L308 123L313 125L313 120L308 122z"/>
<path style="fill:#a15225; stroke:none;" d="M313 120L313 125L314 125L313 120z"/>
<path style="fill:#2881c5; stroke:none;" d="M314 120L314 125L315 125L314 120z"/>
<path style="fill:#fdfdfe; stroke:none;" d="M315 120L315 125L317 125L317 120L315 120z"/>
<path style="fill:#f4ed0c; stroke:none;" d="M321 120L322 121L321 120z"/>
<path style="fill:#fdfdfe; stroke:none;" d="M323 120L323 125L326 125L326 120L323 120z"/>
<path style="fill:#a15225; stroke:none;" d="M326 120L327 121L326 120M329 120L330 121L329 120z"/>
<path style="fill:#2881c5; stroke:none;" d="M330.333 120.667L330.667 121.333L330.333 120.667z"/>
<path style="fill:#36502d; stroke:none;" d="M333.667 120.333L334.333 120.667L333.667 120.333z"/>
<path style="fill:#a15225; stroke:none;" d="M337.333 120.667L337.667 121.333L337.333 120.667z"/>
<path style="fill:#2881c5; stroke:none;" d="M338 120L339 121L338 120z"/>
<path style="fill:#fdfdfe; stroke:none;" d="M349 120L349 125L352 125L352 120L349 120z"/>
<path style="fill:#a15225; stroke:none;" d="M352 120L352 125L353 125L352 120z"/>
<path style="fill:#2881c5; stroke:none;" d="M357 120L357 125L358 125L357 120z"/>
<path style="fill:#a15225; stroke:none;" d="M370.333 120.667L370.667 121.333L370.333 120.667z"/>
<path style="fill:#2881c5; stroke:none;" d="M371 120L371 125L372 125L371 120z"/>
<path style="fill:#a15225; stroke:none;" d="M373 120L375 123L373 120z"/>
<path style="fill:#2881c5; stroke:none;" d="M374 120L375 121L374 120M381 120L381 125L382 125L381 120z"/>
<path style="fill:#36502d; stroke:none;" d="M399 120L400 121L399 120z"/>
<path style="fill:#f4ed0c; stroke:none;" d="M405 120L405 125L406 125L405 120z"/>
<path style="fill:#2881c5; stroke:none;" d="M406 120L406 124L407 124L406 120z"/>
<path style="fill:#36502d; stroke:none;" d="M419 120L420 121L419 120z"/>
<path style="fill:#f4ed0c; stroke:none;" d="M423 120L424 121L423 120z"/>
<path style="fill:#2881c5; stroke:none;" d="M424.333 120.667L424.667 121.333L424.333 120.667z"/>
<path style="fill:#fdfdfe; stroke:none;" d="M425 120L425 122L428 122L428 120L425 120z"/>
<path style="fill:#f4ed0c; stroke:none;" d="M438.333 120.667L438.667 121.333L438.333 120.667M441 120L443 123L441 120z"/>
<path style="fill:#2881c5; stroke:none;" d="M442 120L444 122L442 120z"/>
<path style="fill:#f4ed0c; stroke:none;" d="M451 120L452 121L451 120z"/>
<path style="fill:#36502d; stroke:none;" d="M452 120L453 121L452 120z"/>
<path style="fill:#a15225; stroke:none;" d="M458 120L459 121L458 120z"/>
<path style="fill:#2881c5; stroke:none;" d="M459 120L460 121L459 120z"/>
<path style="fill:#fdfdfe; stroke:none;" d="M460 120L460 125L462 125L462 120L460 120z"/>
<path style="fill:#a15225; stroke:none;" d="M462 120L463 121L462 120z"/>
<path style="fill:#2881c5; stroke:none;" d="M463 120L464 121L463 120z"/>
<path style="fill:#a15225; stroke:none;" d="M466 120L467 121L466 120z"/>
<path style="fill:#2881c5; stroke:none;" d="M467 120L468 121L467 120z"/>
<path style="fill:#fdfdfe; stroke:none;" d="M468 125L470 125L471 120C467.964 121 467.506 121.863 468 125z"/>
<path style="fill:#2881c5; stroke:none;" d="M475.333 120.667L475.667 121.333L475.333 120.667z"/>
<path style="fill:#fdfdfe; stroke:none;" d="M476 120L479 122L476 120z"/>
<path style="fill:#f4ed0c; stroke:none;" d="M478 120L479 121L478 120z"/>
<path style="fill:#a15225; stroke:none;" d="M891 120L892 121L891 120M935 120L936 121L935 120M943 120L944 121L943 120M953 120L953 124L954 124L953 120M281.333 121.667L281.667 122.333L281.333 121.667z"/>
<path style="fill:#f4ed0c; stroke:none;" d="M285 121L286 122L285 121M288 121L289 122L288 121z"/>
<path style="fill:#2881c5; stroke:none;" d="M289.333 121.667L289.667 122.333L289.333 121.667z"/>
<path style="fill:#f4ed0c; stroke:none;" d="M291 121L291 124L292 124L291 121z"/>
<path style="fill:#36502d; stroke:none;" d="M292 121L292 124L293 124L292 121M297 121L297 124L298 124L297 121z"/>
<path style="fill:#a15225; stroke:none;" d="M307 121L308 122L307 121M321 121L321 124L322 124L321 121z"/>
<path style="fill:#2881c5; stroke:none;" d="M322 121L322 124L323 124L322 121z"/>
<path style="fill:#f4ed0c; stroke:none;" d="M326 121L326 124L327 124L326 121M329 121L330 122L329 121M332 121L333 122L332 121z"/>
<path style="fill:#2881c5; stroke:none;" d="M333 121L334 122L333 121z"/>
<path style="fill:#a15225; stroke:none;" d="M334.333 121.667L334.667 122.333L334.333 121.667z"/>
<path style="fill:#36502d; stroke:none;" d="M374 121L375 122L374 121z"/>
<path style="fill:#2881c5; stroke:none;" d="M399 121L399 124L400 124L399 121M419 121L419 125L420 125L419 121z"/>
<path style="fill:#a15225; stroke:none;" d="M423 121L423 124L424 124L423 121M428 121L429 122L428 121z"/>
<path style="fill:#36502d; stroke:none;" d="M442 121L443 122L442 121z"/>
<path style="fill:#a15225; stroke:none;" d="M451 121L451 124L452 124L451 121z"/>
<path style="fill:#2881c5; stroke:none;" d="M452 121L452 124L453 124L452 121z"/>
<path style="fill:#f4ed0c; stroke:none;" d="M457 121L457 124L458 124L457 121z"/>
<path style="fill:#36502d; stroke:none;" d="M458 121L458 124L459 124L458 121M463 121L463 124L464 124L463 121M466 121L466 124L467 124L466 121z"/>
<path style="fill:#2881c5; stroke:none;" d="M282 122L283 123L282 122M284.333 122.667L284.667 123.333L284.333 122.667z"/>
<path style="fill:#fdfdfe; stroke:none;" d="M285 122L284 125L285 122z"/>
<path style="fill:#a15225; stroke:none;" d="M286.333 122.667L286.667 123.333L286.333 122.667M288.333 122.667L288.667 123.333L288.333 122.667z"/>
<path style="fill:#36502d; stroke:none;" d="M306.667 122.333L307.333 122.667L306.667 122.333M327 122L328 123L327 122M330 122L331 123L330 122z"/>
<path style="fill:#a15225; stroke:none;" d="M332.333 122.667L332.667 123.333L332.333 122.667z"/>
<path style="fill:#fdfdfe; stroke:none;" d="M333 122L335 125L333 122z"/>
<path style="fill:#2881c5; stroke:none;" d="M335.333 122.667L335.667 123.333L335.333 122.667z"/>
<path style="fill:#36502d; stroke:none;" d="M337 122L338 123L337 122z"/>
<path style="fill:#f4ed0c; stroke:none;" d="M366 122L367 123L366 122z"/>
<path style="fill:#36502d; stroke:none;" d="M367 122L367 123L371 123L367 122M375 122L375 123L377 125L378 125L375 122M424 122L424 123L429 123L424 122z"/>
<path style="fill:#a15225; stroke:none;" d="M435 122L434 125L435 125L435 122z"/>
<path style="fill:#36502d; stroke:none;" d="M436 122L436 123L439 123L436 122M443.667 122.333L444.333 122.667L443.667 122.333z"/>
<path style="fill:#2881c5; stroke:none;" d="M445 122L446 125L447 125L445 122z"/>
<path style="fill:#f4ed0c; stroke:none;" d="M465 122L466 123L465 122z"/>
<path style="fill:#a15225; stroke:none;" d="M891 122L892 123L891 122M935 122L936 123L935 122M943 122L944 123L943 122z"/>
<path style="fill:#f4ed0c; stroke:none;" d="M281 123L282 124L281 123z"/>
<path style="fill:#36502d; stroke:none;" d="M282 123L284 125L282 123z"/>
<path style="fill:#a15225; stroke:none;" d="M283 123L284 124L283 123z"/>
<path style="fill:#2881c5; stroke:none;" d="M306.333 123.667L306.667 124.333L306.333 123.667z"/>
<path style="fill:#a15225; stroke:none;" d="M307 123L309 125L307 123z"/>
<path style="fill:#2881c5; stroke:none;" d="M308 123L309 124L308 123M327.333 123.667L327.667 124.333L327.333 123.667z"/>
<path style="fill:#a15225; stroke:none;" d="M330 123L331 124L330 123z"/>
<path style="fill:#2881c5; stroke:none;" d="M331 123L333 125L331 123z"/>
<path style="fill:#f4ed0c; stroke:none;" d="M334 123L335 124L334 123M336 123L337 124L336 123z"/>
<path style="fill:#2881c5; stroke:none;" d="M337 123L338 124L337 123z"/>
<path style="fill:#a15225; stroke:none;" d="M366.333 123.667L366.667 124.333L366.333 123.667z"/>
<path style="fill:#2881c5; stroke:none;" d="M367.333 123.667L367.667 124.333L367.333 123.667z"/>
<path style="fill:#fdfdfe; stroke:none;" d="M368 123L368 125L370 125L370 123L368 123z"/>
<path style="fill:#a15225; stroke:none;" d="M370.333 123.667L370.667 124.333L370.333 123.667z"/>
<path style="fill:#f4ed0c; stroke:none;" d="M376 123L377 124L376 123z"/>
<path style="fill:#2881c5; stroke:none;" d="M424 123L425 124L424 123M435.333 123.667L435.667 124.333L435.333 123.667z"/>
<path style="fill:#fdfdfe; stroke:none;" d="M436 123L436 125L438 125L438 123L436 123z"/>
<path style="fill:#f4ed0c; stroke:none;" d="M438 123L439 124L438 123z"/>
<path style="fill:#a15225; stroke:none;" d="M445.333 123.667L445.667 124.333L445.333 123.667z"/>
<path style="fill:#2881c5; stroke:none;" d="M475.333 123.667L475.667 124.333L475.333 123.667z"/>
<path style="fill:#a15225; stroke:none;" d="M282 124L283 125L282 124z"/>
<path style="fill:#f4ed0c; stroke:none;" d="M286 124L287 125L286 124z"/>
<path style="fill:#36502d; stroke:none;" d="M287 124L288 125L287 124z"/>
<path style="fill:#2881c5; stroke:none;" d="M288 124L289 125L288 124z"/>
<path style="fill:#a15225; stroke:none;" d="M292 124L293 125L292 124z"/>
<path style="fill:#2881c5; stroke:none;" d="M293 124L294 125L293 124z"/>
<path style="fill:#a15225; stroke:none;" d="M296 124L297 125L296 124z"/>
<path style="fill:#2881c5; stroke:none;" d="M297 124L298 125L297 124z"/>
<path style="fill:#fdfdfe; stroke:none;" d="M307 124L308 125L307 124z"/>
<path style="fill:#2881c5; stroke:none;" d="M309 124L310 125L309 124z"/>
<path style="fill:#f4ed0c; stroke:none;" d="M321 124L322 125L321 124z"/>
<path style="fill:#36502d; stroke:none;" d="M322 124L323 125L322 124z"/>
<path style="fill:#a15225; stroke:none;" d="M326 124L327 125L326 124z"/>
<path style="fill:#f4ed0c; stroke:none;" d="M330 124L331 125L330 124z"/>
<path style="fill:#36502d; stroke:none;" d="M331 124L332 125L331 124z"/>
<path style="fill:#a15225; stroke:none;" d="M335 124L336 125L335 124z"/>
<path style="fill:#36502d; stroke:none;" d="M336 124L337 125L336 124M395 124L396 125L395 124M399 124L400 125L399 124M406 124L407 125L406 124M415 124L416 125L415 124z"/>
<path style="fill:#f4ed0c; stroke:none;" d="M423 124L424 125L423 124z"/>
<path style="fill:#36502d; stroke:none;" d="M424 124L425 125L424 124z"/>
<path style="fill:#a15225; stroke:none;" d="M438 124L439 125L438 124z"/>
<path style="fill:#f4ed0c; stroke:none;" d="M451 124L452 125L451 124z"/>
<path style="fill:#36502d; stroke:none;" d="M452 124L453 125L452 124z"/>
<path style="fill:#a15225; stroke:none;" d="M458 124L459 125L458 124z"/>
<path style="fill:#2881c5; stroke:none;" d="M459 124L460 125L459 124z"/>
<path style="fill:#a15225; stroke:none;" d="M462 124L463 125L462 124z"/>
<path style="fill:#2881c5; stroke:none;" d="M463 124L464 125L463 124z"/>
<path style="fill:#a15225; stroke:none;" d="M466 124L467 125L466 124z"/>
<path style="fill:#2881c5; stroke:none;" d="M467 124L468 125L467 124z"/>
<path style="fill:#f4ed0c; stroke:none;" d="M470 124L471 125L470 124z"/>
</svg>
