<?xml version="1.0" standalone="yes"?>
<svg xmlns="http://www.w3.org/2000/svg" width="889" height="115">
<path style="fill:#fefefe; stroke:none;" d="M0 0L0 115L889 115L889 0L0 0z"/>
<path style="fill:#f7f009; stroke:none;" d="M28 14L28 15L34 15L28 14z"/>
<path style="fill:#be6f2a; stroke:none;" d="M29.0193 14.7469C20.2938 17.2768 24.1542 31.4872 32.9807 29.0764C41.7606 26.6783 38.1783 12.0913 29.0193 14.7469z"/>
<path style="fill:#f7f009; stroke:none;" d="M26 15L27 16L26 15M35 15L36 16L35 15M24.6667 16.3333L25.3333 16.6667L24.6667 16.3333M36.6667 16.3333L37.3333 16.6667L36.6667 16.3333M23 17L23 26L24 26L23 17z"/>
<path style="fill:#be6f2a; stroke:none;" d="M83 18L83 24L84 24L83 18z"/>
<path style="fill:#35422c; stroke:none;" d="M84 18L84 24L88 24L83 26C87.5026 31.0772 88.5446 23.8809 85 20L89 20L89 18L84 18M108 18C105.415 22.7343 101.86 27.3658 110 28L110 18L108 18z"/>
<path style="fill:#be6f2a; stroke:none;" d="M158 18L158 21L159 21L158 18z"/>
<path style="fill:#35422c; stroke:none;" d="M159 18C156.361 22.3651 150.906 27.2914 160 28L159 18z"/>
<path style="fill:#4183c8; stroke:none;" d="M160 18L160 28L161 28L160 18z"/>
<path style="fill:#f7f009; stroke:none;" d="M201 18L202 19L201 18z"/>
<path style="fill:#35422c; stroke:none;" d="M202.667 18.3333L203.333 18.6667L202.667 18.3333M245 18C242.155 22.8368 237.808 27.2987 247 28L247 18L245 18M171 19C170.415 22.573 169.902 27.1218 174 28L174 22L174 21L171 19z"/>
<path style="fill:#4183c8; stroke:none;" d="M172.333 19.6667L172.667 20.3333L172.333 19.6667z"/>
<path style="fill:#be6f2a; stroke:none;" d="M202 19L203 20L202 19z"/>
<path style="fill:#4183c8; stroke:none;" d="M203 19L204 20L203 19z"/>
<path style="fill:#f7f009; stroke:none;" d="M170 20L171 21L170 20z"/>
<path style="fill:#35422c; stroke:none;" d="M53 21L53 22L57 22L57 24L53 24L53 28L58 28L58 21L53 21M59 21L62 28L66 25L65 21L62 25L59 21z"/>
<path style="fill:#4183c8; stroke:none;" d="M61 21L61 24L62 24L61 21z"/>
<path style="fill:#be6f2a; stroke:none;" d="M63.3333 21.6667L63.6667 22.3333L63.3333 21.6667z"/>
<path style="fill:#4183c8; stroke:none;" d="M65 21L66 22L65 21z"/>
<path style="fill:#35422c; stroke:none;" d="M68 21L66 28L70 21L68 21z"/>
<path style="fill:#be6f2a; stroke:none;" d="M71 21L72 22L71 21z"/>
<path style="fill:#35422c; stroke:none;" d="M71 22L71 24L75 26L75 27L71 27L71 28L76 27L76 25L72 23L75 22L71 22z"/>
<path style="fill:#4183c8; stroke:none;" d="M75 21L76 22L75 21z"/>
<path style="fill:#35422c; stroke:none;" d="M96 27L92 29C96.7141 34.1984 96.9978 23.7899 97 21C91.5972 21.4309 89.6824 27.1029 96 27z"/>
<path style="fill:#4183c8; stroke:none;" d="M97 21L97 29L98 29L97 21z"/>
<path style="fill:#be6f2a; stroke:none;" d="M104 21L105 22L104 21M112 21L112 31L113 31L112 21z"/>
<path style="fill:#35422c; stroke:none;" d="M113 21L113 31L114 31L114 28C120.459 26.8783 118.877 21.458 113 21z"/>
<path style="fill:#4183c8; stroke:none;" d="M118 21L119 22L118 21z"/>
<path style="fill:#35422c; stroke:none;" d="M125 21L125 28L126 28L130 22L130 28L131 28L131 22L134 22L134 28L135 28L135 21L125 21z"/>
<path style="fill:#4183c8; stroke:none;" d="M135 21L135 28L136 28L135 21z"/>
<path style="fill:#be6f2a; stroke:none;" d="M137 21L138 22L137 21z"/>
<path style="fill:#35422c; stroke:none;" d="M137 22L141 27L137 27L137 28L142 27L142 25L138 23L138 22L142 22L137 22M144 21L144 27L144 28L148 28L145 23L148 22L144 21z"/>
<path style="fill:#4183c8; stroke:none;" d="M148 21L149 22L148 21z"/>
<path style="fill:#f7f009; stroke:none;" d="M154 21L155 22L154 21z"/>
<path style="fill:#be6f2a; stroke:none;" d="M162 21L163 22L162 21z"/>
<path style="fill:#35422c; stroke:none;" d="M163 21L163 22L167 22L167 24L162 27L168 28C167.863 23.8242 167.362 21.7279 163 21z"/>
<path style="fill:#4183c8; stroke:none;" d="M167 21L168 22L167 21z"/>
<path style="fill:#be6f2a; stroke:none;" d="M169 21L170 22L169 21z"/>
<path style="fill:#4183c8; stroke:none;" d="M174 21L175 22L174 21z"/>
<path style="fill:#35422c; stroke:none;" d="M176 21L176 22L180 22L180 24L176 24L176 28L181 28L181 21L176 21M189 21L189 27L189 28L193 28L190 23L193 22L189 21z"/>
<path style="fill:#4183c8; stroke:none;" d="M193 21L194 22L193 21z"/>
<path style="fill:#be6f2a; stroke:none;" d="M196 21L195 23L196 21z"/>
<path style="fill:#35422c; stroke:none;" d="M200 28L200 27C197.925 24.8499 197.44 23.7951 200 22C194.532 20.849 195.514 26.6334 200 28z"/>
<path style="fill:#4183c8; stroke:none;" d="M200 21L201 22L200 21z"/>
<path style="fill:#35422c; stroke:none;" d="M202 21L202 28L203 28L202 21z"/>
<path style="fill:#4183c8; stroke:none;" d="M203 21L203 28L204 28L203 21z"/>
<path style="fill:#f7f009; stroke:none;" d="M206 21L207 22L206 21z"/>
<path style="fill:#35422c; stroke:none;" d="M211 28L211 27L207 26L207 25L212 25C209.027 17.6173 202.707 26.6159 211 28z"/>
<path style="fill:#4183c8; stroke:none;" d="M211.333 21.6667L211.667 22.3333L211.333 21.6667z"/>
<path style="fill:#be6f2a; stroke:none;" d="M213 21L213 28L214 28L213 21z"/>
<path style="fill:#35422c; stroke:none;" d="M214 21L214 28L215 28L215 22L218 22L218 28L220 28C219.845 23.276 218.89 21.381 214 21z"/>
<path style="fill:#4183c8; stroke:none;" d="M219 21L220 22L219 21z"/>
<path style="fill:#be6f2a; stroke:none;" d="M223 21L222 23L223 21z"/>
<path style="fill:#35422c; stroke:none;" d="M227 28L227 27C224.925 24.8499 224.44 23.7951 227 22C221.532 20.849 222.514 26.6334 227 28z"/>
<path style="fill:#4183c8; stroke:none;" d="M227 21L228 22L227 21z"/>
<path style="fill:#be6f2a; stroke:none;" d="M229 21L229 28L230 28L229 21z"/>
<path style="fill:#35422c; stroke:none;" d="M234 28L234 27L230 26L230 25L234 25C231.768 18.2839 226.018 26.6677 234 28z"/>
<path style="fill:#4183c8; stroke:none;" d="M233 21L234 22L233 21z"/>
<path style="fill:#be6f2a; stroke:none;" d="M249 21L250 22L249 21z"/>
<path style="fill:#35422c; stroke:none;" d="M254 28L254 27L250 26L250 25L254 25L254 21C248.286 21.9537 248.286 27.0463 254 28z"/>
<path style="fill:#be6f2a; stroke:none;" d="M255 21L256 22L255 21z"/>
<path style="fill:#35422c; stroke:none;" d="M256 21L257 25L258 25L256 21z"/>
<path style="fill:#4183c8; stroke:none;" d="M257 21L258 22L257 21z"/>
<path style="fill:#be6f2a; stroke:none;" d="M260.333 21.6667L260.667 22.3333L260.333 21.6667z"/>
<path style="fill:#35422c; stroke:none;" d="M261 21L258 28L261 21z"/>
<path style="fill:#4183c8; stroke:none;" d="M262 21L263 22L262 21z"/>
<path style="fill:#be6f2a; stroke:none;" d="M56 22L57 23L56 22z"/>
<path style="fill:#4183c8; stroke:none;" d="M58 22L58 28L59 28L58 22z"/>
<path style="fill:#f7f009; stroke:none;" d="M59 22L60 23L59 22M67 22L68 23L67 22z"/>
<path style="fill:#4183c8; stroke:none;" d="M69 22L70 23L69 22M72 22L73 23L72 22z"/>
<path style="fill:#be6f2a; stroke:none;" d="M91 22L92 23L91 22z"/>
<path style="fill:#4183c8; stroke:none;" d="M93 22L94 23L93 22z"/>
<path style="fill:#fefefe; stroke:none;" d="M94 22L93 26L94 22z"/>
<path style="fill:#f7f009; stroke:none;" d="M95 22L95 26L96 26L95 22z"/>
<path style="fill:#be6f2a; stroke:none;" d="M103 22L103 27L104 27L103 22z"/>
<path style="fill:#4183c8; stroke:none;" d="M105.333 22.6667L105.667 23.3333L105.333 22.6667z"/>
<path style="fill:#fefefe; stroke:none;" d="M106 22L107 27L108 22L106 22z"/>
<path style="fill:#4183c8; stroke:none;" d="M114 22L114 26L115 26L114 22z"/>
<path style="fill:#fefefe; stroke:none;" d="M115 22L115 27L116 27L115 22z"/>
<path style="fill:#f7f009; stroke:none;" d="M116 22L117 23L116 22z"/>
<path style="fill:#be6f2a; stroke:none;" d="M129 22L129 28L130 28L129 22z"/>
<path style="fill:#4183c8; stroke:none;" d="M131 22L131 28L132 28L131 22z"/>
<path style="fill:#be6f2a; stroke:none;" d="M133 22L134 23L133 22z"/>
<path style="fill:#4183c8; stroke:none;" d="M138 22L139 23L138 22z"/>
<path style="fill:#be6f2a; stroke:none;" d="M143.333 22.6667L143.667 23.3333L143.333 22.6667z"/>
<path style="fill:#fefefe; stroke:none;" d="M156 22L157 27L158 27L158 22L156 22z"/>
<path style="fill:#be6f2a; stroke:none;" d="M158 22L158 26L159 26L158 22M166.333 22.6667L166.667 23.3333L166.333 22.6667M170 22L170 26L171 26L170 22z"/>
<path style="fill:#4183c8; stroke:none;" d="M172 22L172 26L173 26L172 22z"/>
<path style="fill:#be6f2a; stroke:none;" d="M179 22L180 23L179 22z"/>
<path style="fill:#4183c8; stroke:none;" d="M181 22L181 28L182 28L181 22z"/>
<path style="fill:#be6f2a; stroke:none;" d="M188 22L189 23L188 22z"/>
<path style="fill:#4183c8; stroke:none;" d="M190 22L191 23L190 22M197 22L198 23L197 22M207.333 22.6667L207.667 23.3333L207.333 22.6667z"/>
<path style="fill:#fefefe; stroke:none;" d="M208 22L208 24L210 24L210 22L208 22z"/>
<path style="fill:#4183c8; stroke:none;" d="M215 22L215 28L216 28L215 22M224 22L225 23L224 22z"/>
<path style="fill:#fefefe; stroke:none;" d="M225 27L227 27L228 22C224.964 23.0004 224.506 23.8628 225 27z"/>
<path style="fill:#4183c8; stroke:none;" d="M230 22L231 23L230 22z"/>
<path style="fill:#fefefe; stroke:none;" d="M231 22L230 24L232 24L231 22z"/>
<path style="fill:#be6f2a; stroke:none;" d="M232 22L233 23L232 22z"/>
<path style="fill:#4183c8; stroke:none;" d="M234 22L234 25L235 25L234 22z"/>
<path style="fill:#be6f2a; stroke:none;" d="M240 22L241 23L240 22z"/>
<path style="fill:#4183c8; stroke:none;" d="M242 22L243 23L242 22z"/>
<path style="fill:#fefefe; stroke:none;" d="M243 22L243 27L244 27L245 22L243 22z"/>
<path style="fill:#4183c8; stroke:none;" d="M250.333 22.6667L250.667 23.3333L250.333 22.6667z"/>
<path style="fill:#fefefe; stroke:none;" d="M251 22L251 24L253 24L253 22L251 22z"/>
<path style="fill:#4183c8; stroke:none;" d="M254 22L254 25L255 25L254 22z"/>
<path style="fill:#f7f009; stroke:none;" d="M56 23L57 24L56 23z"/>
<path style="fill:#be6f2a; stroke:none;" d="M67.3333 23.6667L67.6667 24.3333L67.3333 23.6667z"/>
<path style="fill:#4183c8; stroke:none;" d="M73 23L74 24L73 23z"/>
<path style="fill:#be6f2a; stroke:none;" d="M117 23L117 26L118 26L117 23z"/>
<path style="fill:#4183c8; stroke:none;" d="M119.333 23.6667L119.667 24.3333L119.333 23.6667M126 23L126 28L127 28L126 23z"/>
<path style="fill:#f7f009; stroke:none;" d="M133 23L133 28L134 28L133 23z"/>
<path style="fill:#be6f2a; stroke:none;" d="M137 23L138 24L137 23z"/>
<path style="fill:#4183c8; stroke:none;" d="M139 23L140 24L139 23z"/>
<path style="fill:#f7f009; stroke:none;" d="M153 23L153 26L154 26L153 23z"/>
<path style="fill:#4183c8; stroke:none;" d="M155 23L155 26L156 26L155 23z"/>
<path style="fill:#f7f009; stroke:none;" d="M179 23L180 24L179 23M188 23L189 24L188 23z"/>
<path style="fill:#4183c8; stroke:none;" d="M191 23L192 24L191 23z"/>
<path style="fill:#f7f009; stroke:none;" d="M205 23L205 26L206 26L205 23z"/>
<path style="fill:#be6f2a; stroke:none;" d="M210 23L211 24L210 23z"/>
<path style="fill:#f7f009; stroke:none;" d="M232 23L233 24L232 23z"/>
<path style="fill:#be6f2a; stroke:none;" d="M248 23L248 26L249 26L248 23M256 23L257 24L256 23z"/>
<path style="fill:#4183c8; stroke:none;" d="M258 23L258 26L259 26L258 23M261.333 23.6667L261.667 24.3333L261.333 23.6667z"/>
<path style="fill:#be6f2a; stroke:none;" d="M60.3333 24.6667L60.6667 25.3333L60.3333 24.6667z"/>
<path style="fill:#4183c8; stroke:none;" d="M66.3333 24.6667L66.6667 25.3333L66.3333 24.6667M75 24L76 25L75 24z"/>
<path style="fill:#be6f2a; stroke:none;" d="M77 24L78 25L77 24z"/>
<path style="fill:#35422c; stroke:none;" d="M78 24L78 25L81 25L78 24z"/>
<path style="fill:#4183c8; stroke:none;" d="M81 24L82 25L81 24z"/>
<path style="fill:#be6f2a; stroke:none;" d="M87.3333 24.6667L87.6667 25.3333L87.3333 24.6667z"/>
<path style="fill:#4183c8; stroke:none;" d="M89.3333 24.6667L89.6667 25.3333L89.3333 24.6667M141 24L142 25L141 24z"/>
<path style="fill:#be6f2a; stroke:none;" d="M144 24L145 25L144 24z"/>
<path style="fill:#f7f009; stroke:none;" d="M162 24L163 25L162 24z"/>
<path style="fill:#be6f2a; stroke:none;" d="M183 24L184 25L183 24z"/>
<path style="fill:#35422c; stroke:none;" d="M184 24L184 25L187 25L184 24z"/>
<path style="fill:#4183c8; stroke:none;" d="M187 24L188 25L187 24z"/>
<path style="fill:#be6f2a; stroke:none;" d="M189 24L190 25L189 24z"/>
<path style="fill:#4183c8; stroke:none;" d="M193 24L193 27L194 27L193 24z"/>
<path style="fill:#be6f2a; stroke:none;" d="M259.333 24.6667L259.667 25.3333L259.333 24.6667M52.3333 25.6667L52.6667 26.3333L52.3333 25.6667z"/>
<path style="fill:#4183c8; stroke:none;" d="M54.3333 25.6667L54.6667 26.3333L54.3333 25.6667z"/>
<path style="fill:#fefefe; stroke:none;" d="M55.3333 25.6667L55.6667 26.3333L55.3333 25.6667z"/>
<path style="fill:#f7f009; stroke:none;" d="M56 25L57 26L56 25z"/>
<path style="fill:#be6f2a; stroke:none;" d="M65.3333 25.6667L65.6667 26.3333L65.3333 25.6667z"/>
<path style="fill:#4183c8; stroke:none;" d="M68.3333 25.6667L68.6667 26.3333L68.3333 25.6667M105 25L106 26L105 25z"/>
<path style="fill:#be6f2a; stroke:none;" d="M140.333 25.6667L140.667 26.3333L140.333 25.6667z"/>
<path style="fill:#4183c8; stroke:none;" d="M142.333 25.6667L142.667 26.3333L142.333 25.6667z"/>
<path style="fill:#be6f2a; stroke:none;" d="M146 25L147 26L146 25z"/>
<path style="fill:#4183c8; stroke:none;" d="M148.333 25.6667L148.667 26.3333L148.333 25.6667z"/>
<path style="fill:#be6f2a; stroke:none;" d="M162 25L163 26L162 25z"/>
<path style="fill:#fefefe; stroke:none;" d="M164 25L164 27L166 27L166 25L164 25z"/>
<path style="fill:#be6f2a; stroke:none;" d="M166 25L167 26L166 25M175.333 25.6667L175.667 26.3333L175.333 25.6667z"/>
<path style="fill:#4183c8; stroke:none;" d="M177.333 25.6667L177.667 26.3333L177.333 25.6667z"/>
<path style="fill:#fefefe; stroke:none;" d="M178.333 25.6667L178.667 26.3333L178.333 25.6667z"/>
<path style="fill:#f7f009; stroke:none;" d="M179 25L180 26L179 25M191 25L192 26L191 25z"/>
<path style="fill:#4183c8; stroke:none;" d="M207 25L208 26L207 25M250 25L251 26L250 25z"/>
<path style="fill:#be6f2a; stroke:none;" d="M257.333 25.6667L257.667 26.3333L257.333 25.6667z"/>
<path style="fill:#f7f009; stroke:none;" d="M24 26L25 27L24 26z"/>
<path style="fill:#be6f2a; stroke:none;" d="M56 26L57 27L56 26z"/>
<path style="fill:#4183c8; stroke:none;" d="M63.3333 26.6667L63.6667 27.3333L63.3333 26.6667M71 26L72 27L71 26z"/>
<path style="fill:#be6f2a; stroke:none;" d="M74 26L75 27L74 26z"/>
<path style="fill:#4183c8; stroke:none;" d="M84 26L85 27L84 26z"/>
<path style="fill:#be6f2a; stroke:none;" d="M86 26L87 27L86 26M91 26L92 27L91 26M99.3333 26.6667L99.6667 27.3333L99.3333 26.6667z"/>
<path style="fill:#35422c; stroke:none;" d="M100.333 26.6667L100.667 27.3333L100.333 26.6667z"/>
<path style="fill:#4183c8; stroke:none;" d="M101.333 26.6667L101.667 27.3333L101.333 26.6667z"/>
<path style="fill:#be6f2a; stroke:none;" d="M107 26L108 27L107 26M116 26L117 27L116 26z"/>
<path style="fill:#4183c8; stroke:none;" d="M118 26L119 27L118 26z"/>
<path style="fill:#f7f009; stroke:none;" d="M120 26L121 27L120 26z"/>
<path style="fill:#35422c; stroke:none;" d="M121 26L121 28L123 28L123 26L121 26z"/>
<path style="fill:#4183c8; stroke:none;" d="M137 26L138 27L137 26z"/>
<path style="fill:#be6f2a; stroke:none;" d="M143.333 26.6667L143.667 27.3333L143.333 26.6667z"/>
<path style="fill:#f7f009; stroke:none;" d="M146 26L147 27L146 26z"/>
<path style="fill:#35422c; stroke:none;" d="M150 26L150 28L152 28L152 26L150 26z"/>
<path style="fill:#4183c8; stroke:none;" d="M156 26L157 27L156 26z"/>
<path style="fill:#f7f009; stroke:none;" d="M170 26L171 27L170 26z"/>
<path style="fill:#be6f2a; stroke:none;" d="M179 26L180 27L179 26M188.333 26.6667L188.667 27.3333L188.333 26.6667M195 26L196 27L195 26z"/>
<path style="fill:#4183c8; stroke:none;" d="M200.333 26.6667L200.667 27.3333L200.333 26.6667M208 26L209 27L208 26z"/>
<path style="fill:#be6f2a; stroke:none;" d="M211 26L212 27L211 26M222 26L223 27L222 26z"/>
<path style="fill:#4183c8; stroke:none;" d="M227.333 26.6667L227.667 27.3333L227.333 26.6667z"/>
<path style="fill:#f7f009; stroke:none;" d="M233 26L234 27L233 26z"/>
<path style="fill:#4183c8; stroke:none;" d="M234.333 26.6667L234.667 27.3333L234.333 26.6667z"/>
<path style="fill:#be6f2a; stroke:none;" d="M236 26L237 27L236 26z"/>
<path style="fill:#35422c; stroke:none;" d="M237 26L236 28L238 28L237 26z"/>
<path style="fill:#4183c8; stroke:none;" d="M238.333 26.6667L238.667 27.3333L238.333 26.6667z"/>
<path style="fill:#be6f2a; stroke:none;" d="M240 26L241 27L240 26M244 26L245 27L244 26z"/>
<path style="fill:#4183c8; stroke:none;" d="M251 26L252 27L251 26M254.333 26.6667L254.667 27.3333L254.333 26.6667M260 26L261 27L260 26z"/>
<path style="fill:#f7f009; stroke:none;" d="M36 27L37 28L36 27z"/>
<path style="fill:#be6f2a; stroke:none;" d="M61 27L62 28L61 27z"/>
<path style="fill:#f7f009; stroke:none;" d="M65 27L66 28L65 27z"/>
<path style="fill:#4183c8; stroke:none;" d="M75 27L76 28L75 27z"/>
<path style="fill:#be6f2a; stroke:none;" d="M92 27L93 28L92 27M95.3333 27.6667L95.6667 28.3333L95.3333 27.6667M104 27L105 28L104 27M120 27L121 28L120 27z"/>
<path style="fill:#4183c8; stroke:none;" d="M141 27L142 28L141 27z"/>
<path style="fill:#f7f009; stroke:none;" d="M149 27L150 28L149 27z"/>
<path style="fill:#4183c8; stroke:none;" d="M152 27L153 28L152 27z"/>
<path style="fill:#be6f2a; stroke:none;" d="M162 27L163 28L162 27z"/>
<path style="fill:#4183c8; stroke:none;" d="M174 27L175 28L174 27z"/>
<path style="fill:#be6f2a; stroke:none;" d="M196 27L197 28L196 27z"/>
<path style="fill:#4183c8; stroke:none;" d="M211 27L212 28L211 27z"/>
<path style="fill:#be6f2a; stroke:none;" d="M223 27L224 28L223 27M241 27L242 28L241 27z"/>
<path style="fill:#f7f009; stroke:none;" d="M249 27L250 28L249 27M34 28L35 29L34 28z"/>
<path style="fill:#4183c8; stroke:none;" d="M114 28L114 31L115 31L114 28z"/>
<path style="fill:#f7f009; stroke:none;" d="M29 29L30 30L29 29z"/>
<path style="fill:#be6f2a; stroke:none;" d="M91 29L92 30L91 29z"/>
<path style="fill:#4183c8; stroke:none;" d="M93 29L94 30L93 29z"/>
<path style="fill:#be6f2a; stroke:none;" d="M94 29L95 30L94 29M869 29L866 33L869 29z"/>
<path style="fill:#f7f009; stroke:none;" d="M91 30L92 31L91 30z"/>
<path style="fill:#4183c8; stroke:none;" d="M869 30L869 31L873 33L869 30z"/>
<path style="fill:#be6f2a; stroke:none;" d="M870 31L871 32L870 31M871 32L872 33L871 32M220 41L220 44L221 44L220 41z"/>
<path style="fill:#4183c8; stroke:none;" d="M221 41L217 44L217 45L221 45L221 49L216 47L222 50L221 41z"/>
<path style="fill:#f7f009; stroke:none;" d="M250 41L250 44L251 44L250 41z"/>
<path style="fill:#4183c8; stroke:none;" d="M251 41L247 45L247 46L251 45L251 49L247 48L247 49L252 50L251 41M254.333 41.6667L254.667 42.3333L254.333 41.6667z"/>
<path style="fill:#be6f2a; stroke:none;" d="M261 41L261 50L262 50L261 41z"/>
<path style="fill:#4183c8; stroke:none;" d="M262 41L262 50L263 50L263 45L266 45L266 50L267 50L267 44L262 41z"/>
<path style="fill:#be6f2a; stroke:none;" d="M53.3333 42.6667L53.6667 43.3333L53.3333 42.6667M56 42L57 43L56 42M59 42L60 43L59 42z"/>
<path style="fill:#4183c8; stroke:none;" d="M64 49L64 48L60 49L60 43L64 44C60.0505 39.6449 56.2581 50.183 64 49z"/>
<path style="fill:#f7f009; stroke:none;" d="M66 42L67 43L66 42z"/>
<path style="fill:#4183c8; stroke:none;" d="M67.6667 42.3333L68.3333 42.6667L67.6667 42.3333z"/>
<path style="fill:#be6f2a; stroke:none;" d="M69 42L70 43L69 42z"/>
<path style="fill:#4183c8; stroke:none;" d="M70 42L71 43L70 42z"/>
<path style="fill:#be6f2a; stroke:none;" d="M75 42L76 43L75 42z"/>
<path style="fill:#4183c8; stroke:none;" d="M76 42L74 45L76 47L73 46L77 50L76 42M80 42L80 43L84 43L84 49L80 48C85.0415 51.4383 86.4859 43.0824 80 42z"/>
<path style="fill:#be6f2a; stroke:none;" d="M89 42L88 44L89 42z"/>
<path style="fill:#4183c8; stroke:none;" d="M90 42L88 45L90 47L86 47L86 48L91 50L90 42M93 42L93 43L97 43L94 50L95 50L98 42L93 42z"/>
<path style="fill:#f7f009; stroke:none;" d="M100 42L101 43L100 42z"/>
<path style="fill:#4183c8; stroke:none;" d="M101.667 42.3333L102.333 42.6667L101.667 42.3333z"/>
<path style="fill:#be6f2a; stroke:none;" d="M103 42L104 43L103 42z"/>
<path style="fill:#4183c8; stroke:none;" d="M104 42L105 43L104 42z"/>
<path style="fill:#be6f2a; stroke:none;" d="M107 42L108 43L107 42z"/>
<path style="fill:#4183c8; stroke:none;" d="M112 49L112 48L108 49L108 43L112 44C108.051 39.6449 104.258 50.183 112 49z"/>
<path style="fill:#be6f2a; stroke:none;" d="M114 42L115 43L114 42z"/>
<path style="fill:#4183c8; stroke:none;" d="M115.667 42.3333L116.333 42.6667L115.667 42.3333M121 42L121 46L125 46L125 45L122 44L125 43L121 42z"/>
<path style="fill:#f7f009; stroke:none;" d="M127 42L128 43L127 42z"/>
<path style="fill:#4183c8; stroke:none;" d="M128 42L128 43L132 46L128 45L128 46L131 49C133.726 45.3395 132.36 42.7277 128 42z"/>
<path style="fill:#be6f2a; stroke:none;" d="M134 42L135 43L134 42z"/>
<path style="fill:#4183c8; stroke:none;" d="M134 48L135 48L135 43L139 43C135.094 41.7201 134.268 44.5493 134 48z"/>
<path style="fill:#be6f2a; stroke:none;" d="M175 42L175 46L176 46L175 42z"/>
<path style="fill:#4183c8; stroke:none;" d="M176 42L176 43L180 43L176 42z"/>
<path style="fill:#be6f2a; stroke:none;" d="M238 42L236 45L238 42z"/>
<path style="fill:#4183c8; stroke:none;" d="M239 42L239 43L245 44L239 42z"/>
<path style="fill:#be6f2a; stroke:none;" d="M253 42L254 43L253 42z"/>
<path style="fill:#4183c8; stroke:none;" d="M52 44L52 48L57 48L57 47L54 45L58 45L52 44z"/>
<path style="fill:#fefefe; stroke:none;" d="M60 43L60 49L63 49L63 43L60 43z"/>
<path style="fill:#4183c8; stroke:none;" d="M66 43C66.2873 51.7495 73.5029 48.1623 68 45L68 46L71 47L71 48L67 49L66 43z"/>
<path style="fill:#f7f009; stroke:none;" d="M74 43L75 44L74 43z"/>
<path style="fill:#be6f2a; stroke:none;" d="M79 43L80 44L79 43z"/>
<path style="fill:#fefefe; stroke:none;" d="M80 43L81 49L83 49C83.5787 45.5772 83.3973 44.1353 80 43z"/>
<path style="fill:#be6f2a; stroke:none;" d="M83 43L84 44L83 43z"/>
<path style="fill:#4183c8; stroke:none;" d="M100 43C100.1 46.0565 101.362 52.0116 105 48L101 49L100 43z"/>
<path style="fill:#fefefe; stroke:none;" d="M108 43L108 49L111 49L111 43L108 43z"/>
<path style="fill:#4183c8; stroke:none;" d="M114 43L115 44L114 43z"/>
<path style="fill:#be6f2a; stroke:none;" d="M116 43L116 50L117 50L116 43M127 43L127 46L128 46L127 43z"/>
<path style="fill:#fefefe; stroke:none;" d="M128 43L131 46L128 43z"/>
<path style="fill:#be6f2a; stroke:none;" d="M131 43L132 44L131 43z"/>
<path style="fill:#fefefe; stroke:none;" d="M135 43L135 49L138 49L138 43L135 43z"/>
<path style="fill:#be6f2a; stroke:none;" d="M138 43L138 48L139 48L138 43M243 43L244 44L243 43M58 44L58 47L59 47L58 44M63 44L63 48L64 48L63 44z"/>
<path style="fill:#fefefe; stroke:none;" d="M75 44L74 47L75 44z"/>
<path style="fill:#4183c8; stroke:none;" d="M79 44L79 47L80 47L79 44z"/>
<path style="fill:#fefefe; stroke:none;" d="M89 44L87 47C89.2508 46.5268 90.1178 46.1397 89 44z"/>
<path style="fill:#be6f2a; stroke:none;" d="M96 44L97 45L96 44M106 44L106 47L107 47L106 44M111 44L111 48L112 48L111 44z"/>
<path style="fill:#f7f009; stroke:none;" d="M120.333 44.6667L120.667 45.3333L120.333 44.6667M131.333 44.6667L131.667 45.3333L131.333 44.6667M133 44L133 47L134 47L133 44z"/>
<path style="fill:#4183c8; stroke:none;" d="M139 44L139 48L140 48L139 44z"/>
<path style="fill:#be6f2a; stroke:none;" d="M150 44L151 45L150 44z"/>
<path style="fill:#4183c8; stroke:none;" d="M151 44L151 45L154 45L151 49L153 46L150 49L155 50L155 44L151 44z"/>
<path style="fill:#f7f009; stroke:none;" d="M155 44L156 45L155 44z"/>
<path style="fill:#4183c8; stroke:none;" d="M156 44L157 45L156 44z"/>
<path style="fill:#be6f2a; stroke:none;" d="M159 44L161 47L159 44z"/>
<path style="fill:#4183c8; stroke:none;" d="M160.333 44.6667L160.667 45.3333L160.333 44.6667z"/>
<path style="fill:#be6f2a; stroke:none;" d="M163 44L164 45L163 44z"/>
<path style="fill:#4183c8; stroke:none;" d="M164 44L167 47L169 45L169 44L164 44z"/>
<path style="fill:#be6f2a; stroke:none;" d="M165 44L166 45L165 44M182 44L183 45L182 44z"/>
<path style="fill:#4183c8; stroke:none;" d="M186 52L187 52L187 44C180.909 45.0166 182.808 48.505 186 52z"/>
<path style="fill:#be6f2a; stroke:none;" d="M191 44L191 50L192 50L191 44z"/>
<path style="fill:#4183c8; stroke:none;" d="M192 44L192 45L200 45L192 44M202 44L205 48L202 49L202 50L206 49L206 47L205 45L202 44M209 47L210 45C207.628 43.7608 206.584 45.6429 209 47M224 44L224 45L228 45L224 44M229 44L230 45L229 44z"/>
<path style="fill:#be6f2a; stroke:none;" d="M233 44L234 45L233 44z"/>
<path style="fill:#4183c8; stroke:none;" d="M234 44L235 45L234 44M240 44L239 46L240 44z"/>
<path style="fill:#be6f2a; stroke:none;" d="M244 44L244 48L245 48L244 44M247 44L248 45L247 44z"/>
<path style="fill:#f7f009; stroke:none;" d="M253 44L253 50L254 50L253 44z"/>
<path style="fill:#4183c8; stroke:none;" d="M254 44L254 50L255 50L254 44z"/>
<path style="fill:#be6f2a; stroke:none;" d="M256 44L256 47L257 47L256 44z"/>
<path style="fill:#4183c8; stroke:none;" d="M257 44L257 45L260 45L257 44z"/>
<path style="fill:#be6f2a; stroke:none;" d="M272 44L271 47L272 47L272 44z"/>
<path style="fill:#4183c8; stroke:none;" d="M273.667 44.3333L274.333 44.6667L273.667 44.3333z"/>
<path style="fill:#be6f2a; stroke:none;" d="M277 44L277 50L278 50L277 44z"/>
<path style="fill:#4183c8; stroke:none;" d="M277 45L277 46L281 45L281 49L277 48C281.577 51.1223 283.091 44.0678 277 45z"/>
<path style="fill:#be6f2a; stroke:none;" d="M283 44L283 50L284 50L283 44z"/>
<path style="fill:#4183c8; stroke:none;" d="M284 44L284 45L292 45L284 44z"/>
<path style="fill:#fefefe; stroke:none;" d="M54.3333 45.6667L54.6667 46.3333L54.3333 45.6667z"/>
<path style="fill:#f7f009; stroke:none;" d="M55 45L56 46L55 45M65 45L65 48L66 48L65 45z"/>
<path style="fill:#be6f2a; stroke:none;" d="M67 45L68 46L67 45M73 45L74 46L73 45M87 45L88 46L87 45z"/>
<path style="fill:#f7f009; stroke:none;" d="M99 45L99 48L100 48L99 45z"/>
<path style="fill:#be6f2a; stroke:none;" d="M101 45L102 46L101 45z"/>
<path style="fill:#4183c8; stroke:none;" d="M102 45L102 46L105 47L102 45z"/>
<path style="fill:#be6f2a; stroke:none;" d="M156.333 45.6667L156.667 46.3333L156.333 45.6667z"/>
<path style="fill:#4183c8; stroke:none;" d="M163.333 45.6667L163.667 46.3333L163.333 45.6667M176 45L176 46L179 49L175 49L175 50C179.129 49.3117 180.605 46.5304 176 45z"/>
<path style="fill:#fefefe; stroke:none;" d="M183 45L183 49L186 45L183 45z"/>
<path style="fill:#be6f2a; stroke:none;" d="M195 45L195 50L196 50L195 45M199 45L199 50L200 50L199 45M201 45L202 46L201 45M206 45L207 46L206 45M216.333 45.6667L216.667 46.3333L216.333 45.6667z"/>
<path style="fill:#fefefe; stroke:none;" d="M217 45L220 49L220 45L217 45z"/>
<path style="fill:#be6f2a; stroke:none;" d="M220 45L220 49L221 49L220 45M223.333 45.6667L223.667 46.3333L223.333 45.6667z"/>
<path style="fill:#fefefe; stroke:none;" d="M224 45L224 46L227 46L224 45z"/>
<path style="fill:#be6f2a; stroke:none;" d="M227 45L228 46L227 45M229 45L230 46L229 45z"/>
<path style="fill:#4183c8; stroke:none;" d="M233.333 45.6667L233.667 46.3333L233.333 45.6667z"/>
<path style="fill:#f7f009; stroke:none;" d="M235 45L236 46L235 45z"/>
<path style="fill:#4183c8; stroke:none;" d="M236 45L237 46L236 45z"/>
<path style="fill:#f7f009; stroke:none;" d="M238 45L239 46L238 45z"/>
<path style="fill:#fefefe; stroke:none;" d="M240 45L239 49L240 45z"/>
<path style="fill:#be6f2a; stroke:none;" d="M241 45L242 46L241 45z"/>
<path style="fill:#4183c8; stroke:none;" d="M242.333 45.6667L242.667 46.3333L242.333 45.6667z"/>
<path style="fill:#be6f2a; stroke:none;" d="M246 45L246 49L247 49L246 45z"/>
<path style="fill:#fefefe; stroke:none;" d="M248 45L250 49L250 45L248 45z"/>
<path style="fill:#f7f009; stroke:none;" d="M250 45L250 49L251 49L250 45M265 45L265 50L266 50L265 45z"/>
<path style="fill:#4183c8; stroke:none;" d="M272 45L273 46L272 45z"/>
<path style="fill:#fefefe; stroke:none;" d="M278 45L277 46L277 48L278 49L280 49L281 48L281 46L280 45L278 45z"/>
<path style="fill:#be6f2a; stroke:none;" d="M280 45L281 46L280 45M287 45L287 50L288 50L287 45M291 45L291 50L292 50L291 45M55 46L56 47L55 46z"/>
<path style="fill:#fefefe; stroke:none;" d="M67 46L67 49L70 49L70 46L67 46z"/>
<path style="fill:#be6f2a; stroke:none;" d="M72.3333 46.6667L72.6667 47.3333L72.3333 46.6667M86 46L87 47L86 46M95 46L96 47L95 46z"/>
<path style="fill:#fefefe; stroke:none;" d="M101 46L101 49L104 49L104 46L101 46z"/>
<path style="fill:#be6f2a; stroke:none;" d="M124 46L124 49L125 49L124 46M128 46L129 47L128 46z"/>
<path style="fill:#f7f009; stroke:none;" d="M151 46L152 47L151 46z"/>
<path style="fill:#4183c8; stroke:none;" d="M159 46L160 47L159 46z"/>
<path style="fill:#f7f009; stroke:none;" d="M162 46L163 47L162 46z"/>
<path style="fill:#be6f2a; stroke:none;" d="M165 46L166 47L165 46M170 46L171 47L170 46z"/>
<path style="fill:#4183c8; stroke:none;" d="M171 46L171 47L174 47L171 46z"/>
<path style="fill:#f7f009; stroke:none;" d="M178 46L179 47L178 46M181 46L182 47L181 46z"/>
<path style="fill:#be6f2a; stroke:none;" d="M211 46L212 47L211 46z"/>
<path style="fill:#4183c8; stroke:none;" d="M212 46L212 47L215 47L212 46M224 46L224 47L228 47L224 46M230 46L231 47L230 46z"/>
<path style="fill:#be6f2a; stroke:none;" d="M232.333 46.6667L232.667 47.3333L232.333 46.6667M235 46L235 50L236 50L235 46M238 46L239 47L238 46z"/>
<path style="fill:#f7f009; stroke:none;" d="M241 46L242 47L241 46z"/>
<path style="fill:#4183c8; stroke:none;" d="M257 46L257 47L260 48L257 46z"/>
<path style="fill:#be6f2a; stroke:none;" d="M51 47L52 48L51 47z"/>
<path style="fill:#f7f009; stroke:none;" d="M58 47L59 48L58 47z"/>
<path style="fill:#be6f2a; stroke:none;" d="M70 47L71 48L70 47M79.3333 47.6667L79.6667 48.3333L79.3333 47.6667z"/>
<path style="fill:#f7f009; stroke:none;" d="M83 47L84 48L83 47z"/>
<path style="fill:#be6f2a; stroke:none;" d="M104 47L105 48L104 47z"/>
<path style="fill:#f7f009; stroke:none;" d="M106 47L107 48L106 47z"/>
<path style="fill:#4183c8; stroke:none;" d="M125 47L126 48L125 47z"/>
<path style="fill:#be6f2a; stroke:none;" d="M131 47L132 48L131 47M150 47L151 48L150 47z"/>
<path style="fill:#fefefe; stroke:none;" d="M151 49L154 49L153 47L151 49z"/>
<path style="fill:#be6f2a; stroke:none;" d="M153 47L154 48L153 47z"/>
<path style="fill:#4183c8; stroke:none;" d="M157 47L158 50L159 50L157 47z"/>
<path style="fill:#be6f2a; stroke:none;" d="M158 47L159 48L158 47z"/>
<path style="fill:#f7f009; stroke:none;" d="M160 47L161 48L160 47z"/>
<path style="fill:#4183c8; stroke:none;" d="M161 47L163 50L161 47z"/>
<path style="fill:#be6f2a; stroke:none;" d="M162 47L163 48L162 47M167 47L169 49L167 47z"/>
<path style="fill:#4183c8; stroke:none;" d="M168 47L169 48L168 47z"/>
<path style="fill:#be6f2a; stroke:none;" d="M181 47L182 48L181 47z"/>
<path style="fill:#4183c8; stroke:none;" d="M209 47L207 49L207 50L211 47L209 47M223 47L224 48L223 47z"/>
<path style="fill:#be6f2a; stroke:none;" d="M230 47L232 50L230 47z"/>
<path style="fill:#4183c8; stroke:none;" d="M238 47L244 50L244 49L238 47z"/>
<path style="fill:#be6f2a; stroke:none;" d="M241.333 47.6667L241.667 48.3333L241.333 47.6667M258 47L259 48L258 47z"/>
<path style="fill:#4183c8; stroke:none;" d="M271 47L276 50L276 49L271 47z"/>
<path style="fill:#be6f2a; stroke:none;" d="M52.3333 48.6667L52.6667 49.3333L52.3333 48.6667M55 48L56 49L55 48M83 48L84 49L83 48M94 48L95 49L94 48M134 48L135 49L134 48z"/>
<path style="fill:#4183c8; stroke:none;" d="M138 48L135 49L135 50L138 48z"/>
<path style="fill:#be6f2a; stroke:none;" d="M157.333 48.6667L157.667 49.3333L157.333 48.6667z"/>
<path style="fill:#f7f009; stroke:none;" d="M178 48L179 49L178 48M185 48L186 49L185 48M204 48L205 49L204 48M209 48L210 49L209 48z"/>
<path style="fill:#be6f2a; stroke:none;" d="M216 48L217 49L216 48M223 48L224 49L223 48z"/>
<path style="fill:#4183c8; stroke:none;" d="M231.667 48.3333L232.333 48.6667L231.667 48.3333M244 48L245 49L244 48z"/>
<path style="fill:#be6f2a; stroke:none;" d="M259 48L260 49L259 48M271 48L272 49L271 48M280 48L281 49L280 48z"/>
<path style="fill:#4183c8; stroke:none;" d="M55 49L56 50L55 49z"/>
<path style="fill:#f7f009; stroke:none;" d="M59 49L60 50L59 49M66 49L67 50L66 49z"/>
<path style="fill:#be6f2a; stroke:none;" d="M80 49L81 50L80 49z"/>
<path style="fill:#f7f009; stroke:none;" d="M100 49L101 50L100 49M107 49L108 50L107 49z"/>
<path style="fill:#be6f2a; stroke:none;" d="M120 49L121 50L120 49z"/>
<path style="fill:#4183c8; stroke:none;" d="M121 49L121 50L125 50L121 49z"/>
<path style="fill:#be6f2a; stroke:none;" d="M127 49L128 50L127 49z"/>
<path style="fill:#4183c8; stroke:none;" d="M128 49L128 50L131 50L128 49z"/>
<path style="fill:#be6f2a; stroke:none;" d="M150 49L151 50L150 49M161 49L162 50L161 49M165 49L166 50L165 49z"/>
<path style="fill:#4183c8; stroke:none;" d="M166 49L166 50L169 50L166 49z"/>
<path style="fill:#f7f009; stroke:none;" d="M182 49L183 50L182 49z"/>
<path style="fill:#be6f2a; stroke:none;" d="M188 49L189 50L188 49z"/>
<path style="fill:#4183c8; stroke:none;" d="M189 49L190 50L189 49z"/>
<path style="fill:#be6f2a; stroke:none;" d="M201 49L202 50L201 49M206 49L207 50L206 49M217 49L218 50L217 49M224 49L225 50L224 49z"/>
<path style="fill:#4183c8; stroke:none;" d="M225 49L225 50L228 50L225 49z"/>
<path style="fill:#be6f2a; stroke:none;" d="M238 49L239 50L238 49M247 49L248 50L247 49M256 49L257 50L256 49z"/>
<path style="fill:#4183c8; stroke:none;" d="M257 49L257 50L260 50L257 49z"/>
<path style="fill:#be6f2a; stroke:none;" d="M268 49L269 50L268 49z"/>
<path style="fill:#4183c8; stroke:none;" d="M269 49L270 50L269 49z"/>
<path style="fill:#be6f2a; stroke:none;" d="M272 49L273 50L272 49z"/>
<path style="fill:#4183c8; stroke:none;" d="M236 50L238 52L236 50M182 51L183 52L182 51z"/>
<path style="fill:#be6f2a; stroke:none;" d="M185 51L186 52L185 51M236 51L237 52L236 51z"/>
<path style="fill:#4183c8; stroke:none;" d="M183.667 52.3333L184.333 52.6667L183.667 52.3333z"/>
<path style="fill:#be6f2a; stroke:none;" d="M238 52L239 53L238 52z"/>
<path style="fill:#4183c8; stroke:none;" d="M239.667 52.3333L240.333 52.6667L239.667 52.3333z"/>
<path style="fill:#f7f009; stroke:none;" d="M441 75L441 91L444 91L444 81L448 86L450 86L454 81L454 91L456 91L456 87L460 87L460 85L456 85L456 84L461 84L461 91L463 91L463 84L469 84L469 91L468 91L468 85L465 85C465.298 93.9494 476.974 94.0721 484 92L484 85L480 85L480 84L485 84L484 94C509.364 98.7088 538.167 92 564 92L564 91C559.679 88.5878 560.453 85.385 565 84L565 85C558.703 87.0937 564.047 90.3646 568 91L568 81L570 81C570.003 84.9871 569.402 88.6676 573 91L572 85L573 85L577 87L577 86L573 85L573 84L578 88L573 88L573 89L585 91L585 80L586 80L586 90L587 90L587 74L497 77.9954L471 74.1698L441 75z"/>
<path style="fill:#be6f2a; stroke:none;" d="M585 80L585 90L586 90L585 80M53 81L53 91L54 91L53 81z"/>
<path style="fill:#35422c; stroke:none;" d="M54 81L54 91C62.3049 90.3584 61.8902 82.232 54 81z"/>
<path style="fill:#be6f2a; stroke:none;" d="M63 81L63 91L64 91L63 81z"/>
<path style="fill:#35422c; stroke:none;" d="M64 81L64 91L65 91L64 81z"/>
<path style="fill:#f7f009; stroke:none;" d="M68 81L67 83L68 81z"/>
<path style="fill:#35422c; stroke:none;" d="M72 87L68 89C72.4248 93.7932 72.352 86.4494 69 83L73 83L73 81C68.4304 81.7627 67.0698 85.3613 72 87z"/>
<path style="fill:#f7f009; stroke:none;" d="M75 81L75 91L76 91L75 81z"/>
<path style="fill:#35422c; stroke:none;" d="M76 81L76 91L77 91L77 87L82 87L82 91L83 91L83 81L82 81L82 85L77 85L76 81z"/>
<path style="fill:#4183c8; stroke:none;" d="M77 81L77 85L78 85L77 81z"/>
<path style="fill:#f7f009; stroke:none;" d="M81 81L81 85L82 85L81 81z"/>
<path style="fill:#4183c8; stroke:none;" d="M83 81L83 91L84 91L83 81z"/>
<path style="fill:#be6f2a; stroke:none;" d="M86 81L86 91L87 91L86 81z"/>
<path style="fill:#35422c; stroke:none;" d="M87 81L87 91C95.3049 90.3584 94.8902 82.232 87 81M117 81L117 91L123 91L123 89L119 89L122 86L119 83L123 83L123 81L117 81z"/>
<path style="fill:#f7f009; stroke:none;" d="M141 81L142 82L141 81z"/>
<path style="fill:#35422c; stroke:none;" d="M142.667 81.3333L143.333 81.6667L142.667 81.3333z"/>
<path style="fill:#be6f2a; stroke:none;" d="M444 81L444 91L445 91L444 81z"/>
<path style="fill:#35422c; stroke:none;" d="M445 81L447 84L445 81z"/>
<path style="fill:#be6f2a; stroke:none;" d="M452 81L452 91L453 91L452 81z"/>
<path style="fill:#4183c8; stroke:none;" d="M453 81L453 91L454 91L453 81z"/>
<path style="fill:#be6f2a; stroke:none;" d="M568 81L568 91L569 91L568 81z"/>
<path style="fill:#4183c8; stroke:none;" d="M569 81L570 91L571 91L569 81z"/>
<path style="fill:#be6f2a; stroke:none;" d="M599 81L600 82L599 81z"/>
<path style="fill:#4183c8; stroke:none;" d="M604 91L604 90C598.568 88.4191 597.706 83.6651 604 83C599.592 78.1545 592.829 90.1478 604 91M659 81C656.361 85.365 650.906 90.2914 660 91L659 81M666 81C666.003 84.9871 665.402 88.6676 669 91L668 81L666 81M670.667 81.3333L671.333 81.6667L670.667 81.3333M790.667 81.3333L791.333 81.6667L790.667 81.3333M59 82L60 83L59 82M73 82L74 83L73 82M92 82L93 83L92 82z"/>
<path style="fill:#35422c; stroke:none;" d="M104 82C103.586 85.8215 103.611 88.826 107 91L107 85L107 84L104 82z"/>
<path style="fill:#4183c8; stroke:none;" d="M105.333 82.6667L105.667 83.3333L105.333 82.6667z"/>
<path style="fill:#be6f2a; stroke:none;" d="M142 82L143 83L142 82z"/>
<path style="fill:#4183c8; stroke:none;" d="M143 82L144 83L143 82z"/>
<path style="fill:#35422c; stroke:none;" d="M452 82L453 83L452 82z"/>
<path style="fill:#be6f2a; stroke:none;" d="M523 82L524 83L523 82M670 82L671 83L670 82M785 82L786 83L785 82M790 82L791 83L790 82z"/>
<path style="fill:#fefefe; stroke:none;" d="M55 83L55 89C58.3973 87.8647 58.5787 86.4228 58 83L55 83z"/>
<path style="fill:#be6f2a; stroke:none;" d="M58 83L59 84L58 83z"/>
<path style="fill:#4183c8; stroke:none;" d="M60 83L61 84L60 83z"/>
<path style="fill:#be6f2a; stroke:none;" d="M67.3333 83.6667L67.6667 84.3333L67.3333 83.6667z"/>
<path style="fill:#fefefe; stroke:none;" d="M88 83L88 89C91.3973 87.8647 91.5787 86.4228 91 83L88 83z"/>
<path style="fill:#be6f2a; stroke:none;" d="M91 83L92 84L91 83z"/>
<path style="fill:#4183c8; stroke:none;" d="M93 83L94 84L93 83z"/>
<path style="fill:#35422c; stroke:none;" d="M451 83L452 84L451 83M523 83L522 84L526 91L526 90L526 84L523 83z"/>
<path style="fill:#be6f2a; stroke:none;" d="M597 83L598 84L597 83z"/>
<path style="fill:#4183c8; stroke:none;" d="M785 83L784 84L789 91L789 90C786.925 87.8499 786.44 86.795 789 85L785 83z"/>
<path style="fill:#f7f009; stroke:none;" d="M58 84L59 85L58 84z"/>
<path style="fill:#4183c8; stroke:none;" d="M69 84L70 85L69 84z"/>
<path style="fill:#f7f009; stroke:none;" d="M91 84L92 85L91 84z"/>
<path style="fill:#35422c; stroke:none;" d="M96 84L96 85L100 85L100 87L96 87L96 91L101 91L101 84L96 84z"/>
<path style="fill:#f7f009; stroke:none;" d="M102 84L103 85L102 84z"/>
<path style="fill:#4183c8; stroke:none;" d="M107 84L108 85L107 84z"/>
<path style="fill:#35422c; stroke:none;" d="M109 84L109 85L113 85L109 91L114 91L114 84L109 84M125 84L125 91L126 91L130 85L130 91L131 91L131 84L125 84M138 90L134 92C138.714 97.1984 138.998 86.7899 139 84C133.597 84.4309 131.682 90.1029 138 90z"/>
<path style="fill:#4183c8; stroke:none;" d="M139 84L139 92L140 92L139 84z"/>
<path style="fill:#35422c; stroke:none;" d="M142 84L142 91L143 91L142 84z"/>
<path style="fill:#4183c8; stroke:none;" d="M143 84L143 91L144 91L143 84z"/>
<path style="fill:#35422c; stroke:none;" d="M146 84L146 91L147 91L151 85L151 91L152 91L152 84L146 84M160 91L160 90L156 90L156 88L160 88C157.604 80.7373 150.799 89.5316 160 91z"/>
<path style="fill:#4183c8; stroke:none;" d="M159 84L160 85L159 84z"/>
<path style="fill:#f7f009; stroke:none;" d="M162 84L163 85L162 84z"/>
<path style="fill:#35422c; stroke:none;" d="M167 91L167 90L163 89L163 88L168 88C165.027 80.6174 158.707 89.6159 167 91z"/>
<path style="fill:#f7f009; stroke:none;" d="M169 84L169 91L170 91L169 84z"/>
<path style="fill:#35422c; stroke:none;" d="M170 84L170 91L171 91L174 84L170 84z"/>
<path style="fill:#4183c8; stroke:none;" d="M171 84L172 85L171 84M445 84L445 91L446 91L445 84z"/>
<path style="fill:#be6f2a; stroke:none;" d="M446 84L447 85L446 84z"/>
<path style="fill:#4183c8; stroke:none;" d="M447 84L448 85L447 84z"/>
<path style="fill:#be6f2a; stroke:none;" d="M450 84L451 85L450 84z"/>
<path style="fill:#4183c8; stroke:none;" d="M451 84L452 85L451 84z"/>
<path style="fill:#35422c; stroke:none;" d="M456 84L456 85L460 85L456 91L461 91L461 84L456 84z"/>
<path style="fill:#be6f2a; stroke:none;" d="M463 84L463 91L464 91L465 84L463 84z"/>
<path style="fill:#35422c; stroke:none;" d="M465 84L465 85L468 85L468 91L469 91L469 84L465 84z"/>
<path style="fill:#be6f2a; stroke:none;" d="M471 84L472 85L471 84z"/>
<path style="fill:#35422c; stroke:none;" d="M472 84L472 85L476 85L472 84M480 84L480 85L483 85L480 84z"/>
<path style="fill:#be6f2a; stroke:none;" d="M483 84L484 85L483 84z"/>
<path style="fill:#35422c; stroke:none;" d="M484 84L483 93L484 93L484 84M492 91L492 90L488 90L488 88L492 88L492 87L488 87L488 85L492 85C486.471 83.1882 486.332 90.054 492 91z"/>
<path style="fill:#be6f2a; stroke:none;" d="M494 84L494 91L495 91L494 84z"/>
<path style="fill:#35422c; stroke:none;" d="M495 84L495 91L496 91L496 85L499 85L499 91L500 91L500 84L495 84z"/>
<path style="fill:#be6f2a; stroke:none;" d="M500 84L501 85L500 84z"/>
<path style="fill:#35422c; stroke:none;" d="M501 84L501 85L504 85L504 91L505 91C504.88 87.3084 504.687 85.2226 501 84z"/>
<path style="fill:#4183c8; stroke:none;" d="M504 84L505 85L504 84z"/>
<path style="fill:#35422c; stroke:none;" d="M512 91L512 90L508 90L508 88L512 88L512 87L508 87L508 85L512 85C506.471 83.1882 506.332 90.054 512 91z"/>
<path style="fill:#be6f2a; stroke:none;" d="M514 84L514 91L515 91L516 84L514 84z"/>
<path style="fill:#35422c; stroke:none;" d="M516 84L516 85L519 85L519 91L520 91L520 84L516 84z"/>
<path style="fill:#be6f2a; stroke:none;" d="M532 84L532 91L533 91L532 84z"/>
<path style="fill:#35422c; stroke:none;" d="M533 84L533 85L536 85L533 84z"/>
<path style="fill:#be6f2a; stroke:none;" d="M538 84L539 85L538 84z"/>
<path style="fill:#35422c; stroke:none;" d="M538 85L538 86L543 85L538 85M546 84L546 91L547 91L546 84z"/>
<path style="fill:#be6f2a; stroke:none;" d="M547 84L548 85L547 84z"/>
<path style="fill:#35422c; stroke:none;" d="M548 84L548 85L551 85L551 91L552 91C551.88 87.3084 551.687 85.2226 548 84z"/>
<path style="fill:#4183c8; stroke:none;" d="M551 84L552 85L551 84z"/>
<path style="fill:#be6f2a; stroke:none;" d="M554 84L555 85L554 84z"/>
<path style="fill:#35422c; stroke:none;" d="M555 84L555 85L558 85L555 84M561 84L561 85L565 85L561 84M573 84L573 85L577 85L573 84z"/>
<path style="fill:#be6f2a; stroke:none;" d="M606 84L605 86L606 84z"/>
<path style="fill:#4183c8; stroke:none;" d="M607.318 85.0856C604.314 87.0412 607.405 92.0026 610.258 89.9144C612.912 87.9717 610.392 83.0844 607.318 85.0856M614 84L614 91L615 91L615 85L618 85L618 91L620 91L620 85L623 85L623 91L624 91L624 84L614 84M626 84L626 91L628 91L628 85L631 85L631 91L632 91L632 85L636 91C638.992 83.6113 631.119 84.0006 626 84M639 84L639 85L643 85L643 87L639 87L639 91L644 91L644 84L639 84M646 84L646 91L647 91L651 85L651 91L652 91L652 84L646 84z"/>
<path style="fill:#be6f2a; stroke:none;" d="M670 84L670 91L671 91L670 84z"/>
<path style="fill:#4183c8; stroke:none;" d="M671 84L671 91L672 91L671 84M674 84L674 91L675 91L675 85L679 85L679 91C680.848 86.4364 678.5 84.3506 674 84M688 91L688 90L683 90L683 88L688 88C685.51 80.5088 678.082 90.2272 688 91M694.589 85.0856C691.925 86.9858 694.466 92.0152 697.411 89.9144C700.075 88.0143 697.534 82.9848 694.589 85.0856M701 84L701 91L703 91L705 85L701 84M710 84L710 94L711 94L711 91C715.413 90.2776 716.325 88.3282 716 84L710 84M718 84L718 91L720 91L722 85L718 84z"/>
<path style="fill:#be6f2a; stroke:none;" d="M724 84L723 86L724 84z"/>
<path style="fill:#4183c8; stroke:none;" d="M725.318 85.0856C722.314 87.0412 725.405 92.0026 728.258 89.9144C730.912 87.9717 728.392 83.0844 725.318 85.0856z"/>
<path style="fill:#be6f2a; stroke:none;" d="M732 84L733 85L732 84z"/>
<path style="fill:#4183c8; stroke:none;" d="M737 90L736 93L737 93L738 84C732.148 84.456 730.396 91.0091 737 90M740 84L740 91L741 91L740 84z"/>
<path style="fill:#be6f2a; stroke:none;" d="M741 84L742 85L741 84z"/>
<path style="fill:#4183c8; stroke:none;" d="M742.667 84.3333L743.333 84.6667L742.667 84.3333M745 84L745 85L749 85L745 91L750 91L750 84L745 84z"/>
<path style="fill:#be6f2a; stroke:none;" d="M752 84L752 91L753 91L752 84z"/>
<path style="fill:#4183c8; stroke:none;" d="M753 84L753 91L754 91L754 85L757 85L757 91L758 91L758 85L762 85L762 91L763 91L763 84L753 84M765 84L765 91L766 91L766 85L770 85L770 91L771 91L771 85L774 85L774 91L775 91L775 84L765 84z"/>
<path style="fill:#be6f2a; stroke:none;" d="M777 84L778 85L777 84z"/>
<path style="fill:#4183c8; stroke:none;" d="M778 84L778 85L782 85L782 87L777 88L777 90L783 91C782.863 86.8242 782.362 84.7279 778 84z"/>
<path style="fill:#be6f2a; stroke:none;" d="M790 84L790 91L791 91L790 84z"/>
<path style="fill:#4183c8; stroke:none;" d="M791 84L791 91L792 91L791 84z"/>
<path style="fill:#be6f2a; stroke:none;" d="M794 84L795 85L794 84z"/>
<path style="fill:#4183c8; stroke:none;" d="M795 84L795 85L798 85L795 84M804 84L804 85L808 85L808 87L804 87L804 91L809 91L809 84L804 84M816 91L816 90C812.985 88.2231 812.985 86.7769 816 85C810.471 83.1882 810.332 90.054 816 91z"/>
<path style="fill:#be6f2a; stroke:none;" d="M818 84L817 86L818 84z"/>
<path style="fill:#4183c8; stroke:none;" d="M819 84L819 85L822 85L819 84z"/>
<path style="fill:#be6f2a; stroke:none;" d="M824 84L825 85L824 84z"/>
<path style="fill:#4183c8; stroke:none;" d="M829 91L829 90L825 90L825 88L829 88L829 84C823.286 84.9537 823.286 90.0463 829 91M831 84L835 90L831 90L831 91L836 90L836 88L832 86L835 85L831 84M837 84L841 90L837 90L837 91L842 90L842 88L838 86L841 85L837 84z"/>
<path style="fill:#f7f009; stroke:none;" d="M67 85L68 86L67 85M99.3333 85.6667L99.6667 86.3333L99.3333 85.6667z"/>
<path style="fill:#4183c8; stroke:none;" d="M101 85L101 91L102 91L101 85z"/>
<path style="fill:#f7f009; stroke:none;" d="M103 85L103 89L104 89L103 85z"/>
<path style="fill:#4183c8; stroke:none;" d="M105 85L105 89L106 89L105 85z"/>
<path style="fill:#f7f009; stroke:none;" d="M112 85L113 86L112 85z"/>
<path style="fill:#4183c8; stroke:none;" d="M114 85L114 91L115 91L114 85M122.333 85.6667L122.667 86.3333L122.333 85.6667z"/>
<path style="fill:#be6f2a; stroke:none;" d="M129 85L129 91L130 91L129 85z"/>
<path style="fill:#4183c8; stroke:none;" d="M131 85L131 91L132 91L131 85z"/>
<path style="fill:#be6f2a; stroke:none;" d="M133 85L134 86L133 85z"/>
<path style="fill:#4183c8; stroke:none;" d="M135 85L136 86L135 85z"/>
<path style="fill:#fefefe; stroke:none;" d="M136 85L135 89L136 85z"/>
<path style="fill:#f7f009; stroke:none;" d="M137 85L137 89L138 89L137 85z"/>
<path style="fill:#be6f2a; stroke:none;" d="M150 85L150 91L151 91L150 85z"/>
<path style="fill:#4183c8; stroke:none;" d="M152 85L152 91L153 91L152 85z"/>
<path style="fill:#be6f2a; stroke:none;" d="M154 85L155 86L154 85z"/>
<path style="fill:#fefefe; stroke:none;" d="M156 85L156 87L158 87L158 85L156 85z"/>
<path style="fill:#be6f2a; stroke:none;" d="M158 85L159 86L158 85z"/>
<path style="fill:#4183c8; stroke:none;" d="M163.333 85.6667L163.667 86.3333L163.333 85.6667z"/>
<path style="fill:#fefefe; stroke:none;" d="M164 85L164 87L166 87L166 85L164 85z"/>
<path style="fill:#4183c8; stroke:none;" d="M167 85L168 86L167 85z"/>
<path style="fill:#f7f009; stroke:none;" d="M446 85L446 91L452 91L452 85L451 85L450 89L448 89L446 85z"/>
<path style="fill:#35422c; stroke:none;" d="M447 85L448 86L447 85M450 85L451 86L450 85z"/>
<path style="fill:#4183c8; stroke:none;" d="M464 85L464 91L465 91L464 85z"/>
<path style="fill:#be6f2a; stroke:none;" d="M475.333 85.6667L475.667 86.3333L475.333 85.6667z"/>
<path style="fill:#4183c8; stroke:none;" d="M476 85L476 91L477 91L476 85z"/>
<path style="fill:#35422c; stroke:none;" d="M479 85L483 91L483 90L479 85z"/>
<path style="fill:#f7f009; stroke:none;" d="M488 85L488 87L491 87L491 85L488 85z"/>
<path style="fill:#be6f2a; stroke:none;" d="M491.333 85.6667L491.667 86.3333L491.333 85.6667z"/>
<path style="fill:#4183c8; stroke:none;" d="M492 85L492 88L493 88L492 85z"/>
<path style="fill:#be6f2a; stroke:none;" d="M503 85L504 86L503 85z"/>
<path style="fill:#f7f009; stroke:none;" d="M508 85L508 87L511 87L511 85L508 85z"/>
<path style="fill:#be6f2a; stroke:none;" d="M511.333 85.6667L511.667 86.3333L511.333 85.6667z"/>
<path style="fill:#4183c8; stroke:none;" d="M512 85L512 88L513 88L512 85M515 85L515 91L516 91L515 85z"/>
<path style="fill:#35422c; stroke:none;" d="M532 85L533 86L532 85z"/>
<path style="fill:#f7f009; stroke:none;" d="M539 85L539 90C542.844 88.7225 542.844 86.2775 539 85z"/>
<path style="fill:#be6f2a; stroke:none;" d="M542 85L543 86L542 85z"/>
<path style="fill:#4183c8; stroke:none;" d="M543 85L544 86L543 85M547 85L548 86L547 85z"/>
<path style="fill:#35422c; stroke:none;" d="M554 85L558 88L558 87L554 85z"/>
<path style="fill:#be6f2a; stroke:none;" d="M560 85L561 86L560 85z"/>
<path style="fill:#4183c8; stroke:none;" d="M561 85L562 86L561 85z"/>
<path style="fill:#35422c; stroke:none;" d="M565 85L566 86L565 85z"/>
<path style="fill:#be6f2a; stroke:none;" d="M572 85L573 86L572 85M576 85L577 86L576 85z"/>
<path style="fill:#4183c8; stroke:none;" d="M577 85L578 86L577 85z"/>
<path style="fill:#fefefe; stroke:none;" d="M607 85L607 90L610 90L610 85L607 85M659 90L659 85C655.156 86.2775 655.156 88.7225 659 90z"/>
<path style="fill:#be6f2a; stroke:none;" d="M678 85L678 91L679 91L678 85z"/>
<path style="fill:#fefefe; stroke:none;" d="M683 85L683 87L686 87L686 85L683 85z"/>
<path style="fill:#be6f2a; stroke:none;" d="M686.333 85.6667L686.667 86.3333L686.333 85.6667z"/>
<path style="fill:#fefefe; stroke:none;" d="M694 85L695 90L697 90C697.494 86.8629 697.036 86.0003 694 85z"/>
<path style="fill:#be6f2a; stroke:none;" d="M697 85L698 86L697 85z"/>
<path style="fill:#fefefe; stroke:none;" d="M711 85L715 90L715 85L711 85M725 85L725 90L728 90L728 85L725 85M733 85L736 90L736 85L733 85z"/>
<path style="fill:#be6f2a; stroke:none;" d="M736 85L736 89L737 89L736 85M761 85L762 86L761 85M769 85L769 91L770 91L769 85M781.333 85.6667L781.667 86.3333L781.333 85.6667z"/>
<path style="fill:#4183c8; stroke:none;" d="M794 85C794.3 88.8644 795.089 90.3483 799 91L799 90L795 90L794 85M818 85C817.649 88.5818 818.556 89.9125 822 91L822 90L819 90L818 85z"/>
<path style="fill:#fefefe; stroke:none;" d="M825 85L825 87L828 87L828 85L825 85z"/>
<path style="fill:#4183c8; stroke:none;" d="M73 86L74 87L73 86M126 86L126 91L127 91L126 86M147 86L147 91L148 91L147 86M155 86L156 87L155 86z"/>
<path style="fill:#f7f009; stroke:none;" d="M158 86L159 87L158 86M161 86L161 89L162 89L161 86z"/>
<path style="fill:#be6f2a; stroke:none;" d="M166 86L167 87L166 86z"/>
<path style="fill:#4183c8; stroke:none;" d="M171 86L171 91L172 91L171 86z"/>
<path style="fill:#be6f2a; stroke:none;" d="M447 86L448 87L447 86z"/>
<path style="fill:#4183c8; stroke:none;" d="M448 86L449 87L448 86z"/>
<path style="fill:#be6f2a; stroke:none;" d="M449 86L450 87L449 86z"/>
<path style="fill:#4183c8; stroke:none;" d="M450 86L451 87L450 86M532 86L532 89L533 89L532 86z"/>
<path style="fill:#be6f2a; stroke:none;" d="M537 86L537 89L538 89L537 86z"/>
<path style="fill:#4183c8; stroke:none;" d="M538 86L538 89L539 89L538 86z"/>
<path style="fill:#35422c; stroke:none;" d="M543 86L543 89L544 89L543 86z"/>
<path style="fill:#4183c8; stroke:none;" d="M555 86L556 87L555 86z"/>
<path style="fill:#35422c; stroke:none;" d="M560 86L560 89L561 89L560 86z"/>
<path style="fill:#be6f2a; stroke:none;" d="M565 86L565 89L566 89L565 86z"/>
<path style="fill:#35422c; stroke:none;" d="M572 86L572 89L573 89L578 87L578 86L572 86z"/>
<path style="fill:#be6f2a; stroke:none;" d="M610 86L610 89L611 89L610 86M635 86L635 91L636 91L635 86M728 86L728 89L729 89L728 86M731 86L731 89L732 89L731 86M793 86L793 89L794 89L793 86M823 86L823 89L824 89L823 86M71 87L72 88L71 87z"/>
<path style="fill:#4183c8; stroke:none;" d="M77 87L77 91L78 91L77 87z"/>
<path style="fill:#f7f009; stroke:none;" d="M81 87L81 91L82 91L81 87z"/>
<path style="fill:#be6f2a; stroke:none;" d="M109 87L110 88L109 87z"/>
<path style="fill:#35422c; stroke:none;" d="M448.667 87.3333L449.333 87.6667L448.667 87.3333z"/>
<path style="fill:#be6f2a; stroke:none;" d="M456 87L457 88L456 87z"/>
<path style="fill:#35422c; stroke:none;" d="M472 87L472 88L476 88L472 87z"/>
<path style="fill:#4183c8; stroke:none;" d="M566 87L567 88L566 87M577 87L578 88L577 87z"/>
<path style="fill:#be6f2a; stroke:none;" d="M745 87L746 88L745 87M58 88L59 89L58 88z"/>
<path style="fill:#4183c8; stroke:none;" d="M60 88L61 89L60 88z"/>
<path style="fill:#be6f2a; stroke:none;" d="M91 88L92 89L91 88z"/>
<path style="fill:#4183c8; stroke:none;" d="M93 88L94 89L93 88z"/>
<path style="fill:#f7f009; stroke:none;" d="M95 88L96 89L95 88z"/>
<path style="fill:#fefefe; stroke:none;" d="M97 88L99 90L99 88L97 88z"/>
<path style="fill:#f7f009; stroke:none;" d="M99 88L100 89L99 88M108.333 88.6667L108.667 89.3333L108.333 88.6667z"/>
<path style="fill:#4183c8; stroke:none;" d="M110.333 88.6667L110.667 89.3333L110.333 88.6667z"/>
<path style="fill:#fefefe; stroke:none;" d="M111 88L111 90L113 88L111 88z"/>
<path style="fill:#4183c8; stroke:none;" d="M163 88L164 89L163 88z"/>
<path style="fill:#be6f2a; stroke:none;" d="M448 88L449 89L448 88z"/>
<path style="fill:#4183c8; stroke:none;" d="M449 88L450 89L449 88z"/>
<path style="fill:#f7f009; stroke:none;" d="M457 88L457 90L460 90L460 88L457 88z"/>
<path style="fill:#be6f2a; stroke:none;" d="M471 88L471 91L472 91L471 88z"/>
<path style="fill:#f7f009; stroke:none;" d="M472 88L472 90L475 90L475 88L472 88z"/>
<path style="fill:#be6f2a; stroke:none;" d="M475 88L475 91L476 91L475 88M557.333 88.6667L557.667 89.3333L557.333 88.6667z"/>
<path style="fill:#4183c8; stroke:none;" d="M558.333 88.6667L558.667 89.3333L558.333 88.6667z"/>
<path style="fill:#be6f2a; stroke:none;" d="M605 88L606 89L605 88M638.333 88.6667L638.667 89.3333L638.333 88.6667z"/>
<path style="fill:#fefefe; stroke:none;" d="M640 88L640 90L643 90L643 88L640 88z"/>
<path style="fill:#be6f2a; stroke:none;" d="M723 88L724 89L723 88z"/>
<path style="fill:#fefefe; stroke:none;" d="M746 88L746 90L749 90L749 88L746 88M778 88L778 90L781 90L781 88L778 88z"/>
<path style="fill:#be6f2a; stroke:none;" d="M781.333 88.6667L781.667 89.3333L781.333 88.6667M803.333 88.6667L803.667 89.3333L803.333 88.6667z"/>
<path style="fill:#fefefe; stroke:none;" d="M805 88L805 90L808 90L808 88L805 88z"/>
<path style="fill:#be6f2a; stroke:none;" d="M817.333 88.6667L817.667 89.3333L817.333 88.6667M834.333 88.6667L834.667 89.3333L834.333 88.6667M840.333 88.6667L840.667 89.3333L840.333 88.6667M67.3333 89.6667L67.6667 90.3333L67.3333 89.6667z"/>
<path style="fill:#4183c8; stroke:none;" d="M73 89L74 90L73 89z"/>
<path style="fill:#be6f2a; stroke:none;" d="M95 89L96 90L95 89z"/>
<path style="fill:#4183c8; stroke:none;" d="M97 89L98 90L97 89z"/>
<path style="fill:#be6f2a; stroke:none;" d="M99 89L100 90L99 89z"/>
<path style="fill:#f7f009; stroke:none;" d="M112 89L113 90L112 89M133 89L134 90L133 89z"/>
<path style="fill:#be6f2a; stroke:none;" d="M154 89L155 90L154 89z"/>
<path style="fill:#4183c8; stroke:none;" d="M156 89L157 90L156 89z"/>
<path style="fill:#be6f2a; stroke:none;" d="M159 89L160 90L159 89z"/>
<path style="fill:#4183c8; stroke:none;" d="M164 89L165 90L164 89z"/>
<path style="fill:#be6f2a; stroke:none;" d="M167 89L168 90L167 89M479 89L480 90L479 89z"/>
<path style="fill:#35422c; stroke:none;" d="M532 89L533 90L532 89M538 89L538 90L543 91L543 90L538 89z"/>
<path style="fill:#be6f2a; stroke:none;" d="M542 89L543 90L542 89z"/>
<path style="fill:#4183c8; stroke:none;" d="M543 89L544 90L543 89z"/>
<path style="fill:#be6f2a; stroke:none;" d="M560 89L561 90L560 89z"/>
<path style="fill:#4183c8; stroke:none;" d="M561 89L562 90L561 89z"/>
<path style="fill:#35422c; stroke:none;" d="M565 89L566 90L565 89z"/>
<path style="fill:#be6f2a; stroke:none;" d="M572 89L573 90L572 89z"/>
<path style="fill:#4183c8; stroke:none;" d="M573 89L574 90L573 89z"/>
<path style="fill:#be6f2a; stroke:none;" d="M697 89L698 90L697 89z"/>
<path style="fill:#4183c8; stroke:none;" d="M72 90L73 91L72 90z"/>
<path style="fill:#be6f2a; stroke:none;" d="M104 90L105 91L104 90z"/>
<path style="fill:#4183c8; stroke:none;" d="M107 90L108 91L107 90z"/>
<path style="fill:#f7f009; stroke:none;" d="M134 90L135 91L134 90z"/>
<path style="fill:#be6f2a; stroke:none;" d="M137 90L138 91L137 90M155 90L156 91L155 90z"/>
<path style="fill:#4183c8; stroke:none;" d="M167 90L168 91L167 90z"/>
<path style="fill:#35422c; stroke:none;" d="M472 90L472 91L475 91L472 90z"/>
<path style="fill:#be6f2a; stroke:none;" d="M480 90L481 91L480 90z"/>
<path style="fill:#4183c8; stroke:none;" d="M492 90L493 91L492 90M512 90L513 91L512 90z"/>
<path style="fill:#be6f2a; stroke:none;" d="M523 90L524 91L523 90z"/>
<path style="fill:#35422c; stroke:none;" d="M533 90L533 91L536 91L533 90z"/>
<path style="fill:#be6f2a; stroke:none;" d="M538 90L539 91L538 90z"/>
<path style="fill:#35422c; stroke:none;" d="M554 90L554 91L558 91L554 90M561 90L561 91L565 91L561 90M569 90L570 91L569 90M573 90L573 91L577 91L573 90z"/>
<path style="fill:#4183c8; stroke:none;" d="M577 90L578 91L577 90M585 90L585 94L586 94L585 90z"/>
<path style="fill:#be6f2a; stroke:none;" d="M606 90L607 91L606 90M666 90L667 91L666 90M724 90L725 91L724 90M736.333 90.6667L736.667 91.3333L736.333 90.6667M777 90L778 91L777 90M785 90L786 91L785 90M794 90L795 91L794 90M818 90L819 91L818 90M824 90L825 91L824 90z"/>
<path style="fill:#f7f009; stroke:none;" d="M137 91L138 92L137 91M133.333 92.6667L133.667 93.3333L133.333 92.6667z"/>
<path style="fill:#4183c8; stroke:none;" d="M135 92L136 93L135 92z"/>
<path style="fill:#be6f2a; stroke:none;" d="M136 92L137 93L136 92z"/>
<path style="fill:#4183c8; stroke:none;" d="M484 92L485 93L484 92z"/>
<path style="fill:#be6f2a; stroke:none;" d="M479 93L480 94L479 93z"/>
<path style="fill:#4183c8; stroke:none;" d="M480 93L480 94L484 94L480 93M732 93L732 94L736 94L732 93z"/>
</svg>
